<svg width="307" height="454" viewBox="0 0 307 454" fill="none" xmlns="http://www.w3.org/2000/svg">
<g clip-path="url(#clip0_489_534)">
<g filter="url(#filter0_d_489_534)">
<circle cx="282" cy="429" r="25" fill="white"/>
<circle cx="282" cy="429" r="24.25" stroke="url(#paint0_linear_489_534)" stroke-width="1.5"/>
</g>
<circle cx="282" cy="429" r="24.25" stroke="url(#paint1_linear_489_534)" stroke-width="1.5"/>
<circle cx="282" cy="429" r="24.25" stroke="#194A21" stroke-width="1.5"/>
<circle cx="282" cy="429" r="24.25" stroke="#A1A1A1" stroke-width="1.5"/>
<path d="M272.131 426.284C271.507 425.552 270.703 425.288 269.755 425.288C268.267 425.288 266.863 426.104 266.863 427.736C266.863 429.152 267.775 429.68 268.975 430.076C270.487 430.58 271.195 430.76 271.195 431.804C271.195 432.776 270.211 433.28 269.347 433.28C268.615 433.28 267.895 432.956 267.535 432.332L266.671 433.04C267.247 433.892 268.303 434.216 269.287 434.216C270.823 434.216 272.275 433.424 272.275 431.732C272.275 430.064 271.051 429.632 269.731 429.212C268.375 428.78 267.943 428.432 267.943 427.652C267.943 426.644 268.867 426.224 269.755 426.224C270.367 426.224 270.967 426.464 271.303 427.004L272.131 426.284ZM277.887 434.216C280.467 434.216 282.327 432.32 282.327 429.752C282.327 427.184 280.467 425.288 277.887 425.288C275.307 425.288 273.447 427.184 273.447 429.752C273.447 432.32 275.307 434.216 277.887 434.216ZM277.887 433.28C275.895 433.28 274.527 431.708 274.527 429.752C274.527 427.796 275.895 426.224 277.887 426.224C279.879 426.224 281.247 427.796 281.247 429.752C281.247 431.708 279.879 433.28 277.887 433.28ZM283.947 434H288.843V433.064H284.955V425.504H283.947V434ZM289.791 434H293.055C294.723 434 297.219 432.884 297.219 429.752C297.219 426.62 294.723 425.504 293.055 425.504H289.791V434ZM290.799 426.44H292.719C294.663 426.44 296.139 427.424 296.139 429.752C296.139 432.08 294.663 433.064 292.719 433.064H290.799V426.44Z" fill="#A1A1A1"/>
<path d="M272.598 434H278.07V433.064H273.738V433.04L276.354 430.58C277.206 429.776 278.01 429.02 278.01 427.664C278.01 426.152 276.822 425.36 275.418 425.36C274.05 425.36 272.982 426.092 272.754 427.484L273.846 427.58C274.002 426.764 274.602 426.224 275.454 426.224C276.306 426.224 277.002 426.776 277.002 427.664C277.002 428.492 276.606 428.948 275.802 429.728L272.598 432.848V434ZM279.122 429.752C279.122 431.684 279.662 434.144 282.002 434.144C284.342 434.144 284.882 431.684 284.882 429.752C284.882 427.82 284.342 425.36 282.002 425.36C279.662 425.36 279.122 427.82 279.122 429.752ZM280.13 429.752C280.13 428.504 280.322 426.224 282.002 426.224C283.682 426.224 283.874 428.504 283.874 429.752C283.874 431 283.682 433.28 282.002 433.28C280.322 433.28 280.13 431 280.13 429.752ZM287.782 429.968H288.094C289.138 429.968 290.242 430.364 290.242 431.612C290.242 432.596 289.474 433.28 288.514 433.28C287.578 433.28 287.086 432.932 286.798 432.02L285.778 432.356C286.21 433.616 287.23 434.144 288.514 434.144C290.026 434.144 291.322 433.304 291.322 431.684C291.322 430.616 290.662 429.728 289.582 429.548V429.524C290.434 429.26 291.034 428.468 291.034 427.58C291.034 426.116 289.858 425.36 288.502 425.36C287.422 425.36 286.45 425.84 286.042 426.8L287.014 427.172C287.314 426.548 287.866 426.224 288.574 426.224C289.426 426.224 290.026 426.764 290.026 427.628C290.026 428.912 288.934 429.104 288.094 429.104H287.782V429.968Z" fill="#194A21"/>
<g filter="url(#filter1_d_489_534)">
<circle cx="199" cy="429" r="25" fill="white"/>
<circle cx="199" cy="429" r="24.25" stroke="url(#paint2_linear_489_534)" stroke-width="1.5"/>
</g>
<circle cx="199" cy="429" r="24.25" stroke="url(#paint3_linear_489_534)" stroke-width="1.5"/>
<circle cx="199" cy="429" r="24.25" stroke="#194A21" stroke-width="1.5"/>
<circle cx="199" cy="429" r="24.25" stroke="#A1A1A1" stroke-width="1.5"/>
<path d="M189.131 426.284C188.507 425.552 187.703 425.288 186.755 425.288C185.267 425.288 183.863 426.104 183.863 427.736C183.863 429.152 184.775 429.68 185.975 430.076C187.487 430.58 188.195 430.76 188.195 431.804C188.195 432.776 187.211 433.28 186.347 433.28C185.615 433.28 184.895 432.956 184.535 432.332L183.671 433.04C184.247 433.892 185.303 434.216 186.287 434.216C187.823 434.216 189.275 433.424 189.275 431.732C189.275 430.064 188.051 429.632 186.731 429.212C185.375 428.78 184.943 428.432 184.943 427.652C184.943 426.644 185.867 426.224 186.755 426.224C187.367 426.224 187.967 426.464 188.303 427.004L189.131 426.284ZM194.887 434.216C197.467 434.216 199.327 432.32 199.327 429.752C199.327 427.184 197.467 425.288 194.887 425.288C192.307 425.288 190.447 427.184 190.447 429.752C190.447 432.32 192.307 434.216 194.887 434.216ZM194.887 433.28C192.895 433.28 191.527 431.708 191.527 429.752C191.527 427.796 192.895 426.224 194.887 426.224C196.879 426.224 198.247 427.796 198.247 429.752C198.247 431.708 196.879 433.28 194.887 433.28ZM200.947 434H205.843V433.064H201.955V425.504H200.947V434ZM206.791 434H210.055C211.723 434 214.219 432.884 214.219 429.752C214.219 426.62 211.723 425.504 210.055 425.504H206.791V434ZM207.799 426.44H209.719C211.663 426.44 213.139 427.424 213.139 429.752C213.139 432.08 211.663 433.064 209.719 433.064H207.799V426.44Z" fill="#A1A1A1"/>
<path d="M189.598 434H195.07V433.064H190.738V433.04L193.354 430.58C194.206 429.776 195.01 429.02 195.01 427.664C195.01 426.152 193.822 425.36 192.418 425.36C191.05 425.36 189.982 426.092 189.754 427.484L190.846 427.58C191.002 426.764 191.602 426.224 192.454 426.224C193.306 426.224 194.002 426.776 194.002 427.664C194.002 428.492 193.606 428.948 192.802 429.728L189.598 432.848V434ZM196.122 429.752C196.122 431.684 196.662 434.144 199.002 434.144C201.342 434.144 201.882 431.684 201.882 429.752C201.882 427.82 201.342 425.36 199.002 425.36C196.662 425.36 196.122 427.82 196.122 429.752ZM197.13 429.752C197.13 428.504 197.322 426.224 199.002 426.224C200.682 426.224 200.874 428.504 200.874 429.752C200.874 431 200.682 433.28 199.002 433.28C197.322 433.28 197.13 431 197.13 429.752ZM202.934 434H208.406V433.064H204.074V433.04L206.69 430.58C207.542 429.776 208.346 429.02 208.346 427.664C208.346 426.152 207.158 425.36 205.754 425.36C204.386 425.36 203.318 426.092 203.09 427.484L204.182 427.58C204.338 426.764 204.938 426.224 205.79 426.224C206.642 426.224 207.338 426.776 207.338 427.664C207.338 428.492 206.942 428.948 206.138 429.728L202.934 432.848V434Z" fill="#194A21"/>
<g filter="url(#filter2_d_489_534)">
<circle cx="112" cy="429" r="25" fill="white"/>
<circle cx="112" cy="429" r="24.25" stroke="url(#paint4_linear_489_534)" stroke-width="1.5"/>
</g>
<circle cx="112" cy="429" r="24.25" stroke="url(#paint5_linear_489_534)" stroke-width="1.5"/>
<circle cx="112" cy="429" r="24.25" stroke="#194A21" stroke-width="1.5"/>
<circle cx="112" cy="429" r="24.25" stroke="#A1A1A1" stroke-width="1.5"/>
<path d="M102.131 426.284C101.507 425.552 100.703 425.288 99.7548 425.288C98.2668 425.288 96.8628 426.104 96.8628 427.736C96.8628 429.152 97.7748 429.68 98.9748 430.076C100.487 430.58 101.195 430.76 101.195 431.804C101.195 432.776 100.211 433.28 99.3468 433.28C98.6148 433.28 97.8948 432.956 97.5348 432.332L96.6708 433.04C97.2468 433.892 98.3028 434.216 99.2868 434.216C100.823 434.216 102.275 433.424 102.275 431.732C102.275 430.064 101.051 429.632 99.7308 429.212C98.3748 428.78 97.9428 428.432 97.9428 427.652C97.9428 426.644 98.8668 426.224 99.7548 426.224C100.367 426.224 100.967 426.464 101.303 427.004L102.131 426.284ZM107.887 434.216C110.467 434.216 112.327 432.32 112.327 429.752C112.327 427.184 110.467 425.288 107.887 425.288C105.307 425.288 103.447 427.184 103.447 429.752C103.447 432.32 105.307 434.216 107.887 434.216ZM107.887 433.28C105.895 433.28 104.527 431.708 104.527 429.752C104.527 427.796 105.895 426.224 107.887 426.224C109.879 426.224 111.247 427.796 111.247 429.752C111.247 431.708 109.879 433.28 107.887 433.28ZM113.947 434H118.843V433.064H114.955V425.504H113.947V434ZM119.791 434H123.055C124.723 434 127.219 432.884 127.219 429.752C127.219 426.62 124.723 425.504 123.055 425.504H119.791V434ZM120.799 426.44H122.719C124.663 426.44 126.139 427.424 126.139 429.752C126.139 432.08 124.663 433.064 122.719 433.064H120.799V426.44Z" fill="#A1A1A1"/>
<path d="M102.598 434H108.07V433.064H103.738V433.04L106.354 430.58C107.206 429.776 108.01 429.02 108.01 427.664C108.01 426.152 106.822 425.36 105.418 425.36C104.05 425.36 102.982 426.092 102.754 427.484L103.846 427.58C104.002 426.764 104.602 426.224 105.454 426.224C106.306 426.224 107.002 426.776 107.002 427.664C107.002 428.492 106.606 428.948 105.802 429.728L102.598 432.848V434ZM109.122 429.752C109.122 431.684 109.662 434.144 112.002 434.144C114.342 434.144 114.882 431.684 114.882 429.752C114.882 427.82 114.342 425.36 112.002 425.36C109.662 425.36 109.122 427.82 109.122 429.752ZM110.13 429.752C110.13 428.504 110.322 426.224 112.002 426.224C113.682 426.224 113.874 428.504 113.874 429.752C113.874 431 113.682 433.28 112.002 433.28C110.322 433.28 110.13 431 110.13 429.752ZM119.654 425.504H118.778L116.498 427.352L117.098 428.084L118.622 426.8H118.646V434H119.654V425.504Z" fill="#194A21"/>
<g filter="url(#filter3_d_489_534)">
<circle cx="266" cy="309" r="25" fill="white"/>
<circle cx="266" cy="309" r="24.25" stroke="url(#paint6_linear_489_534)" stroke-width="1.5"/>
</g>
<circle cx="266" cy="309" r="24.25" stroke="url(#paint7_linear_489_534)" stroke-width="1.5"/>
<circle cx="266" cy="309" r="24.25" stroke="#194A21" stroke-width="1.5"/>
<circle cx="266" cy="309" r="24.25" stroke="#A1A1A1" stroke-width="1.5"/>
<path d="M256.131 306.284C255.507 305.552 254.703 305.288 253.755 305.288C252.267 305.288 250.863 306.104 250.863 307.736C250.863 309.152 251.775 309.68 252.975 310.076C254.487 310.58 255.195 310.76 255.195 311.804C255.195 312.776 254.211 313.28 253.347 313.28C252.615 313.28 251.895 312.956 251.535 312.332L250.671 313.04C251.247 313.892 252.303 314.216 253.287 314.216C254.823 314.216 256.275 313.424 256.275 311.732C256.275 310.064 255.051 309.632 253.731 309.212C252.375 308.78 251.943 308.432 251.943 307.652C251.943 306.644 252.867 306.224 253.755 306.224C254.367 306.224 254.967 306.464 255.303 307.004L256.131 306.284ZM261.887 314.216C264.467 314.216 266.327 312.32 266.327 309.752C266.327 307.184 264.467 305.288 261.887 305.288C259.307 305.288 257.447 307.184 257.447 309.752C257.447 312.32 259.307 314.216 261.887 314.216ZM261.887 313.28C259.895 313.28 258.527 311.708 258.527 309.752C258.527 307.796 259.895 306.224 261.887 306.224C263.879 306.224 265.247 307.796 265.247 309.752C265.247 311.708 263.879 313.28 261.887 313.28ZM267.947 314H272.843V313.064H268.955V305.504H267.947V314ZM273.791 314H277.055C278.723 314 281.219 312.884 281.219 309.752C281.219 306.62 278.723 305.504 277.055 305.504H273.791V314ZM274.799 306.44H276.719C278.663 306.44 280.139 307.424 280.139 309.752C280.139 312.08 278.663 313.064 276.719 313.064H274.799V306.44Z" fill="#A1A1A1"/>
<path d="M256.598 314H262.07V313.064H257.738V313.04L260.354 310.58C261.206 309.776 262.01 309.02 262.01 307.664C262.01 306.152 260.822 305.36 259.418 305.36C258.05 305.36 256.982 306.092 256.754 307.484L257.846 307.58C258.002 306.764 258.602 306.224 259.454 306.224C260.306 306.224 261.002 306.776 261.002 307.664C261.002 308.492 260.606 308.948 259.802 309.728L256.598 312.848V314ZM263.122 309.752C263.122 311.684 263.662 314.144 266.002 314.144C268.342 314.144 268.882 311.684 268.882 309.752C268.882 307.82 268.342 305.36 266.002 305.36C263.662 305.36 263.122 307.82 263.122 309.752ZM264.13 309.752C264.13 308.504 264.322 306.224 266.002 306.224C267.682 306.224 267.874 308.504 267.874 309.752C267.874 311 267.682 313.28 266.002 313.28C264.322 313.28 264.13 311 264.13 309.752ZM274.362 305.504H273.126L269.754 310.94V312.056H273.354V314H274.362V312.056H275.586V311.12H274.362V305.504ZM273.354 311.12H270.618L273.33 306.68H273.354V311.12Z" fill="#194A21"/>
<g filter="url(#filter4_d_489_534)">
<circle cx="266" cy="222" r="25" fill="white"/>
<circle cx="266" cy="222" r="24.25" stroke="url(#paint8_linear_489_534)" stroke-width="1.5"/>
</g>
<circle cx="266" cy="222" r="24.25" stroke="url(#paint9_linear_489_534)" stroke-width="1.5"/>
<circle cx="266" cy="222" r="24.25" stroke="#194A21" stroke-width="1.5"/>
<circle cx="266" cy="222" r="24.25" stroke="#A1A1A1" stroke-width="1.5"/>
<path d="M256.131 219.284C255.507 218.552 254.703 218.288 253.755 218.288C252.267 218.288 250.863 219.104 250.863 220.736C250.863 222.152 251.775 222.68 252.975 223.076C254.487 223.58 255.195 223.76 255.195 224.804C255.195 225.776 254.211 226.28 253.347 226.28C252.615 226.28 251.895 225.956 251.535 225.332L250.671 226.04C251.247 226.892 252.303 227.216 253.287 227.216C254.823 227.216 256.275 226.424 256.275 224.732C256.275 223.064 255.051 222.632 253.731 222.212C252.375 221.78 251.943 221.432 251.943 220.652C251.943 219.644 252.867 219.224 253.755 219.224C254.367 219.224 254.967 219.464 255.303 220.004L256.131 219.284ZM261.887 227.216C264.467 227.216 266.327 225.32 266.327 222.752C266.327 220.184 264.467 218.288 261.887 218.288C259.307 218.288 257.447 220.184 257.447 222.752C257.447 225.32 259.307 227.216 261.887 227.216ZM261.887 226.28C259.895 226.28 258.527 224.708 258.527 222.752C258.527 220.796 259.895 219.224 261.887 219.224C263.879 219.224 265.247 220.796 265.247 222.752C265.247 224.708 263.879 226.28 261.887 226.28ZM267.947 227H272.843V226.064H268.955V218.504H267.947V227ZM273.791 227H277.055C278.723 227 281.219 225.884 281.219 222.752C281.219 219.62 278.723 218.504 277.055 218.504H273.791V227ZM274.799 219.44H276.719C278.663 219.44 280.139 220.424 280.139 222.752C280.139 225.08 278.663 226.064 276.719 226.064H274.799V219.44Z" fill="#A1A1A1"/>
<path d="M256.598 227H262.07V226.064H257.738V226.04L260.354 223.58C261.206 222.776 262.01 222.02 262.01 220.664C262.01 219.152 260.822 218.36 259.418 218.36C258.05 218.36 256.982 219.092 256.754 220.484L257.846 220.58C258.002 219.764 258.602 219.224 259.454 219.224C260.306 219.224 261.002 219.776 261.002 220.664C261.002 221.492 260.606 221.948 259.802 222.728L256.598 225.848V227ZM263.122 222.752C263.122 224.684 263.662 227.144 266.002 227.144C268.342 227.144 268.882 224.684 268.882 222.752C268.882 220.82 268.342 218.36 266.002 218.36C263.662 218.36 263.122 220.82 263.122 222.752ZM264.13 222.752C264.13 221.504 264.322 219.224 266.002 219.224C267.682 219.224 267.874 221.504 267.874 222.752C267.874 224 267.682 226.28 266.002 226.28C264.322 226.28 264.13 224 264.13 222.752ZM275.022 218.504H270.57L270.486 222.92C270.99 222.62 271.638 222.392 272.214 222.392C273.402 222.392 274.314 223.076 274.314 224.324C274.314 225.5 273.51 226.28 272.49 226.28C271.77 226.28 271.194 225.848 270.906 225.212L269.898 225.596C270.354 226.532 271.122 227.144 272.406 227.144C274.062 227.144 275.322 226.016 275.322 224.324C275.322 222.728 274.242 221.528 272.61 221.528C272.262 221.528 271.842 221.576 271.518 221.732L271.554 219.44H275.022V218.504Z" fill="#194A21"/>
<g filter="url(#filter5_d_489_534)">
<circle cx="266" cy="132" r="25" fill="white"/>
<circle cx="266" cy="132" r="24.25" stroke="url(#paint10_linear_489_534)" stroke-width="1.5"/>
</g>
<circle cx="266" cy="132" r="24.25" stroke="url(#paint11_linear_489_534)" stroke-width="1.5"/>
<circle cx="266" cy="132" r="24.25" stroke="#194A21" stroke-width="1.5"/>
<circle cx="266" cy="132" r="24.25" stroke="#A1A1A1" stroke-width="1.5"/>
<path d="M256.131 129.284C255.507 128.552 254.703 128.288 253.755 128.288C252.267 128.288 250.863 129.104 250.863 130.736C250.863 132.152 251.775 132.68 252.975 133.076C254.487 133.58 255.195 133.76 255.195 134.804C255.195 135.776 254.211 136.28 253.347 136.28C252.615 136.28 251.895 135.956 251.535 135.332L250.671 136.04C251.247 136.892 252.303 137.216 253.287 137.216C254.823 137.216 256.275 136.424 256.275 134.732C256.275 133.064 255.051 132.632 253.731 132.212C252.375 131.78 251.943 131.432 251.943 130.652C251.943 129.644 252.867 129.224 253.755 129.224C254.367 129.224 254.967 129.464 255.303 130.004L256.131 129.284ZM261.887 137.216C264.467 137.216 266.327 135.32 266.327 132.752C266.327 130.184 264.467 128.288 261.887 128.288C259.307 128.288 257.447 130.184 257.447 132.752C257.447 135.32 259.307 137.216 261.887 137.216ZM261.887 136.28C259.895 136.28 258.527 134.708 258.527 132.752C258.527 130.796 259.895 129.224 261.887 129.224C263.879 129.224 265.247 130.796 265.247 132.752C265.247 134.708 263.879 136.28 261.887 136.28ZM267.947 137H272.843V136.064H268.955V128.504H267.947V137ZM273.791 137H277.055C278.723 137 281.219 135.884 281.219 132.752C281.219 129.62 278.723 128.504 277.055 128.504H273.791V137ZM274.799 129.44H276.719C278.663 129.44 280.139 130.424 280.139 132.752C280.139 135.08 278.663 136.064 276.719 136.064H274.799V129.44Z" fill="#A1A1A1"/>
<path d="M256.598 137H262.07V136.064H257.738V136.04L260.354 133.58C261.206 132.776 262.01 132.02 262.01 130.664C262.01 129.152 260.822 128.36 259.418 128.36C258.05 128.36 256.982 129.092 256.754 130.484L257.846 130.58C258.002 129.764 258.602 129.224 259.454 129.224C260.306 129.224 261.002 129.776 261.002 130.664C261.002 131.492 260.606 131.948 259.802 132.728L256.598 135.848V137ZM263.122 132.752C263.122 134.684 263.662 137.144 266.002 137.144C268.342 137.144 268.882 134.684 268.882 132.752C268.882 130.82 268.342 128.36 266.002 128.36C263.662 128.36 263.122 130.82 263.122 132.752ZM264.13 132.752C264.13 131.504 264.322 129.224 266.002 129.224C267.682 129.224 267.874 131.504 267.874 132.752C267.874 134 267.682 136.28 266.002 136.28C264.322 136.28 264.13 134 264.13 132.752ZM274.062 128.504H272.886L270.63 132.092C270.174 132.824 269.826 133.496 269.826 134.48C269.826 136.136 271.062 137.144 272.67 137.144C274.278 137.144 275.514 136.136 275.514 134.48C275.514 132.896 274.422 131.816 272.946 131.816C272.598 131.816 272.118 131.888 271.806 132.068L271.782 132.044L274.062 128.504ZM272.67 132.68C273.69 132.68 274.506 133.376 274.506 134.48C274.506 135.584 273.69 136.28 272.67 136.28C271.65 136.28 270.834 135.584 270.834 134.48C270.834 133.376 271.65 132.68 272.67 132.68Z" fill="#194A21"/>
<g filter="url(#filter6_d_489_534)">
<circle cx="25" cy="409" r="25" fill="white"/>
<circle cx="25" cy="409" r="24.25" stroke="url(#paint12_linear_489_534)" stroke-width="1.5"/>
</g>
<circle cx="25" cy="409" r="24.25" stroke="url(#paint13_linear_489_534)" stroke-width="1.5"/>
<circle cx="25" cy="409" r="24.25" stroke="#194A21" stroke-width="1.5"/>
<circle cx="25" cy="409" r="24.25" stroke="#A1A1A1" stroke-width="1.5"/>
<path d="M15.1308 406.284C14.5068 405.552 13.7028 405.288 12.7548 405.288C11.2668 405.288 9.86284 406.104 9.86284 407.736C9.86284 409.152 10.7748 409.68 11.9748 410.076C13.4868 410.58 14.1948 410.76 14.1948 411.804C14.1948 412.776 13.2108 413.28 12.3468 413.28C11.6148 413.28 10.8948 412.956 10.5348 412.332L9.67084 413.04C10.2468 413.892 11.3028 414.216 12.2868 414.216C13.8228 414.216 15.2748 413.424 15.2748 411.732C15.2748 410.064 14.0508 409.632 12.7308 409.212C11.3748 408.78 10.9428 408.432 10.9428 407.652C10.9428 406.644 11.8668 406.224 12.7548 406.224C13.3668 406.224 13.9668 406.464 14.3028 407.004L15.1308 406.284ZM20.8868 414.216C23.4668 414.216 25.3268 412.32 25.3268 409.752C25.3268 407.184 23.4668 405.288 20.8868 405.288C18.3068 405.288 16.4468 407.184 16.4468 409.752C16.4468 412.32 18.3068 414.216 20.8868 414.216ZM20.8868 413.28C18.8948 413.28 17.5268 411.708 17.5268 409.752C17.5268 407.796 18.8948 406.224 20.8868 406.224C22.8788 406.224 24.2468 407.796 24.2468 409.752C24.2468 411.708 22.8788 413.28 20.8868 413.28ZM26.9466 414H31.8426V413.064H27.9546V405.504H26.9466V414ZM32.7906 414H36.0546C37.7226 414 40.2186 412.884 40.2186 409.752C40.2186 406.62 37.7226 405.504 36.0546 405.504H32.7906V414ZM33.7986 406.44H35.7186C37.6626 406.44 39.1386 407.424 39.1386 409.752C39.1386 412.08 37.6626 413.064 35.7186 413.064H33.7986V406.44Z" fill="#A1A1A1"/>
<path d="M15.598 414H21.07V413.064H16.738V413.04L19.354 410.58C20.206 409.776 21.01 409.02 21.01 407.664C21.01 406.152 19.822 405.36 18.418 405.36C17.05 405.36 15.982 406.092 15.754 407.484L16.846 407.58C17.002 406.764 17.602 406.224 18.454 406.224C19.306 406.224 20.002 406.776 20.002 407.664C20.002 408.492 19.606 408.948 18.802 409.728L15.598 412.848V414ZM25.986 405.504H25.11L22.83 407.352L23.43 408.084L24.954 406.8H24.978V414H25.986V405.504ZM28.934 414H34.406V413.064H30.074V413.04L32.69 410.58C33.542 409.776 34.346 409.02 34.346 407.664C34.346 406.152 33.158 405.36 31.754 405.36C30.386 405.36 29.318 406.092 29.09 407.484L30.182 407.58C30.338 406.764 30.938 406.224 31.79 406.224C32.642 406.224 33.338 406.776 33.338 407.664C33.338 408.492 32.942 408.948 32.138 409.728L28.934 412.848V414Z" fill="#194A21"/>
<g filter="url(#filter7_d_489_534)">
<circle cx="66" cy="221" r="25" fill="white"/>
<circle cx="66" cy="221" r="24.25" stroke="url(#paint14_linear_489_534)" stroke-width="1.5"/>
</g>
<circle cx="66" cy="221" r="24.25" stroke="url(#paint15_linear_489_534)" stroke-width="1.5"/>
<circle cx="66" cy="221" r="24.25" stroke="#194A21" stroke-width="1.5"/>
<circle cx="66" cy="221" r="24.25" stroke="#A1A1A1" stroke-width="1.5"/>
<path d="M56.1308 218.284C55.5068 217.552 54.7028 217.288 53.7548 217.288C52.2668 217.288 50.8628 218.104 50.8628 219.736C50.8628 221.152 51.7748 221.68 52.9748 222.076C54.4868 222.58 55.1948 222.76 55.1948 223.804C55.1948 224.776 54.2108 225.28 53.3468 225.28C52.6148 225.28 51.8948 224.956 51.5348 224.332L50.6708 225.04C51.2468 225.892 52.3028 226.216 53.2868 226.216C54.8228 226.216 56.2748 225.424 56.2748 223.732C56.2748 222.064 55.0508 221.632 53.7308 221.212C52.3748 220.78 51.9428 220.432 51.9428 219.652C51.9428 218.644 52.8668 218.224 53.7548 218.224C54.3668 218.224 54.9668 218.464 55.3028 219.004L56.1308 218.284ZM61.8868 226.216C64.4668 226.216 66.3268 224.32 66.3268 221.752C66.3268 219.184 64.4668 217.288 61.8868 217.288C59.3068 217.288 57.4468 219.184 57.4468 221.752C57.4468 224.32 59.3068 226.216 61.8868 226.216ZM61.8868 225.28C59.8948 225.28 58.5268 223.708 58.5268 221.752C58.5268 219.796 59.8948 218.224 61.8868 218.224C63.8788 218.224 65.2468 219.796 65.2468 221.752C65.2468 223.708 63.8788 225.28 61.8868 225.28ZM67.9466 226H72.8426V225.064H68.9546V217.504H67.9466V226ZM73.7906 226H77.0546C78.7226 226 81.2186 224.884 81.2186 221.752C81.2186 218.62 78.7226 217.504 77.0546 217.504H73.7906V226ZM74.7986 218.44H76.7186C78.6626 218.44 80.1386 219.424 80.1386 221.752C80.1386 224.08 78.6626 225.064 76.7186 225.064H74.7986V218.44Z" fill="#A1A1A1"/>
<path d="M56.598 226H62.07V225.064H57.738V225.04L60.354 222.58C61.206 221.776 62.01 221.02 62.01 219.664C62.01 218.152 60.822 217.36 59.418 217.36C58.05 217.36 56.982 218.092 56.754 219.484L57.846 219.58C58.002 218.764 58.602 218.224 59.454 218.224C60.306 218.224 61.002 218.776 61.002 219.664C61.002 220.492 60.606 220.948 59.802 221.728L56.598 224.848V226ZM66.986 217.504H66.11L63.83 219.352L64.43 220.084L65.954 218.8H65.978V226H66.986V217.504ZM73.654 217.504H72.778L70.498 219.352L71.098 220.084L72.622 218.8H72.646V226H73.654V217.504Z" fill="#194A21"/>
<g filter="url(#filter8_d_489_534)">
<circle cx="66" cy="132" r="25" fill="white"/>
<circle cx="66" cy="132" r="24.25" stroke="url(#paint16_linear_489_534)" stroke-width="1.5"/>
</g>
<circle cx="66" cy="132" r="24.25" stroke="url(#paint17_linear_489_534)" stroke-width="1.5"/>
<circle cx="66" cy="132" r="24.25" stroke="#194A21" stroke-width="1.5"/>
<circle cx="66" cy="132" r="24.25" stroke="#A1A1A1" stroke-width="1.5"/>
<path d="M56.1308 129.284C55.5068 128.552 54.7028 128.288 53.7548 128.288C52.2668 128.288 50.8628 129.104 50.8628 130.736C50.8628 132.152 51.7748 132.68 52.9748 133.076C54.4868 133.58 55.1948 133.76 55.1948 134.804C55.1948 135.776 54.2108 136.28 53.3468 136.28C52.6148 136.28 51.8948 135.956 51.5348 135.332L50.6708 136.04C51.2468 136.892 52.3028 137.216 53.2868 137.216C54.8228 137.216 56.2748 136.424 56.2748 134.732C56.2748 133.064 55.0508 132.632 53.7308 132.212C52.3748 131.78 51.9428 131.432 51.9428 130.652C51.9428 129.644 52.8668 129.224 53.7548 129.224C54.3668 129.224 54.9668 129.464 55.3028 130.004L56.1308 129.284ZM61.8868 137.216C64.4668 137.216 66.3268 135.32 66.3268 132.752C66.3268 130.184 64.4668 128.288 61.8868 128.288C59.3068 128.288 57.4468 130.184 57.4468 132.752C57.4468 135.32 59.3068 137.216 61.8868 137.216ZM61.8868 136.28C59.8948 136.28 58.5268 134.708 58.5268 132.752C58.5268 130.796 59.8948 129.224 61.8868 129.224C63.8788 129.224 65.2468 130.796 65.2468 132.752C65.2468 134.708 63.8788 136.28 61.8868 136.28ZM67.9466 137H72.8426V136.064H68.9546V128.504H67.9466V137ZM73.7906 137H77.0546C78.7226 137 81.2186 135.884 81.2186 132.752C81.2186 129.62 78.7226 128.504 77.0546 128.504H73.7906V137ZM74.7986 129.44H76.7186C78.6626 129.44 80.1386 130.424 80.1386 132.752C80.1386 135.08 78.6626 136.064 76.7186 136.064H74.7986V129.44Z" fill="#A1A1A1"/>
<path d="M56.598 137H62.07V136.064H57.738V136.04L60.354 133.58C61.206 132.776 62.01 132.02 62.01 130.664C62.01 129.152 60.822 128.36 59.418 128.36C58.05 128.36 56.982 129.092 56.754 130.484L57.846 130.58C58.002 129.764 58.602 129.224 59.454 129.224C60.306 129.224 61.002 129.776 61.002 130.664C61.002 131.492 60.606 131.948 59.802 132.728L56.598 135.848V137ZM66.986 128.504H66.11L63.83 130.352L64.43 131.084L65.954 129.8H65.978V137H66.986V128.504ZM69.79 132.752C69.79 134.684 70.33 137.144 72.67 137.144C75.01 137.144 75.55 134.684 75.55 132.752C75.55 130.82 75.01 128.36 72.67 128.36C70.33 128.36 69.79 130.82 69.79 132.752ZM70.798 132.752C70.798 131.504 70.99 129.224 72.67 129.224C74.35 129.224 74.542 131.504 74.542 132.752C74.542 134 74.35 136.28 72.67 136.28C70.99 136.28 70.798 134 70.798 132.752Z" fill="#194A21"/>
<g filter="url(#filter9_d_489_534)">
<circle cx="266" cy="25" r="25" fill="white"/>
<circle cx="266" cy="25" r="24.25" stroke="url(#paint18_linear_489_534)" stroke-width="1.5"/>
</g>
<circle cx="266" cy="25" r="24.25" stroke="url(#paint19_linear_489_534)" stroke-width="1.5"/>
<circle cx="266" cy="25" r="24.25" stroke="#194A21" stroke-width="1.5"/>
<circle cx="266" cy="25" r="24.25" stroke="#A1A1A1" stroke-width="1.5"/>
<path d="M256.131 22.284C255.507 21.552 254.703 21.288 253.755 21.288C252.267 21.288 250.863 22.104 250.863 23.736C250.863 25.152 251.775 25.68 252.975 26.076C254.487 26.58 255.195 26.76 255.195 27.804C255.195 28.776 254.211 29.28 253.347 29.28C252.615 29.28 251.895 28.956 251.535 28.332L250.671 29.04C251.247 29.892 252.303 30.216 253.287 30.216C254.823 30.216 256.275 29.424 256.275 27.732C256.275 26.064 255.051 25.632 253.731 25.212C252.375 24.78 251.943 24.432 251.943 23.652C251.943 22.644 252.867 22.224 253.755 22.224C254.367 22.224 254.967 22.464 255.303 23.004L256.131 22.284ZM261.887 30.216C264.467 30.216 266.327 28.32 266.327 25.752C266.327 23.184 264.467 21.288 261.887 21.288C259.307 21.288 257.447 23.184 257.447 25.752C257.447 28.32 259.307 30.216 261.887 30.216ZM261.887 29.28C259.895 29.28 258.527 27.708 258.527 25.752C258.527 23.796 259.895 22.224 261.887 22.224C263.879 22.224 265.247 23.796 265.247 25.752C265.247 27.708 263.879 29.28 261.887 29.28ZM267.947 30H272.843V29.064H268.955V21.504H267.947V30ZM273.791 30H277.055C278.723 30 281.219 28.884 281.219 25.752C281.219 22.62 278.723 21.504 277.055 21.504H273.791V30ZM274.799 22.44H276.719C278.663 22.44 280.139 23.424 280.139 25.752C280.139 28.08 278.663 29.064 276.719 29.064H274.799V22.44Z" fill="#A1A1A1"/>
<path d="M256.598 30H262.07V29.064H257.738V29.04L260.354 26.58C261.206 25.776 262.01 25.02 262.01 23.664C262.01 22.152 260.822 21.36 259.418 21.36C258.05 21.36 256.982 22.092 256.754 23.484L257.846 23.58C258.002 22.764 258.602 22.224 259.454 22.224C260.306 22.224 261.002 22.776 261.002 23.664C261.002 24.492 260.606 24.948 259.802 25.728L256.598 28.848V30ZM263.122 25.752C263.122 27.684 263.662 30.144 266.002 30.144C268.342 30.144 268.882 27.684 268.882 25.752C268.882 23.82 268.342 21.36 266.002 21.36C263.662 21.36 263.122 23.82 263.122 25.752ZM264.13 25.752C264.13 24.504 264.322 22.224 266.002 22.224C267.682 22.224 267.874 24.504 267.874 25.752C267.874 27 267.682 29.28 266.002 29.28C264.322 29.28 264.13 27 264.13 25.752ZM275.094 21.504H269.91V22.44H274.014L270.558 30H271.698L275.094 22.44V21.504Z" fill="#194A21"/>
<g filter="url(#filter10_d_489_534)">
<circle cx="166" cy="25" r="25" fill="white"/>
<circle cx="166" cy="25" r="24.25" stroke="url(#paint20_linear_489_534)" stroke-width="1.5"/>
</g>
<circle cx="166" cy="25" r="24.25" stroke="url(#paint21_linear_489_534)" stroke-width="1.5"/>
<circle cx="166" cy="25" r="24.25" stroke="#194A21" stroke-width="1.5"/>
<circle cx="166" cy="25" r="24.25" stroke="#A1A1A1" stroke-width="1.5"/>
<path d="M156.131 22.284C155.507 21.552 154.703 21.288 153.755 21.288C152.267 21.288 150.863 22.104 150.863 23.736C150.863 25.152 151.775 25.68 152.975 26.076C154.487 26.58 155.195 26.76 155.195 27.804C155.195 28.776 154.211 29.28 153.347 29.28C152.615 29.28 151.895 28.956 151.535 28.332L150.671 29.04C151.247 29.892 152.303 30.216 153.287 30.216C154.823 30.216 156.275 29.424 156.275 27.732C156.275 26.064 155.051 25.632 153.731 25.212C152.375 24.78 151.943 24.432 151.943 23.652C151.943 22.644 152.867 22.224 153.755 22.224C154.367 22.224 154.967 22.464 155.303 23.004L156.131 22.284ZM161.887 30.216C164.467 30.216 166.327 28.32 166.327 25.752C166.327 23.184 164.467 21.288 161.887 21.288C159.307 21.288 157.447 23.184 157.447 25.752C157.447 28.32 159.307 30.216 161.887 30.216ZM161.887 29.28C159.895 29.28 158.527 27.708 158.527 25.752C158.527 23.796 159.895 22.224 161.887 22.224C163.879 22.224 165.247 23.796 165.247 25.752C165.247 27.708 163.879 29.28 161.887 29.28ZM167.947 30H172.843V29.064H168.955V21.504H167.947V30ZM173.791 30H177.055C178.723 30 181.219 28.884 181.219 25.752C181.219 22.62 178.723 21.504 177.055 21.504H173.791V30ZM174.799 22.44H176.719C178.663 22.44 180.139 23.424 180.139 25.752C180.139 28.08 178.663 29.064 176.719 29.064H174.799V22.44Z" fill="#A1A1A1"/>
<path d="M156.598 30H162.07V29.064H157.738V29.04L160.354 26.58C161.206 25.776 162.01 25.02 162.01 23.664C162.01 22.152 160.822 21.36 159.418 21.36C158.05 21.36 156.982 22.092 156.754 23.484L157.846 23.58C158.002 22.764 158.602 22.224 159.454 22.224C160.306 22.224 161.002 22.776 161.002 23.664C161.002 24.492 160.606 24.948 159.802 25.728L156.598 28.848V30ZM163.122 25.752C163.122 27.684 163.662 30.144 166.002 30.144C168.342 30.144 168.882 27.684 168.882 25.752C168.882 23.82 168.342 21.36 166.002 21.36C163.662 21.36 163.122 23.82 163.122 25.752ZM164.13 25.752C164.13 24.504 164.322 22.224 166.002 22.224C167.682 22.224 167.874 24.504 167.874 25.752C167.874 27 167.682 29.28 166.002 29.28C164.322 29.28 164.13 27 164.13 25.752ZM170.246 23.58C170.246 24.384 170.774 25.224 171.638 25.452V25.476C170.618 25.692 169.958 26.592 169.958 27.66C169.958 29.208 171.158 30.144 172.67 30.144C174.182 30.144 175.382 29.208 175.382 27.66C175.382 26.592 174.722 25.692 173.702 25.476V25.452C174.566 25.224 175.094 24.384 175.094 23.58C175.094 22.248 174.038 21.36 172.67 21.36C171.302 21.36 170.246 22.248 170.246 23.58ZM171.254 23.628C171.254 22.824 171.83 22.224 172.67 22.224C173.51 22.224 174.086 22.824 174.086 23.628C174.086 24.432 173.51 25.032 172.67 25.032C171.83 25.032 171.254 24.432 171.254 23.628ZM170.966 27.588C170.966 26.592 171.722 25.896 172.67 25.896C173.618 25.896 174.374 26.592 174.374 27.588C174.374 28.584 173.618 29.28 172.67 29.28C171.722 29.28 170.966 28.584 170.966 27.588Z" fill="#194A21"/>
<g filter="url(#filter11_d_489_534)">
<circle cx="66" cy="25" r="25" fill="white"/>
<circle cx="66" cy="25" r="24.25" stroke="url(#paint22_linear_489_534)" stroke-width="1.5"/>
</g>
<circle cx="66" cy="25" r="24.25" stroke="url(#paint23_linear_489_534)" stroke-width="1.5"/>
<circle cx="66" cy="25" r="24.25" stroke="#194A21" stroke-width="1.5"/>
<circle cx="66" cy="25" r="24.25" stroke="#A1A1A1" stroke-width="1.5"/>
<path d="M56.1308 22.284C55.5068 21.552 54.7028 21.288 53.7548 21.288C52.2668 21.288 50.8628 22.104 50.8628 23.736C50.8628 25.152 51.7748 25.68 52.9748 26.076C54.4868 26.58 55.1948 26.76 55.1948 27.804C55.1948 28.776 54.2108 29.28 53.3468 29.28C52.6148 29.28 51.8948 28.956 51.5348 28.332L50.6708 29.04C51.2468 29.892 52.3028 30.216 53.2868 30.216C54.8228 30.216 56.2748 29.424 56.2748 27.732C56.2748 26.064 55.0508 25.632 53.7308 25.212C52.3748 24.78 51.9428 24.432 51.9428 23.652C51.9428 22.644 52.8668 22.224 53.7548 22.224C54.3668 22.224 54.9668 22.464 55.3028 23.004L56.1308 22.284ZM61.8868 30.216C64.4668 30.216 66.3268 28.32 66.3268 25.752C66.3268 23.184 64.4668 21.288 61.8868 21.288C59.3068 21.288 57.4468 23.184 57.4468 25.752C57.4468 28.32 59.3068 30.216 61.8868 30.216ZM61.8868 29.28C59.8948 29.28 58.5268 27.708 58.5268 25.752C58.5268 23.796 59.8948 22.224 61.8868 22.224C63.8788 22.224 65.2468 23.796 65.2468 25.752C65.2468 27.708 63.8788 29.28 61.8868 29.28ZM67.9466 30H72.8426V29.064H68.9546V21.504H67.9466V30ZM73.7906 30H77.0546C78.7226 30 81.2186 28.884 81.2186 25.752C81.2186 22.62 78.7226 21.504 77.0546 21.504H73.7906V30ZM74.7986 22.44H76.7186C78.6626 22.44 80.1386 23.424 80.1386 25.752C80.1386 28.08 78.6626 29.064 76.7186 29.064H74.7986V22.44Z" fill="#A1A1A1"/>
<path d="M56.598 30H62.07V29.064H57.738V29.04L60.354 26.58C61.206 25.776 62.01 25.02 62.01 23.664C62.01 22.152 60.822 21.36 59.418 21.36C58.05 21.36 56.982 22.092 56.754 23.484L57.846 23.58C58.002 22.764 58.602 22.224 59.454 22.224C60.306 22.224 61.002 22.776 61.002 23.664C61.002 24.492 60.606 24.948 59.802 25.728L56.598 28.848V30ZM63.122 25.752C63.122 27.684 63.662 30.144 66.002 30.144C68.342 30.144 68.882 27.684 68.882 25.752C68.882 23.82 68.342 21.36 66.002 21.36C63.662 21.36 63.122 23.82 63.122 25.752ZM64.13 25.752C64.13 24.504 64.322 22.224 66.002 22.224C67.682 22.224 67.874 24.504 67.874 25.752C67.874 27 67.682 29.28 66.002 29.28C64.322 29.28 64.13 27 64.13 25.752ZM71.278 30H72.454L74.71 26.412C75.166 25.68 75.514 25.008 75.514 24.024C75.514 22.368 74.278 21.36 72.67 21.36C71.062 21.36 69.826 22.368 69.826 24.024C69.826 25.608 70.918 26.688 72.394 26.688C72.742 26.688 73.222 26.616 73.534 26.436L73.558 26.46L71.278 30ZM72.67 25.824C71.65 25.824 70.834 25.128 70.834 24.024C70.834 22.92 71.65 22.224 72.67 22.224C73.69 22.224 74.506 22.92 74.506 24.024C74.506 25.128 73.69 25.824 72.67 25.824Z" fill="#194A21"/>
</g>
<defs>
<filter id="filter0_d_489_534" x="247" y="394" width="70" height="70" filterUnits="userSpaceOnUse" color-interpolation-filters="sRGB">
<feFlood flood-opacity="0" result="BackgroundImageFix"/>
<feColorMatrix in="SourceAlpha" type="matrix" values="0 0 0 0 0 0 0 0 0 0 0 0 0 0 0 0 0 0 127 0" result="hardAlpha"/>
<feOffset/>
<feGaussianBlur stdDeviation="5"/>
<feComposite in2="hardAlpha" operator="out"/>
<feColorMatrix type="matrix" values="0 0 0 0 0 0 0 0 0 0 0 0 0 0 0 0 0 0 0.15 0"/>
<feBlend mode="normal" in2="BackgroundImageFix" result="effect1_dropShadow_489_534"/>
<feBlend mode="normal" in="SourceGraphic" in2="effect1_dropShadow_489_534" result="shape"/>
</filter>
<filter id="filter1_d_489_534" x="164" y="394" width="70" height="70" filterUnits="userSpaceOnUse" color-interpolation-filters="sRGB">
<feFlood flood-opacity="0" result="BackgroundImageFix"/>
<feColorMatrix in="SourceAlpha" type="matrix" values="0 0 0 0 0 0 0 0 0 0 0 0 0 0 0 0 0 0 127 0" result="hardAlpha"/>
<feOffset/>
<feGaussianBlur stdDeviation="5"/>
<feComposite in2="hardAlpha" operator="out"/>
<feColorMatrix type="matrix" values="0 0 0 0 0 0 0 0 0 0 0 0 0 0 0 0 0 0 0.15 0"/>
<feBlend mode="normal" in2="BackgroundImageFix" result="effect1_dropShadow_489_534"/>
<feBlend mode="normal" in="SourceGraphic" in2="effect1_dropShadow_489_534" result="shape"/>
</filter>
<filter id="filter2_d_489_534" x="77" y="394" width="70" height="70" filterUnits="userSpaceOnUse" color-interpolation-filters="sRGB">
<feFlood flood-opacity="0" result="BackgroundImageFix"/>
<feColorMatrix in="SourceAlpha" type="matrix" values="0 0 0 0 0 0 0 0 0 0 0 0 0 0 0 0 0 0 127 0" result="hardAlpha"/>
<feOffset/>
<feGaussianBlur stdDeviation="5"/>
<feComposite in2="hardAlpha" operator="out"/>
<feColorMatrix type="matrix" values="0 0 0 0 0 0 0 0 0 0 0 0 0 0 0 0 0 0 0.15 0"/>
<feBlend mode="normal" in2="BackgroundImageFix" result="effect1_dropShadow_489_534"/>
<feBlend mode="normal" in="SourceGraphic" in2="effect1_dropShadow_489_534" result="shape"/>
</filter>
<filter id="filter3_d_489_534" x="231" y="274" width="70" height="70" filterUnits="userSpaceOnUse" color-interpolation-filters="sRGB">
<feFlood flood-opacity="0" result="BackgroundImageFix"/>
<feColorMatrix in="SourceAlpha" type="matrix" values="0 0 0 0 0 0 0 0 0 0 0 0 0 0 0 0 0 0 127 0" result="hardAlpha"/>
<feOffset/>
<feGaussianBlur stdDeviation="5"/>
<feComposite in2="hardAlpha" operator="out"/>
<feColorMatrix type="matrix" values="0 0 0 0 0 0 0 0 0 0 0 0 0 0 0 0 0 0 0.15 0"/>
<feBlend mode="normal" in2="BackgroundImageFix" result="effect1_dropShadow_489_534"/>
<feBlend mode="normal" in="SourceGraphic" in2="effect1_dropShadow_489_534" result="shape"/>
</filter>
<filter id="filter4_d_489_534" x="231" y="187" width="70" height="70" filterUnits="userSpaceOnUse" color-interpolation-filters="sRGB">
<feFlood flood-opacity="0" result="BackgroundImageFix"/>
<feColorMatrix in="SourceAlpha" type="matrix" values="0 0 0 0 0 0 0 0 0 0 0 0 0 0 0 0 0 0 127 0" result="hardAlpha"/>
<feOffset/>
<feGaussianBlur stdDeviation="5"/>
<feComposite in2="hardAlpha" operator="out"/>
<feColorMatrix type="matrix" values="0 0 0 0 0 0 0 0 0 0 0 0 0 0 0 0 0 0 0.15 0"/>
<feBlend mode="normal" in2="BackgroundImageFix" result="effect1_dropShadow_489_534"/>
<feBlend mode="normal" in="SourceGraphic" in2="effect1_dropShadow_489_534" result="shape"/>
</filter>
<filter id="filter5_d_489_534" x="231" y="97" width="70" height="70" filterUnits="userSpaceOnUse" color-interpolation-filters="sRGB">
<feFlood flood-opacity="0" result="BackgroundImageFix"/>
<feColorMatrix in="SourceAlpha" type="matrix" values="0 0 0 0 0 0 0 0 0 0 0 0 0 0 0 0 0 0 127 0" result="hardAlpha"/>
<feOffset/>
<feGaussianBlur stdDeviation="5"/>
<feComposite in2="hardAlpha" operator="out"/>
<feColorMatrix type="matrix" values="0 0 0 0 0 0 0 0 0 0 0 0 0 0 0 0 0 0 0.15 0"/>
<feBlend mode="normal" in2="BackgroundImageFix" result="effect1_dropShadow_489_534"/>
<feBlend mode="normal" in="SourceGraphic" in2="effect1_dropShadow_489_534" result="shape"/>
</filter>
<filter id="filter6_d_489_534" x="-10" y="374" width="70" height="70" filterUnits="userSpaceOnUse" color-interpolation-filters="sRGB">
<feFlood flood-opacity="0" result="BackgroundImageFix"/>
<feColorMatrix in="SourceAlpha" type="matrix" values="0 0 0 0 0 0 0 0 0 0 0 0 0 0 0 0 0 0 127 0" result="hardAlpha"/>
<feOffset/>
<feGaussianBlur stdDeviation="5"/>
<feComposite in2="hardAlpha" operator="out"/>
<feColorMatrix type="matrix" values="0 0 0 0 0 0 0 0 0 0 0 0 0 0 0 0 0 0 0.15 0"/>
<feBlend mode="normal" in2="BackgroundImageFix" result="effect1_dropShadow_489_534"/>
<feBlend mode="normal" in="SourceGraphic" in2="effect1_dropShadow_489_534" result="shape"/>
</filter>
<filter id="filter7_d_489_534" x="31" y="186" width="70" height="70" filterUnits="userSpaceOnUse" color-interpolation-filters="sRGB">
<feFlood flood-opacity="0" result="BackgroundImageFix"/>
<feColorMatrix in="SourceAlpha" type="matrix" values="0 0 0 0 0 0 0 0 0 0 0 0 0 0 0 0 0 0 127 0" result="hardAlpha"/>
<feOffset/>
<feGaussianBlur stdDeviation="5"/>
<feComposite in2="hardAlpha" operator="out"/>
<feColorMatrix type="matrix" values="0 0 0 0 0 0 0 0 0 0 0 0 0 0 0 0 0 0 0.15 0"/>
<feBlend mode="normal" in2="BackgroundImageFix" result="effect1_dropShadow_489_534"/>
<feBlend mode="normal" in="SourceGraphic" in2="effect1_dropShadow_489_534" result="shape"/>
</filter>
<filter id="filter8_d_489_534" x="31" y="97" width="70" height="70" filterUnits="userSpaceOnUse" color-interpolation-filters="sRGB">
<feFlood flood-opacity="0" result="BackgroundImageFix"/>
<feColorMatrix in="SourceAlpha" type="matrix" values="0 0 0 0 0 0 0 0 0 0 0 0 0 0 0 0 0 0 127 0" result="hardAlpha"/>
<feOffset/>
<feGaussianBlur stdDeviation="5"/>
<feComposite in2="hardAlpha" operator="out"/>
<feColorMatrix type="matrix" values="0 0 0 0 0 0 0 0 0 0 0 0 0 0 0 0 0 0 0.15 0"/>
<feBlend mode="normal" in2="BackgroundImageFix" result="effect1_dropShadow_489_534"/>
<feBlend mode="normal" in="SourceGraphic" in2="effect1_dropShadow_489_534" result="shape"/>
</filter>
<filter id="filter9_d_489_534" x="231" y="-10" width="70" height="70" filterUnits="userSpaceOnUse" color-interpolation-filters="sRGB">
<feFlood flood-opacity="0" result="BackgroundImageFix"/>
<feColorMatrix in="SourceAlpha" type="matrix" values="0 0 0 0 0 0 0 0 0 0 0 0 0 0 0 0 0 0 127 0" result="hardAlpha"/>
<feOffset/>
<feGaussianBlur stdDeviation="5"/>
<feComposite in2="hardAlpha" operator="out"/>
<feColorMatrix type="matrix" values="0 0 0 0 0 0 0 0 0 0 0 0 0 0 0 0 0 0 0.15 0"/>
<feBlend mode="normal" in2="BackgroundImageFix" result="effect1_dropShadow_489_534"/>
<feBlend mode="normal" in="SourceGraphic" in2="effect1_dropShadow_489_534" result="shape"/>
</filter>
<filter id="filter10_d_489_534" x="131" y="-10" width="70" height="70" filterUnits="userSpaceOnUse" color-interpolation-filters="sRGB">
<feFlood flood-opacity="0" result="BackgroundImageFix"/>
<feColorMatrix in="SourceAlpha" type="matrix" values="0 0 0 0 0 0 0 0 0 0 0 0 0 0 0 0 0 0 127 0" result="hardAlpha"/>
<feOffset/>
<feGaussianBlur stdDeviation="5"/>
<feComposite in2="hardAlpha" operator="out"/>
<feColorMatrix type="matrix" values="0 0 0 0 0 0 0 0 0 0 0 0 0 0 0 0 0 0 0.15 0"/>
<feBlend mode="normal" in2="BackgroundImageFix" result="effect1_dropShadow_489_534"/>
<feBlend mode="normal" in="SourceGraphic" in2="effect1_dropShadow_489_534" result="shape"/>
</filter>
<filter id="filter11_d_489_534" x="31" y="-10" width="70" height="70" filterUnits="userSpaceOnUse" color-interpolation-filters="sRGB">
<feFlood flood-opacity="0" result="BackgroundImageFix"/>
<feColorMatrix in="SourceAlpha" type="matrix" values="0 0 0 0 0 0 0 0 0 0 0 0 0 0 0 0 0 0 127 0" result="hardAlpha"/>
<feOffset/>
<feGaussianBlur stdDeviation="5"/>
<feComposite in2="hardAlpha" operator="out"/>
<feColorMatrix type="matrix" values="0 0 0 0 0 0 0 0 0 0 0 0 0 0 0 0 0 0 0.15 0"/>
<feBlend mode="normal" in2="BackgroundImageFix" result="effect1_dropShadow_489_534"/>
<feBlend mode="normal" in="SourceGraphic" in2="effect1_dropShadow_489_534" result="shape"/>
</filter>
<linearGradient id="paint0_linear_489_534" x1="307" y1="435.44" x2="268.956" y2="436.341" gradientUnits="userSpaceOnUse">
<stop offset="0.0161041" stop-color="#FFB800"/>
<stop offset="0.357735" stop-color="#F9F2B7"/>
<stop offset="0.697917" stop-color="#FFDB5B"/>
<stop offset="1" stop-color="#FFB800"/>
</linearGradient>
<linearGradient id="paint1_linear_489_534" x1="307" y1="435.44" x2="268.956" y2="436.341" gradientUnits="userSpaceOnUse">
<stop offset="0.0161041" stop-color="#FFB800"/>
<stop offset="0.357735" stop-color="#F9F2B7"/>
<stop offset="0.697917" stop-color="#FFDB5B"/>
<stop offset="1" stop-color="#FFB800"/>
</linearGradient>
<linearGradient id="paint2_linear_489_534" x1="224" y1="435.44" x2="185.956" y2="436.341" gradientUnits="userSpaceOnUse">
<stop offset="0.0161041" stop-color="#FFB800"/>
<stop offset="0.357735" stop-color="#F9F2B7"/>
<stop offset="0.697917" stop-color="#FFDB5B"/>
<stop offset="1" stop-color="#FFB800"/>
</linearGradient>
<linearGradient id="paint3_linear_489_534" x1="224" y1="435.44" x2="185.956" y2="436.341" gradientUnits="userSpaceOnUse">
<stop offset="0.0161041" stop-color="#FFB800"/>
<stop offset="0.357735" stop-color="#F9F2B7"/>
<stop offset="0.697917" stop-color="#FFDB5B"/>
<stop offset="1" stop-color="#FFB800"/>
</linearGradient>
<linearGradient id="paint4_linear_489_534" x1="137" y1="435.44" x2="98.9559" y2="436.341" gradientUnits="userSpaceOnUse">
<stop offset="0.0161041" stop-color="#FFB800"/>
<stop offset="0.357735" stop-color="#F9F2B7"/>
<stop offset="0.697917" stop-color="#FFDB5B"/>
<stop offset="1" stop-color="#FFB800"/>
</linearGradient>
<linearGradient id="paint5_linear_489_534" x1="137" y1="435.44" x2="98.9559" y2="436.341" gradientUnits="userSpaceOnUse">
<stop offset="0.0161041" stop-color="#FFB800"/>
<stop offset="0.357735" stop-color="#F9F2B7"/>
<stop offset="0.697917" stop-color="#FFDB5B"/>
<stop offset="1" stop-color="#FFB800"/>
</linearGradient>
<linearGradient id="paint6_linear_489_534" x1="291" y1="315.44" x2="252.956" y2="316.341" gradientUnits="userSpaceOnUse">
<stop offset="0.0161041" stop-color="#FFB800"/>
<stop offset="0.357735" stop-color="#F9F2B7"/>
<stop offset="0.697917" stop-color="#FFDB5B"/>
<stop offset="1" stop-color="#FFB800"/>
</linearGradient>
<linearGradient id="paint7_linear_489_534" x1="291" y1="315.44" x2="252.956" y2="316.341" gradientUnits="userSpaceOnUse">
<stop offset="0.0161041" stop-color="#FFB800"/>
<stop offset="0.357735" stop-color="#F9F2B7"/>
<stop offset="0.697917" stop-color="#FFDB5B"/>
<stop offset="1" stop-color="#FFB800"/>
</linearGradient>
<linearGradient id="paint8_linear_489_534" x1="291" y1="228.44" x2="252.956" y2="229.341" gradientUnits="userSpaceOnUse">
<stop offset="0.0161041" stop-color="#FFB800"/>
<stop offset="0.357735" stop-color="#F9F2B7"/>
<stop offset="0.697917" stop-color="#FFDB5B"/>
<stop offset="1" stop-color="#FFB800"/>
</linearGradient>
<linearGradient id="paint9_linear_489_534" x1="291" y1="228.44" x2="252.956" y2="229.341" gradientUnits="userSpaceOnUse">
<stop offset="0.0161041" stop-color="#FFB800"/>
<stop offset="0.357735" stop-color="#F9F2B7"/>
<stop offset="0.697917" stop-color="#FFDB5B"/>
<stop offset="1" stop-color="#FFB800"/>
</linearGradient>
<linearGradient id="paint10_linear_489_534" x1="291" y1="138.44" x2="252.956" y2="139.341" gradientUnits="userSpaceOnUse">
<stop offset="0.0161041" stop-color="#FFB800"/>
<stop offset="0.357735" stop-color="#F9F2B7"/>
<stop offset="0.697917" stop-color="#FFDB5B"/>
<stop offset="1" stop-color="#FFB800"/>
</linearGradient>
<linearGradient id="paint11_linear_489_534" x1="291" y1="138.44" x2="252.956" y2="139.341" gradientUnits="userSpaceOnUse">
<stop offset="0.0161041" stop-color="#FFB800"/>
<stop offset="0.357735" stop-color="#F9F2B7"/>
<stop offset="0.697917" stop-color="#FFDB5B"/>
<stop offset="1" stop-color="#FFB800"/>
</linearGradient>
<linearGradient id="paint12_linear_489_534" x1="50" y1="415.44" x2="11.9559" y2="416.341" gradientUnits="userSpaceOnUse">
<stop offset="0.0161041" stop-color="#FFB800"/>
<stop offset="0.357735" stop-color="#F9F2B7"/>
<stop offset="0.697917" stop-color="#FFDB5B"/>
<stop offset="1" stop-color="#FFB800"/>
</linearGradient>
<linearGradient id="paint13_linear_489_534" x1="50" y1="415.44" x2="11.9559" y2="416.341" gradientUnits="userSpaceOnUse">
<stop offset="0.0161041" stop-color="#FFB800"/>
<stop offset="0.357735" stop-color="#F9F2B7"/>
<stop offset="0.697917" stop-color="#FFDB5B"/>
<stop offset="1" stop-color="#FFB800"/>
</linearGradient>
<linearGradient id="paint14_linear_489_534" x1="91" y1="227.44" x2="52.9559" y2="228.341" gradientUnits="userSpaceOnUse">
<stop offset="0.0161041" stop-color="#FFB800"/>
<stop offset="0.357735" stop-color="#F9F2B7"/>
<stop offset="0.697917" stop-color="#FFDB5B"/>
<stop offset="1" stop-color="#FFB800"/>
</linearGradient>
<linearGradient id="paint15_linear_489_534" x1="91" y1="227.44" x2="52.9559" y2="228.341" gradientUnits="userSpaceOnUse">
<stop offset="0.0161041" stop-color="#FFB800"/>
<stop offset="0.357735" stop-color="#F9F2B7"/>
<stop offset="0.697917" stop-color="#FFDB5B"/>
<stop offset="1" stop-color="#FFB800"/>
</linearGradient>
<linearGradient id="paint16_linear_489_534" x1="91" y1="138.44" x2="52.9559" y2="139.341" gradientUnits="userSpaceOnUse">
<stop offset="0.0161041" stop-color="#FFB800"/>
<stop offset="0.357735" stop-color="#F9F2B7"/>
<stop offset="0.697917" stop-color="#FFDB5B"/>
<stop offset="1" stop-color="#FFB800"/>
</linearGradient>
<linearGradient id="paint17_linear_489_534" x1="91" y1="138.44" x2="52.9559" y2="139.341" gradientUnits="userSpaceOnUse">
<stop offset="0.0161041" stop-color="#FFB800"/>
<stop offset="0.357735" stop-color="#F9F2B7"/>
<stop offset="0.697917" stop-color="#FFDB5B"/>
<stop offset="1" stop-color="#FFB800"/>
</linearGradient>
<linearGradient id="paint18_linear_489_534" x1="291" y1="31.4401" x2="252.956" y2="32.3405" gradientUnits="userSpaceOnUse">
<stop offset="0.0161041" stop-color="#FFB800"/>
<stop offset="0.357735" stop-color="#F9F2B7"/>
<stop offset="0.697917" stop-color="#FFDB5B"/>
<stop offset="1" stop-color="#FFB800"/>
</linearGradient>
<linearGradient id="paint19_linear_489_534" x1="291" y1="31.4401" x2="252.956" y2="32.3405" gradientUnits="userSpaceOnUse">
<stop offset="0.0161041" stop-color="#FFB800"/>
<stop offset="0.357735" stop-color="#F9F2B7"/>
<stop offset="0.697917" stop-color="#FFDB5B"/>
<stop offset="1" stop-color="#FFB800"/>
</linearGradient>
<linearGradient id="paint20_linear_489_534" x1="191" y1="31.4401" x2="152.956" y2="32.3405" gradientUnits="userSpaceOnUse">
<stop offset="0.0161041" stop-color="#FFB800"/>
<stop offset="0.357735" stop-color="#F9F2B7"/>
<stop offset="0.697917" stop-color="#FFDB5B"/>
<stop offset="1" stop-color="#FFB800"/>
</linearGradient>
<linearGradient id="paint21_linear_489_534" x1="191" y1="31.4401" x2="152.956" y2="32.3405" gradientUnits="userSpaceOnUse">
<stop offset="0.0161041" stop-color="#FFB800"/>
<stop offset="0.357735" stop-color="#F9F2B7"/>
<stop offset="0.697917" stop-color="#FFDB5B"/>
<stop offset="1" stop-color="#FFB800"/>
</linearGradient>
<linearGradient id="paint22_linear_489_534" x1="91" y1="31.4401" x2="52.9559" y2="32.3405" gradientUnits="userSpaceOnUse">
<stop offset="0.0161041" stop-color="#FFB800"/>
<stop offset="0.357735" stop-color="#F9F2B7"/>
<stop offset="0.697917" stop-color="#FFDB5B"/>
<stop offset="1" stop-color="#FFB800"/>
</linearGradient>
<linearGradient id="paint23_linear_489_534" x1="91" y1="31.4401" x2="52.9559" y2="32.3405" gradientUnits="userSpaceOnUse">
<stop offset="0.0161041" stop-color="#FFB800"/>
<stop offset="0.357735" stop-color="#F9F2B7"/>
<stop offset="0.697917" stop-color="#FFDB5B"/>
<stop offset="1" stop-color="#FFB800"/>
</linearGradient>
<clipPath id="clip0_489_534">
<rect width="307" height="454" fill="white"/>
</clipPath>
</defs>
</svg>
