<svg width="266" height="415" viewBox="0 0 266 415" fill="none" xmlns="http://www.w3.org/2000/svg">
<g clip-path="url(#clip0_488_285)">
<g filter="url(#filter0_d_488_285)">
<circle cx="241" cy="390" r="25" fill="white"/>
<circle cx="241" cy="390" r="24.25" stroke="url(#paint0_linear_488_285)" stroke-width="1.5"/>
</g>
<circle cx="241" cy="390" r="24.25" stroke="url(#paint1_linear_488_285)" stroke-width="1.5"/>
<circle cx="241" cy="390" r="24.25" stroke="#194A21" stroke-width="1.5"/>
<circle cx="241" cy="390" r="24.25" stroke="#A1A1A1" stroke-width="1.5"/>
<path d="M231.131 387.284C230.507 386.552 229.703 386.288 228.755 386.288C227.267 386.288 225.863 387.104 225.863 388.736C225.863 390.152 226.775 390.68 227.975 391.076C229.487 391.58 230.195 391.76 230.195 392.804C230.195 393.776 229.211 394.28 228.347 394.28C227.615 394.28 226.895 393.956 226.535 393.332L225.671 394.04C226.247 394.892 227.303 395.216 228.287 395.216C229.823 395.216 231.275 394.424 231.275 392.732C231.275 391.064 230.051 390.632 228.731 390.212C227.375 389.78 226.943 389.432 226.943 388.652C226.943 387.644 227.867 387.224 228.755 387.224C229.367 387.224 229.967 387.464 230.303 388.004L231.131 387.284ZM236.887 395.216C239.467 395.216 241.327 393.32 241.327 390.752C241.327 388.184 239.467 386.288 236.887 386.288C234.307 386.288 232.447 388.184 232.447 390.752C232.447 393.32 234.307 395.216 236.887 395.216ZM236.887 394.28C234.895 394.28 233.527 392.708 233.527 390.752C233.527 388.796 234.895 387.224 236.887 387.224C238.879 387.224 240.247 388.796 240.247 390.752C240.247 392.708 238.879 394.28 236.887 394.28ZM242.947 395H247.843V394.064H243.955V386.504H242.947V395ZM248.791 395H252.055C253.723 395 256.219 393.884 256.219 390.752C256.219 387.62 253.723 386.504 252.055 386.504H248.791V395ZM249.799 387.44H251.719C253.663 387.44 255.139 388.424 255.139 390.752C255.139 393.08 253.663 394.064 251.719 394.064H249.799V387.44Z" fill="#A1A1A1"/>
<path d="M236.026 386.504H234.79L231.418 391.94V393.056H235.018V395H236.026V393.056H237.25V392.12H236.026V386.504ZM235.018 392.12H232.282L234.994 387.68H235.018V392.12ZM238.122 390.752C238.122 392.684 238.662 395.144 241.002 395.144C243.342 395.144 243.882 392.684 243.882 390.752C243.882 388.82 243.342 386.36 241.002 386.36C238.662 386.36 238.122 388.82 238.122 390.752ZM239.13 390.752C239.13 389.504 239.322 387.224 241.002 387.224C242.682 387.224 242.874 389.504 242.874 390.752C242.874 392 242.682 394.28 241.002 394.28C239.322 394.28 239.13 392 239.13 390.752ZM246.782 390.968H247.094C248.138 390.968 249.242 391.364 249.242 392.612C249.242 393.596 248.474 394.28 247.514 394.28C246.578 394.28 246.086 393.932 245.798 393.02L244.778 393.356C245.21 394.616 246.23 395.144 247.514 395.144C249.026 395.144 250.322 394.304 250.322 392.684C250.322 391.616 249.662 390.728 248.582 390.548V390.524C249.434 390.26 250.034 389.468 250.034 388.58C250.034 387.116 248.858 386.36 247.502 386.36C246.422 386.36 245.45 386.84 245.042 387.8L246.014 388.172C246.314 387.548 246.866 387.224 247.574 387.224C248.426 387.224 249.026 387.764 249.026 388.628C249.026 389.912 247.934 390.104 247.094 390.104H246.782V390.968Z" fill="#194A21"/>
<g filter="url(#filter1_d_488_285)">
<circle cx="133" cy="390" r="25" fill="white"/>
<circle cx="133" cy="390" r="24.25" stroke="url(#paint2_linear_488_285)" stroke-width="1.5"/>
</g>
<circle cx="133" cy="390" r="24.25" stroke="url(#paint3_linear_488_285)" stroke-width="1.5"/>
<circle cx="133" cy="390" r="24.25" stroke="#194A21" stroke-width="1.5"/>
<circle cx="133" cy="390" r="24.25" stroke="#A1A1A1" stroke-width="1.5"/>
<path d="M123.131 387.284C122.507 386.552 121.703 386.288 120.755 386.288C119.267 386.288 117.863 387.104 117.863 388.736C117.863 390.152 118.775 390.68 119.975 391.076C121.487 391.58 122.195 391.76 122.195 392.804C122.195 393.776 121.211 394.28 120.347 394.28C119.615 394.28 118.895 393.956 118.535 393.332L117.671 394.04C118.247 394.892 119.303 395.216 120.287 395.216C121.823 395.216 123.275 394.424 123.275 392.732C123.275 391.064 122.051 390.632 120.731 390.212C119.375 389.78 118.943 389.432 118.943 388.652C118.943 387.644 119.867 387.224 120.755 387.224C121.367 387.224 121.967 387.464 122.303 388.004L123.131 387.284ZM128.887 395.216C131.467 395.216 133.327 393.32 133.327 390.752C133.327 388.184 131.467 386.288 128.887 386.288C126.307 386.288 124.447 388.184 124.447 390.752C124.447 393.32 126.307 395.216 128.887 395.216ZM128.887 394.28C126.895 394.28 125.527 392.708 125.527 390.752C125.527 388.796 126.895 387.224 128.887 387.224C130.879 387.224 132.247 388.796 132.247 390.752C132.247 392.708 130.879 394.28 128.887 394.28ZM134.947 395H139.843V394.064H135.955V386.504H134.947V395ZM140.791 395H144.055C145.723 395 148.219 393.884 148.219 390.752C148.219 387.62 145.723 386.504 144.055 386.504H140.791V395ZM141.799 387.44H143.719C145.663 387.44 147.139 388.424 147.139 390.752C147.139 393.08 145.663 394.064 143.719 394.064H141.799V387.44Z" fill="#A1A1A1"/>
<path d="M128.026 386.504H126.79L123.418 391.94V393.056H127.018V395H128.026V393.056H129.25V392.12H128.026V386.504ZM127.018 392.12H124.282L126.994 387.68H127.018V392.12ZM130.122 390.752C130.122 392.684 130.662 395.144 133.002 395.144C135.342 395.144 135.882 392.684 135.882 390.752C135.882 388.82 135.342 386.36 133.002 386.36C130.662 386.36 130.122 388.82 130.122 390.752ZM131.13 390.752C131.13 389.504 131.322 387.224 133.002 387.224C134.682 387.224 134.874 389.504 134.874 390.752C134.874 392 134.682 394.28 133.002 394.28C131.322 394.28 131.13 392 131.13 390.752ZM136.934 395H142.406V394.064H138.074V394.04L140.69 391.58C141.542 390.776 142.346 390.02 142.346 388.664C142.346 387.152 141.158 386.36 139.754 386.36C138.386 386.36 137.318 387.092 137.09 388.484L138.182 388.58C138.338 387.764 138.938 387.224 139.79 387.224C140.642 387.224 141.338 387.776 141.338 388.664C141.338 389.492 140.942 389.948 140.138 390.728L136.934 393.848V395Z" fill="#194A21"/>
<g filter="url(#filter2_d_488_285)">
<circle cx="25" cy="390" r="25" fill="white"/>
<circle cx="25" cy="390" r="24.25" stroke="url(#paint4_linear_488_285)" stroke-width="1.5"/>
</g>
<circle cx="25" cy="390" r="24.25" stroke="url(#paint5_linear_488_285)" stroke-width="1.5"/>
<circle cx="25" cy="390" r="24.25" stroke="#194A21" stroke-width="1.5"/>
<circle cx="25" cy="390" r="24.25" stroke="#A1A1A1" stroke-width="1.5"/>
<path d="M15.1308 387.284C14.5068 386.552 13.7028 386.288 12.7548 386.288C11.2668 386.288 9.86284 387.104 9.86284 388.736C9.86284 390.152 10.7748 390.68 11.9748 391.076C13.4868 391.58 14.1948 391.76 14.1948 392.804C14.1948 393.776 13.2108 394.28 12.3468 394.28C11.6148 394.28 10.8948 393.956 10.5348 393.332L9.67084 394.04C10.2468 394.892 11.3028 395.216 12.2868 395.216C13.8228 395.216 15.2748 394.424 15.2748 392.732C15.2748 391.064 14.0508 390.632 12.7308 390.212C11.3748 389.78 10.9428 389.432 10.9428 388.652C10.9428 387.644 11.8668 387.224 12.7548 387.224C13.3668 387.224 13.9668 387.464 14.3028 388.004L15.1308 387.284ZM20.8868 395.216C23.4668 395.216 25.3268 393.32 25.3268 390.752C25.3268 388.184 23.4668 386.288 20.8868 386.288C18.3068 386.288 16.4468 388.184 16.4468 390.752C16.4468 393.32 18.3068 395.216 20.8868 395.216ZM20.8868 394.28C18.8948 394.28 17.5268 392.708 17.5268 390.752C17.5268 388.796 18.8948 387.224 20.8868 387.224C22.8788 387.224 24.2468 388.796 24.2468 390.752C24.2468 392.708 22.8788 394.28 20.8868 394.28ZM26.9466 395H31.8426V394.064H27.9546V386.504H26.9466V395ZM32.7906 395H36.0546C37.7226 395 40.2186 393.884 40.2186 390.752C40.2186 387.62 37.7226 386.504 36.0546 386.504H32.7906V395ZM33.7986 387.44H35.7186C37.6626 387.44 39.1386 388.424 39.1386 390.752C39.1386 393.08 37.6626 394.064 35.7186 394.064H33.7986V387.44Z" fill="#A1A1A1"/>
<path d="M20.026 386.504H18.79L15.418 391.94V393.056H19.018V395H20.026V393.056H21.25V392.12H20.026V386.504ZM19.018 392.12H16.282L18.994 387.68H19.018V392.12ZM22.122 390.752C22.122 392.684 22.662 395.144 25.002 395.144C27.342 395.144 27.882 392.684 27.882 390.752C27.882 388.82 27.342 386.36 25.002 386.36C22.662 386.36 22.122 388.82 22.122 390.752ZM23.13 390.752C23.13 389.504 23.322 387.224 25.002 387.224C26.682 387.224 26.874 389.504 26.874 390.752C26.874 392 26.682 394.28 25.002 394.28C23.322 394.28 23.13 392 23.13 390.752ZM32.654 386.504H31.778L29.498 388.352L30.098 389.084L31.622 387.8H31.646V395H32.654V386.504Z" fill="#194A21"/>
<g filter="url(#filter3_d_488_285)">
<circle cx="25" cy="221" r="25" fill="white"/>
<circle cx="25" cy="221" r="24.25" stroke="url(#paint6_linear_488_285)" stroke-width="1.5"/>
</g>
<circle cx="25" cy="221" r="24.25" stroke="url(#paint7_linear_488_285)" stroke-width="1.5"/>
<circle cx="25" cy="221" r="24.25" stroke="#194A21" stroke-width="1.5"/>
<circle cx="25" cy="221" r="24.25" stroke="#A1A1A1" stroke-width="1.5"/>
<path d="M15.1308 218.284C14.5068 217.552 13.7028 217.288 12.7548 217.288C11.2668 217.288 9.86284 218.104 9.86284 219.736C9.86284 221.152 10.7748 221.68 11.9748 222.076C13.4868 222.58 14.1948 222.76 14.1948 223.804C14.1948 224.776 13.2108 225.28 12.3468 225.28C11.6148 225.28 10.8948 224.956 10.5348 224.332L9.67084 225.04C10.2468 225.892 11.3028 226.216 12.2868 226.216C13.8228 226.216 15.2748 225.424 15.2748 223.732C15.2748 222.064 14.0508 221.632 12.7308 221.212C11.3748 220.78 10.9428 220.432 10.9428 219.652C10.9428 218.644 11.8668 218.224 12.7548 218.224C13.3668 218.224 13.9668 218.464 14.3028 219.004L15.1308 218.284ZM20.8868 226.216C23.4668 226.216 25.3268 224.32 25.3268 221.752C25.3268 219.184 23.4668 217.288 20.8868 217.288C18.3068 217.288 16.4468 219.184 16.4468 221.752C16.4468 224.32 18.3068 226.216 20.8868 226.216ZM20.8868 225.28C18.8948 225.28 17.5268 223.708 17.5268 221.752C17.5268 219.796 18.8948 218.224 20.8868 218.224C22.8788 218.224 24.2468 219.796 24.2468 221.752C24.2468 223.708 22.8788 225.28 20.8868 225.28ZM26.9466 226H31.8426V225.064H27.9546V217.504H26.9466V226ZM32.7906 226H36.0546C37.7226 226 40.2186 224.884 40.2186 221.752C40.2186 218.62 37.7226 217.504 36.0546 217.504H32.7906V226ZM33.7986 218.44H35.7186C37.6626 218.44 39.1386 219.424 39.1386 221.752C39.1386 224.08 37.6626 225.064 35.7186 225.064H33.7986V218.44Z" fill="#A1A1A1"/>
<path d="M20.026 217.504H18.79L15.418 222.94V224.056H19.018V226H20.026V224.056H21.25V223.12H20.026V217.504ZM19.018 223.12H16.282L18.994 218.68H19.018V223.12ZM22.122 221.752C22.122 223.684 22.662 226.144 25.002 226.144C27.342 226.144 27.882 223.684 27.882 221.752C27.882 219.82 27.342 217.36 25.002 217.36C22.662 217.36 22.122 219.82 22.122 221.752ZM23.13 221.752C23.13 220.504 23.322 218.224 25.002 218.224C26.682 218.224 26.874 220.504 26.874 221.752C26.874 223 26.682 225.28 25.002 225.28C23.322 225.28 23.13 223 23.13 221.752ZM34.094 217.504H28.91V218.44H33.014L29.558 226H30.698L34.094 218.44V217.504Z" fill="#194A21"/>
<g filter="url(#filter4_d_488_285)">
<circle cx="241" cy="25" r="25" fill="white"/>
<circle cx="241" cy="25" r="24.25" stroke="url(#paint8_linear_488_285)" stroke-width="1.5"/>
</g>
<circle cx="241" cy="25" r="24.25" stroke="url(#paint9_linear_488_285)" stroke-width="1.5"/>
<circle cx="241" cy="25" r="24.25" stroke="#194A21" stroke-width="1.5"/>
<circle cx="241" cy="25" r="24.25" stroke="#A1A1A1" stroke-width="1.5"/>
<path d="M231.131 22.284C230.507 21.552 229.703 21.288 228.755 21.288C227.267 21.288 225.863 22.104 225.863 23.736C225.863 25.152 226.775 25.68 227.975 26.076C229.487 26.58 230.195 26.76 230.195 27.804C230.195 28.776 229.211 29.28 228.347 29.28C227.615 29.28 226.895 28.956 226.535 28.332L225.671 29.04C226.247 29.892 227.303 30.216 228.287 30.216C229.823 30.216 231.275 29.424 231.275 27.732C231.275 26.064 230.051 25.632 228.731 25.212C227.375 24.78 226.943 24.432 226.943 23.652C226.943 22.644 227.867 22.224 228.755 22.224C229.367 22.224 229.967 22.464 230.303 23.004L231.131 22.284ZM236.887 30.216C239.467 30.216 241.327 28.32 241.327 25.752C241.327 23.184 239.467 21.288 236.887 21.288C234.307 21.288 232.447 23.184 232.447 25.752C232.447 28.32 234.307 30.216 236.887 30.216ZM236.887 29.28C234.895 29.28 233.527 27.708 233.527 25.752C233.527 23.796 234.895 22.224 236.887 22.224C238.879 22.224 240.247 23.796 240.247 25.752C240.247 27.708 238.879 29.28 236.887 29.28ZM242.947 30H247.843V29.064H243.955V21.504H242.947V30ZM248.791 30H252.055C253.723 30 256.219 28.884 256.219 25.752C256.219 22.62 253.723 21.504 252.055 21.504H248.791V30ZM249.799 22.44H251.719C253.663 22.44 255.139 23.424 255.139 25.752C255.139 28.08 253.663 29.064 251.719 29.064H249.799V22.44Z" fill="#A1A1A1"/>
<path d="M236.026 21.504H234.79L231.418 26.94V28.056H235.018V30H236.026V28.056H237.25V27.12H236.026V21.504ZM235.018 27.12H232.282L234.994 22.68H235.018V27.12ZM238.122 25.752C238.122 27.684 238.662 30.144 241.002 30.144C243.342 30.144 243.882 27.684 243.882 25.752C243.882 23.82 243.342 21.36 241.002 21.36C238.662 21.36 238.122 23.82 238.122 25.752ZM239.13 25.752C239.13 24.504 239.322 22.224 241.002 22.224C242.682 22.224 242.874 24.504 242.874 25.752C242.874 27 242.682 29.28 241.002 29.28C239.322 29.28 239.13 27 239.13 25.752ZM249.362 21.504H248.126L244.754 26.94V28.056H248.354V30H249.362V28.056H250.586V27.12H249.362V21.504ZM248.354 27.12H245.618L248.33 22.68H248.354V27.12Z" fill="#194A21"/>
<g filter="url(#filter5_d_488_285)">
<circle cx="133" cy="25" r="25" fill="white"/>
<circle cx="133" cy="25" r="24.25" stroke="url(#paint10_linear_488_285)" stroke-width="1.5"/>
</g>
<circle cx="133" cy="25" r="24.25" stroke="url(#paint11_linear_488_285)" stroke-width="1.5"/>
<circle cx="133" cy="25" r="24.25" stroke="#194A21" stroke-width="1.5"/>
<circle cx="133" cy="25" r="24.25" stroke="#A1A1A1" stroke-width="1.5"/>
<path d="M123.131 22.284C122.507 21.552 121.703 21.288 120.755 21.288C119.267 21.288 117.863 22.104 117.863 23.736C117.863 25.152 118.775 25.68 119.975 26.076C121.487 26.58 122.195 26.76 122.195 27.804C122.195 28.776 121.211 29.28 120.347 29.28C119.615 29.28 118.895 28.956 118.535 28.332L117.671 29.04C118.247 29.892 119.303 30.216 120.287 30.216C121.823 30.216 123.275 29.424 123.275 27.732C123.275 26.064 122.051 25.632 120.731 25.212C119.375 24.78 118.943 24.432 118.943 23.652C118.943 22.644 119.867 22.224 120.755 22.224C121.367 22.224 121.967 22.464 122.303 23.004L123.131 22.284ZM128.887 30.216C131.467 30.216 133.327 28.32 133.327 25.752C133.327 23.184 131.467 21.288 128.887 21.288C126.307 21.288 124.447 23.184 124.447 25.752C124.447 28.32 126.307 30.216 128.887 30.216ZM128.887 29.28C126.895 29.28 125.527 27.708 125.527 25.752C125.527 23.796 126.895 22.224 128.887 22.224C130.879 22.224 132.247 23.796 132.247 25.752C132.247 27.708 130.879 29.28 128.887 29.28ZM134.947 30H139.843V29.064H135.955V21.504H134.947V30ZM140.791 30H144.055C145.723 30 148.219 28.884 148.219 25.752C148.219 22.62 145.723 21.504 144.055 21.504H140.791V30ZM141.799 22.44H143.719C145.663 22.44 147.139 23.424 147.139 25.752C147.139 28.08 145.663 29.064 143.719 29.064H141.799V22.44Z" fill="#A1A1A1"/>
<path d="M128.026 21.504H126.79L123.418 26.94V28.056H127.018V30H128.026V28.056H129.25V27.12H128.026V21.504ZM127.018 27.12H124.282L126.994 22.68H127.018V27.12ZM130.122 25.752C130.122 27.684 130.662 30.144 133.002 30.144C135.342 30.144 135.882 27.684 135.882 25.752C135.882 23.82 135.342 21.36 133.002 21.36C130.662 21.36 130.122 23.82 130.122 25.752ZM131.13 25.752C131.13 24.504 131.322 22.224 133.002 22.224C134.682 22.224 134.874 24.504 134.874 25.752C134.874 27 134.682 29.28 133.002 29.28C131.322 29.28 131.13 27 131.13 25.752ZM142.022 21.504H137.57L137.486 25.92C137.99 25.62 138.638 25.392 139.214 25.392C140.402 25.392 141.314 26.076 141.314 27.324C141.314 28.5 140.51 29.28 139.49 29.28C138.77 29.28 138.194 28.848 137.906 28.212L136.898 28.596C137.354 29.532 138.122 30.144 139.406 30.144C141.062 30.144 142.322 29.016 142.322 27.324C142.322 25.728 141.242 24.528 139.61 24.528C139.262 24.528 138.842 24.576 138.518 24.732L138.554 22.44H142.022V21.504Z" fill="#194A21"/>
<g filter="url(#filter6_d_488_285)">
<circle cx="25" cy="25" r="25" fill="white"/>
<circle cx="25" cy="25" r="24.25" stroke="url(#paint12_linear_488_285)" stroke-width="1.5"/>
</g>
<circle cx="25" cy="25" r="24.25" stroke="url(#paint13_linear_488_285)" stroke-width="1.5"/>
<circle cx="25" cy="25" r="24.25" stroke="#194A21" stroke-width="1.5"/>
<circle cx="25" cy="25" r="24.25" stroke="#A1A1A1" stroke-width="1.5"/>
<path d="M15.1308 22.284C14.5068 21.552 13.7028 21.288 12.7548 21.288C11.2668 21.288 9.86284 22.104 9.86284 23.736C9.86284 25.152 10.7748 25.68 11.9748 26.076C13.4868 26.58 14.1948 26.76 14.1948 27.804C14.1948 28.776 13.2108 29.28 12.3468 29.28C11.6148 29.28 10.8948 28.956 10.5348 28.332L9.67084 29.04C10.2468 29.892 11.3028 30.216 12.2868 30.216C13.8228 30.216 15.2748 29.424 15.2748 27.732C15.2748 26.064 14.0508 25.632 12.7308 25.212C11.3748 24.78 10.9428 24.432 10.9428 23.652C10.9428 22.644 11.8668 22.224 12.7548 22.224C13.3668 22.224 13.9668 22.464 14.3028 23.004L15.1308 22.284ZM20.8868 30.216C23.4668 30.216 25.3268 28.32 25.3268 25.752C25.3268 23.184 23.4668 21.288 20.8868 21.288C18.3068 21.288 16.4468 23.184 16.4468 25.752C16.4468 28.32 18.3068 30.216 20.8868 30.216ZM20.8868 29.28C18.8948 29.28 17.5268 27.708 17.5268 25.752C17.5268 23.796 18.8948 22.224 20.8868 22.224C22.8788 22.224 24.2468 23.796 24.2468 25.752C24.2468 27.708 22.8788 29.28 20.8868 29.28ZM26.9466 30H31.8426V29.064H27.9546V21.504H26.9466V30ZM32.7906 30H36.0546C37.7226 30 40.2186 28.884 40.2186 25.752C40.2186 22.62 37.7226 21.504 36.0546 21.504H32.7906V30ZM33.7986 22.44H35.7186C37.6626 22.44 39.1386 23.424 39.1386 25.752C39.1386 28.08 37.6626 29.064 35.7186 29.064H33.7986V22.44Z" fill="#A1A1A1"/>
<path d="M20.026 21.504H18.79L15.418 26.94V28.056H19.018V30H20.026V28.056H21.25V27.12H20.026V21.504ZM19.018 27.12H16.282L18.994 22.68H19.018V27.12ZM22.122 25.752C22.122 27.684 22.662 30.144 25.002 30.144C27.342 30.144 27.882 27.684 27.882 25.752C27.882 23.82 27.342 21.36 25.002 21.36C22.662 21.36 22.122 23.82 22.122 25.752ZM23.13 25.752C23.13 24.504 23.322 22.224 25.002 22.224C26.682 22.224 26.874 24.504 26.874 25.752C26.874 27 26.682 29.28 25.002 29.28C23.322 29.28 23.13 27 23.13 25.752ZM33.062 21.504H31.886L29.63 25.092C29.174 25.824 28.826 26.496 28.826 27.48C28.826 29.136 30.062 30.144 31.67 30.144C33.278 30.144 34.514 29.136 34.514 27.48C34.514 25.896 33.422 24.816 31.946 24.816C31.598 24.816 31.118 24.888 30.806 25.068L30.782 25.044L33.062 21.504ZM31.67 25.68C32.69 25.68 33.506 26.376 33.506 27.48C33.506 28.584 32.69 29.28 31.67 29.28C30.65 29.28 29.834 28.584 29.834 27.48C29.834 26.376 30.65 25.68 31.67 25.68Z" fill="#194A21"/>
</g>
<defs>
<filter id="filter0_d_488_285" x="206" y="355" width="70" height="70" filterUnits="userSpaceOnUse" color-interpolation-filters="sRGB">
<feFlood flood-opacity="0" result="BackgroundImageFix"/>
<feColorMatrix in="SourceAlpha" type="matrix" values="0 0 0 0 0 0 0 0 0 0 0 0 0 0 0 0 0 0 127 0" result="hardAlpha"/>
<feOffset/>
<feGaussianBlur stdDeviation="5"/>
<feComposite in2="hardAlpha" operator="out"/>
<feColorMatrix type="matrix" values="0 0 0 0 0 0 0 0 0 0 0 0 0 0 0 0 0 0 0.15 0"/>
<feBlend mode="normal" in2="BackgroundImageFix" result="effect1_dropShadow_488_285"/>
<feBlend mode="normal" in="SourceGraphic" in2="effect1_dropShadow_488_285" result="shape"/>
</filter>
<filter id="filter1_d_488_285" x="98" y="355" width="70" height="70" filterUnits="userSpaceOnUse" color-interpolation-filters="sRGB">
<feFlood flood-opacity="0" result="BackgroundImageFix"/>
<feColorMatrix in="SourceAlpha" type="matrix" values="0 0 0 0 0 0 0 0 0 0 0 0 0 0 0 0 0 0 127 0" result="hardAlpha"/>
<feOffset/>
<feGaussianBlur stdDeviation="5"/>
<feComposite in2="hardAlpha" operator="out"/>
<feColorMatrix type="matrix" values="0 0 0 0 0 0 0 0 0 0 0 0 0 0 0 0 0 0 0.15 0"/>
<feBlend mode="normal" in2="BackgroundImageFix" result="effect1_dropShadow_488_285"/>
<feBlend mode="normal" in="SourceGraphic" in2="effect1_dropShadow_488_285" result="shape"/>
</filter>
<filter id="filter2_d_488_285" x="-10" y="355" width="70" height="70" filterUnits="userSpaceOnUse" color-interpolation-filters="sRGB">
<feFlood flood-opacity="0" result="BackgroundImageFix"/>
<feColorMatrix in="SourceAlpha" type="matrix" values="0 0 0 0 0 0 0 0 0 0 0 0 0 0 0 0 0 0 127 0" result="hardAlpha"/>
<feOffset/>
<feGaussianBlur stdDeviation="5"/>
<feComposite in2="hardAlpha" operator="out"/>
<feColorMatrix type="matrix" values="0 0 0 0 0 0 0 0 0 0 0 0 0 0 0 0 0 0 0.15 0"/>
<feBlend mode="normal" in2="BackgroundImageFix" result="effect1_dropShadow_488_285"/>
<feBlend mode="normal" in="SourceGraphic" in2="effect1_dropShadow_488_285" result="shape"/>
</filter>
<filter id="filter3_d_488_285" x="-10" y="186" width="70" height="70" filterUnits="userSpaceOnUse" color-interpolation-filters="sRGB">
<feFlood flood-opacity="0" result="BackgroundImageFix"/>
<feColorMatrix in="SourceAlpha" type="matrix" values="0 0 0 0 0 0 0 0 0 0 0 0 0 0 0 0 0 0 127 0" result="hardAlpha"/>
<feOffset/>
<feGaussianBlur stdDeviation="5"/>
<feComposite in2="hardAlpha" operator="out"/>
<feColorMatrix type="matrix" values="0 0 0 0 0 0 0 0 0 0 0 0 0 0 0 0 0 0 0.15 0"/>
<feBlend mode="normal" in2="BackgroundImageFix" result="effect1_dropShadow_488_285"/>
<feBlend mode="normal" in="SourceGraphic" in2="effect1_dropShadow_488_285" result="shape"/>
</filter>
<filter id="filter4_d_488_285" x="206" y="-10" width="70" height="70" filterUnits="userSpaceOnUse" color-interpolation-filters="sRGB">
<feFlood flood-opacity="0" result="BackgroundImageFix"/>
<feColorMatrix in="SourceAlpha" type="matrix" values="0 0 0 0 0 0 0 0 0 0 0 0 0 0 0 0 0 0 127 0" result="hardAlpha"/>
<feOffset/>
<feGaussianBlur stdDeviation="5"/>
<feComposite in2="hardAlpha" operator="out"/>
<feColorMatrix type="matrix" values="0 0 0 0 0 0 0 0 0 0 0 0 0 0 0 0 0 0 0.15 0"/>
<feBlend mode="normal" in2="BackgroundImageFix" result="effect1_dropShadow_488_285"/>
<feBlend mode="normal" in="SourceGraphic" in2="effect1_dropShadow_488_285" result="shape"/>
</filter>
<filter id="filter5_d_488_285" x="98" y="-10" width="70" height="70" filterUnits="userSpaceOnUse" color-interpolation-filters="sRGB">
<feFlood flood-opacity="0" result="BackgroundImageFix"/>
<feColorMatrix in="SourceAlpha" type="matrix" values="0 0 0 0 0 0 0 0 0 0 0 0 0 0 0 0 0 0 127 0" result="hardAlpha"/>
<feOffset/>
<feGaussianBlur stdDeviation="5"/>
<feComposite in2="hardAlpha" operator="out"/>
<feColorMatrix type="matrix" values="0 0 0 0 0 0 0 0 0 0 0 0 0 0 0 0 0 0 0.15 0"/>
<feBlend mode="normal" in2="BackgroundImageFix" result="effect1_dropShadow_488_285"/>
<feBlend mode="normal" in="SourceGraphic" in2="effect1_dropShadow_488_285" result="shape"/>
</filter>
<filter id="filter6_d_488_285" x="-10" y="-10" width="70" height="70" filterUnits="userSpaceOnUse" color-interpolation-filters="sRGB">
<feFlood flood-opacity="0" result="BackgroundImageFix"/>
<feColorMatrix in="SourceAlpha" type="matrix" values="0 0 0 0 0 0 0 0 0 0 0 0 0 0 0 0 0 0 127 0" result="hardAlpha"/>
<feOffset/>
<feGaussianBlur stdDeviation="5"/>
<feComposite in2="hardAlpha" operator="out"/>
<feColorMatrix type="matrix" values="0 0 0 0 0 0 0 0 0 0 0 0 0 0 0 0 0 0 0.15 0"/>
<feBlend mode="normal" in2="BackgroundImageFix" result="effect1_dropShadow_488_285"/>
<feBlend mode="normal" in="SourceGraphic" in2="effect1_dropShadow_488_285" result="shape"/>
</filter>
<linearGradient id="paint0_linear_488_285" x1="266" y1="396.44" x2="227.956" y2="397.341" gradientUnits="userSpaceOnUse">
<stop offset="0.0161041" stop-color="#FFB800"/>
<stop offset="0.357735" stop-color="#F9F2B7"/>
<stop offset="0.697917" stop-color="#FFDB5B"/>
<stop offset="1" stop-color="#FFB800"/>
</linearGradient>
<linearGradient id="paint1_linear_488_285" x1="266" y1="396.44" x2="227.956" y2="397.341" gradientUnits="userSpaceOnUse">
<stop offset="0.0161041" stop-color="#FFB800"/>
<stop offset="0.357735" stop-color="#F9F2B7"/>
<stop offset="0.697917" stop-color="#FFDB5B"/>
<stop offset="1" stop-color="#FFB800"/>
</linearGradient>
<linearGradient id="paint2_linear_488_285" x1="158" y1="396.44" x2="119.956" y2="397.341" gradientUnits="userSpaceOnUse">
<stop offset="0.0161041" stop-color="#FFB800"/>
<stop offset="0.357735" stop-color="#F9F2B7"/>
<stop offset="0.697917" stop-color="#FFDB5B"/>
<stop offset="1" stop-color="#FFB800"/>
</linearGradient>
<linearGradient id="paint3_linear_488_285" x1="158" y1="396.44" x2="119.956" y2="397.341" gradientUnits="userSpaceOnUse">
<stop offset="0.0161041" stop-color="#FFB800"/>
<stop offset="0.357735" stop-color="#F9F2B7"/>
<stop offset="0.697917" stop-color="#FFDB5B"/>
<stop offset="1" stop-color="#FFB800"/>
</linearGradient>
<linearGradient id="paint4_linear_488_285" x1="50" y1="396.44" x2="11.9559" y2="397.341" gradientUnits="userSpaceOnUse">
<stop offset="0.0161041" stop-color="#FFB800"/>
<stop offset="0.357735" stop-color="#F9F2B7"/>
<stop offset="0.697917" stop-color="#FFDB5B"/>
<stop offset="1" stop-color="#FFB800"/>
</linearGradient>
<linearGradient id="paint5_linear_488_285" x1="50" y1="396.44" x2="11.9559" y2="397.341" gradientUnits="userSpaceOnUse">
<stop offset="0.0161041" stop-color="#FFB800"/>
<stop offset="0.357735" stop-color="#F9F2B7"/>
<stop offset="0.697917" stop-color="#FFDB5B"/>
<stop offset="1" stop-color="#FFB800"/>
</linearGradient>
<linearGradient id="paint6_linear_488_285" x1="50" y1="227.44" x2="11.9559" y2="228.341" gradientUnits="userSpaceOnUse">
<stop offset="0.0161041" stop-color="#FFB800"/>
<stop offset="0.357735" stop-color="#F9F2B7"/>
<stop offset="0.697917" stop-color="#FFDB5B"/>
<stop offset="1" stop-color="#FFB800"/>
</linearGradient>
<linearGradient id="paint7_linear_488_285" x1="50" y1="227.44" x2="11.9559" y2="228.341" gradientUnits="userSpaceOnUse">
<stop offset="0.0161041" stop-color="#FFB800"/>
<stop offset="0.357735" stop-color="#F9F2B7"/>
<stop offset="0.697917" stop-color="#FFDB5B"/>
<stop offset="1" stop-color="#FFB800"/>
</linearGradient>
<linearGradient id="paint8_linear_488_285" x1="266" y1="31.4401" x2="227.956" y2="32.3405" gradientUnits="userSpaceOnUse">
<stop offset="0.0161041" stop-color="#FFB800"/>
<stop offset="0.357735" stop-color="#F9F2B7"/>
<stop offset="0.697917" stop-color="#FFDB5B"/>
<stop offset="1" stop-color="#FFB800"/>
</linearGradient>
<linearGradient id="paint9_linear_488_285" x1="266" y1="31.4401" x2="227.956" y2="32.3405" gradientUnits="userSpaceOnUse">
<stop offset="0.0161041" stop-color="#FFB800"/>
<stop offset="0.357735" stop-color="#F9F2B7"/>
<stop offset="0.697917" stop-color="#FFDB5B"/>
<stop offset="1" stop-color="#FFB800"/>
</linearGradient>
<linearGradient id="paint10_linear_488_285" x1="158" y1="31.4401" x2="119.956" y2="32.3405" gradientUnits="userSpaceOnUse">
<stop offset="0.0161041" stop-color="#FFB800"/>
<stop offset="0.357735" stop-color="#F9F2B7"/>
<stop offset="0.697917" stop-color="#FFDB5B"/>
<stop offset="1" stop-color="#FFB800"/>
</linearGradient>
<linearGradient id="paint11_linear_488_285" x1="158" y1="31.4401" x2="119.956" y2="32.3405" gradientUnits="userSpaceOnUse">
<stop offset="0.0161041" stop-color="#FFB800"/>
<stop offset="0.357735" stop-color="#F9F2B7"/>
<stop offset="0.697917" stop-color="#FFDB5B"/>
<stop offset="1" stop-color="#FFB800"/>
</linearGradient>
<linearGradient id="paint12_linear_488_285" x1="50" y1="31.4401" x2="11.9559" y2="32.3405" gradientUnits="userSpaceOnUse">
<stop offset="0.0161041" stop-color="#FFB800"/>
<stop offset="0.357735" stop-color="#F9F2B7"/>
<stop offset="0.697917" stop-color="#FFDB5B"/>
<stop offset="1" stop-color="#FFB800"/>
</linearGradient>
<linearGradient id="paint13_linear_488_285" x1="50" y1="31.4401" x2="11.9559" y2="32.3405" gradientUnits="userSpaceOnUse">
<stop offset="0.0161041" stop-color="#FFB800"/>
<stop offset="0.357735" stop-color="#F9F2B7"/>
<stop offset="0.697917" stop-color="#FFDB5B"/>
<stop offset="1" stop-color="#FFB800"/>
</linearGradient>
<clipPath id="clip0_488_285">
<rect width="266" height="415" fill="white"/>
</clipPath>
</defs>
</svg>
