<svg width="17" height="11" viewBox="0 0 17 11" fill="none" xmlns="http://www.w3.org/2000/svg">
<path fill-rule="evenodd" clip-rule="evenodd" d="M5.19248 10.5572C5.58301 10.9477 6.21617 10.9477 6.6067 10.5572C6.99722 10.1667 6.99722 9.53351 6.6067 9.14299L4.01835 6.55464L15.7178 6.55464C16.2701 6.55464 16.7178 6.10693 16.7178 5.55464C16.7178 5.00236 16.2701 4.55464 15.7178 4.55464L4.01835 4.55464L6.6067 1.96629C6.99722 1.57577 6.99722 0.942604 6.6067 0.55208C6.21618 0.161555 5.58301 0.161555 5.19249 0.55208L0.897927 4.84664C0.895449 4.84911 0.892985 4.85159 0.890533 4.85409C0.701924 5.04614 0.606474 5.29543 0.60418 5.54541M0.680016 5.93742C0.728815 6.05537 0.801154 6.16587 0.89703 6.26175L5.19248 10.5572M0.680016 5.93742C0.632233 5.8222 0.605376 5.6961 0.60418 5.56387L0.680016 5.93742Z" fill="white"/>
</svg>
