<svg width="55" height="55" viewBox="0 0 55 55" fill="none" xmlns="http://www.w3.org/2000/svg">
<circle cx="27.3545" cy="27.5537" r="27" transform="rotate(-180 27.3545 27.5537)" fill="url(#paint0_linear_245_2109)"/>
<path fill-rule="evenodd" clip-rule="evenodd" d="M24.1925 32.5572C24.583 32.9477 25.2162 32.9477 25.6067 32.5572C25.9972 32.1667 25.9972 31.5335 25.6067 31.143L23.0183 28.5546L34.7178 28.5546C35.2701 28.5546 35.7178 28.1069 35.7178 27.5546C35.7178 27.0024 35.2701 26.5546 34.7178 26.5546L23.0184 26.5546L25.6067 23.9663C25.9972 23.5758 25.9972 22.9426 25.6067 22.5521C25.2162 22.1616 24.583 22.1616 24.1925 22.5521L19.8979 26.8466C19.8954 26.8491 19.893 26.8516 19.8905 26.8541C19.7019 27.0461 19.6065 27.2954 19.6042 27.5454M19.68 27.9374C19.7288 28.0554 19.8012 28.1659 19.897 28.2617L24.1925 32.5572M19.68 27.9374C19.6322 27.8222 19.6054 27.6961 19.6042 27.5639Z" fill="white"/>
<defs>
<linearGradient id="paint0_linear_245_2109" x1="71.5205" y1="0.106433" x2="-21.7684" y2="17.1394" gradientUnits="userSpaceOnUse">
<stop stop-color="#FFD15B"/>
<stop offset="0.201521" stop-color="#E08F2A"/>
<stop offset="0.499696" stop-color="#FFCE5A"/>
<stop offset="0.798377" stop-color="#FFCA4B"/>
<stop offset="1" stop-color="#FDC43E"/>
</linearGradient>
</defs>
</svg>
