<svg width="604" height="408" viewBox="0 0 604 408" fill="none" xmlns="http://www.w3.org/2000/svg">
    <g clip-path="url(#clip0_381_34)">
        <g filter="url(#filter0_d_381_34)">
            <circle cx="84" cy="78" r="25" fill="white"/>
            <circle class="round-green" cx="84" cy="78" r="24.25" stroke="url(#paint0_linear_381_34)"
                    stroke-width="1.5"/>
            <circle class="icon-hover" cx="84" cy="78" r="24.25" stroke="url(#paint0_linear_381_34)"
                    stroke-width="1.5"/>
            <path d="M74.598 83H80.07V82.064H75.738V82.04L78.354 79.58C79.206 78.776 80.01 78.02 80.01 76.664C80.01 75.152 78.822 74.36 77.418 74.36C76.05 74.36 74.982 75.092 74.754 76.484L75.846 76.58C76.002 75.764 76.602 75.224 77.454 75.224C78.306 75.224 79.002 75.776 79.002 76.664C79.002 77.492 78.606 77.948 77.802 78.728L74.598 81.848V83ZM81.122 78.752C81.122 80.684 81.662 83.144 84.002 83.144C86.342 83.144 86.882 80.684 86.882 78.752C86.882 76.82 86.342 74.36 84.002 74.36C81.662 74.36 81.122 76.82 81.122 78.752ZM82.13 78.752C82.13 77.504 82.322 75.224 84.002 75.224C85.682 75.224 85.874 77.504 85.874 78.752C85.874 80 85.682 82.28 84.002 82.28C82.322 82.28 82.13 80 82.13 78.752ZM93.094 74.504H87.91V75.44H92.014L88.558 83H89.698L93.094 75.44V74.504Z"
                  fill="#194A21"/>
        </g>
        <!--<path d="M74.598 83H80.07V82.064H75.738V82.04L78.354 79.58C79.206 78.776 80.01 78.02 80.01 76.664C80.01 75.152 78.822 74.36 77.418 74.36C76.05 74.36 74.982 75.092 74.754 76.484L75.846 76.58C76.002 75.764 76.602 75.224 77.454 75.224C78.306 75.224 79.002 75.776 79.002 76.664C79.002 77.492 78.606 77.948 77.802 78.728L74.598 81.848V83ZM81.122 78.752C81.122 80.684 81.662 83.144 84.002 83.144C86.342 83.144 86.882 80.684 86.882 78.752C86.882 76.82 86.342 74.36 84.002 74.36C81.662 74.36 81.122 76.82 81.122 78.752ZM82.13 78.752C82.13 77.504 82.322 75.224 84.002 75.224C85.682 75.224 85.874 77.504 85.874 78.752C85.874 80 85.682 82.28 84.002 82.28C82.322 82.28 82.13 80 82.13 78.752ZM93.094 74.504H87.91V75.44H92.014L88.558 83H89.698L93.094 75.44V74.504Z" fill="#194A21"/>-->
        <g filter="url(#filter1_d_381_34)">
            <circle cx="84" cy="182" r="25" fill="white"/>
            <circle cx="84" cy="182" r="24.25" stroke="url(#paint1_linear_381_34)" stroke-width="1.5"/>
        </g>
        <path d="M74.598 187H80.07V186.064H75.738V186.04L78.354 183.58C79.206 182.776 80.01 182.02 80.01 180.664C80.01 179.152 78.822 178.36 77.418 178.36C76.05 178.36 74.982 179.092 74.754 180.484L75.846 180.58C76.002 179.764 76.602 179.224 77.454 179.224C78.306 179.224 79.002 179.776 79.002 180.664C79.002 181.492 78.606 181.948 77.802 182.728L74.598 185.848V187ZM81.122 182.752C81.122 184.684 81.662 187.144 84.002 187.144C86.342 187.144 86.882 184.684 86.882 182.752C86.882 180.82 86.342 178.36 84.002 178.36C81.662 178.36 81.122 180.82 81.122 182.752ZM82.13 182.752C82.13 181.504 82.322 179.224 84.002 179.224C85.682 179.224 85.874 181.504 85.874 182.752C85.874 184 85.682 186.28 84.002 186.28C82.322 186.28 82.13 184 82.13 182.752ZM88.246 180.58C88.246 181.384 88.774 182.224 89.638 182.452V182.476C88.618 182.692 87.958 183.592 87.958 184.66C87.958 186.208 89.158 187.144 90.67 187.144C92.182 187.144 93.382 186.208 93.382 184.66C93.382 183.592 92.722 182.692 91.702 182.476V182.452C92.566 182.224 93.094 181.384 93.094 180.58C93.094 179.248 92.038 178.36 90.67 178.36C89.302 178.36 88.246 179.248 88.246 180.58ZM89.254 180.628C89.254 179.824 89.83 179.224 90.67 179.224C91.51 179.224 92.086 179.824 92.086 180.628C92.086 181.432 91.51 182.032 90.67 182.032C89.83 182.032 89.254 181.432 89.254 180.628ZM88.966 184.588C88.966 183.592 89.722 182.896 90.67 182.896C91.618 182.896 92.374 183.592 92.374 184.588C92.374 185.584 91.618 186.28 90.67 186.28C89.722 186.28 88.966 185.584 88.966 184.588Z"
              fill="#194A21"/>
        <g filter="url(#filter2_d_381_34)">
            <circle cx="84" cy="301" r="25" fill="white"/>
            <circle cx="84" cy="301" r="24.25" stroke="url(#paint2_linear_381_34)" stroke-width="1.5"/>
        </g>
        <path d="M74.598 306H80.07V305.064H75.738V305.04L78.354 302.58C79.206 301.776 80.01 301.02 80.01 299.664C80.01 298.152 78.822 297.36 77.418 297.36C76.05 297.36 74.982 298.092 74.754 299.484L75.846 299.58C76.002 298.764 76.602 298.224 77.454 298.224C78.306 298.224 79.002 298.776 79.002 299.664C79.002 300.492 78.606 300.948 77.802 301.728L74.598 304.848V306ZM81.122 301.752C81.122 303.684 81.662 306.144 84.002 306.144C86.342 306.144 86.882 303.684 86.882 301.752C86.882 299.82 86.342 297.36 84.002 297.36C81.662 297.36 81.122 299.82 81.122 301.752ZM82.13 301.752C82.13 300.504 82.322 298.224 84.002 298.224C85.682 298.224 85.874 300.504 85.874 301.752C85.874 303 85.682 305.28 84.002 305.28C82.322 305.28 82.13 303 82.13 301.752ZM89.278 306H90.454L92.71 302.412C93.166 301.68 93.514 301.008 93.514 300.024C93.514 298.368 92.278 297.36 90.67 297.36C89.062 297.36 87.826 298.368 87.826 300.024C87.826 301.608 88.918 302.688 90.394 302.688C90.742 302.688 91.222 302.616 91.534 302.436L91.558 302.46L89.278 306ZM90.67 301.824C89.65 301.824 88.834 301.128 88.834 300.024C88.834 298.92 89.65 298.224 90.67 298.224C91.69 298.224 92.506 298.92 92.506 300.024C92.506 301.128 91.69 301.824 90.67 301.824Z"
              fill="#194A21"/>
        <g filter="url(#filter3_d_381_34)">
            <circle cx="193" cy="301" r="25" fill="white"/>
            <circle cx="193" cy="301" r="24.25" stroke="url(#paint3_linear_381_34)" stroke-width="1.5"/>
        </g>
        <path d="M183.598 306H189.07V305.064H184.738V305.04L187.354 302.58C188.206 301.776 189.01 301.02 189.01 299.664C189.01 298.152 187.822 297.36 186.418 297.36C185.05 297.36 183.982 298.092 183.754 299.484L184.846 299.58C185.002 298.764 185.602 298.224 186.454 298.224C187.306 298.224 188.002 298.776 188.002 299.664C188.002 300.492 187.606 300.948 186.802 301.728L183.598 304.848V306ZM193.986 297.504H193.11L190.83 299.352L191.43 300.084L192.954 298.8H192.978V306H193.986V297.504ZM196.79 301.752C196.79 303.684 197.33 306.144 199.67 306.144C202.01 306.144 202.55 303.684 202.55 301.752C202.55 299.82 202.01 297.36 199.67 297.36C197.33 297.36 196.79 299.82 196.79 301.752ZM197.798 301.752C197.798 300.504 197.99 298.224 199.67 298.224C201.35 298.224 201.542 300.504 201.542 301.752C201.542 303 201.35 305.28 199.67 305.28C197.99 305.28 197.798 303 197.798 301.752Z"
              fill="#194A21"/>
        <g filter="url(#filter4_d_381_34)">
            <circle cx="334" cy="301" r="25" fill="white"/>
            <circle cx="334" cy="301" r="24.25" stroke="url(#paint4_linear_381_34)" stroke-width="1.5"/>
        </g>
        <path d="M324.598 306H330.07V305.064H325.738V305.04L328.354 302.58C329.206 301.776 330.01 301.02 330.01 299.664C330.01 298.152 328.822 297.36 327.418 297.36C326.05 297.36 324.982 298.092 324.754 299.484L325.846 299.58C326.002 298.764 326.602 298.224 327.454 298.224C328.306 298.224 329.002 298.776 329.002 299.664C329.002 300.492 328.606 300.948 327.802 301.728L324.598 304.848V306ZM334.986 297.504H334.11L331.83 299.352L332.43 300.084L333.954 298.8H333.978V306H334.986V297.504ZM341.654 297.504H340.778L338.498 299.352L339.098 300.084L340.622 298.8H340.646V306H341.654V297.504Z"
              fill="#194A21"/>
        <g filter="url(#filter5_d_381_34)">
            <circle cx="438" cy="301" r="25" fill="white"/>
            <circle cx="438" cy="301" r="24.25" stroke="url(#paint5_linear_381_34)" stroke-width="1.5"/>
        </g>
        <path d="M428.598 306H434.07V305.064H429.738V305.04L432.354 302.58C433.206 301.776 434.01 301.02 434.01 299.664C434.01 298.152 432.822 297.36 431.418 297.36C430.05 297.36 428.982 298.092 428.754 299.484L429.846 299.58C430.002 298.764 430.602 298.224 431.454 298.224C432.306 298.224 433.002 298.776 433.002 299.664C433.002 300.492 432.606 300.948 431.802 301.728L428.598 304.848V306ZM438.986 297.504H438.11L435.83 299.352L436.43 300.084L437.954 298.8H437.978V306H438.986V297.504ZM441.934 306H447.406V305.064H443.074V305.04L445.69 302.58C446.542 301.776 447.346 301.02 447.346 299.664C447.346 298.152 446.158 297.36 444.754 297.36C443.386 297.36 442.318 298.092 442.09 299.484L443.182 299.58C443.338 298.764 443.938 298.224 444.79 298.224C445.642 298.224 446.338 298.776 446.338 299.664C446.338 300.492 445.942 300.948 445.138 301.728L441.934 304.848V306Z"
              fill="#194A21"/>
        <g filter="url(#filter6_d_381_34)">
            <circle cx="530" cy="246" r="25" fill="white"/>
            <circle cx="530" cy="246" r="24.25" stroke="url(#paint6_linear_381_34)" stroke-width="1.5"/>
        </g>
        <path d="M520.598 251H526.07V250.064H521.738V250.04L524.354 247.58C525.206 246.776 526.01 246.02 526.01 244.664C526.01 243.152 524.822 242.36 523.418 242.36C522.05 242.36 520.982 243.092 520.754 244.484L521.846 244.58C522.002 243.764 522.602 243.224 523.454 243.224C524.306 243.224 525.002 243.776 525.002 244.664C525.002 245.492 524.606 245.948 523.802 246.728L520.598 249.848V251ZM527.122 246.752C527.122 248.684 527.662 251.144 530.002 251.144C532.342 251.144 532.882 248.684 532.882 246.752C532.882 244.82 532.342 242.36 530.002 242.36C527.662 242.36 527.122 244.82 527.122 246.752ZM528.13 246.752C528.13 245.504 528.322 243.224 530.002 243.224C531.682 243.224 531.874 245.504 531.874 246.752C531.874 248 531.682 250.28 530.002 250.28C528.322 250.28 528.13 248 528.13 246.752ZM537.654 242.504H536.778L534.498 244.352L535.098 245.084L536.622 243.8H536.646V251H537.654V242.504Z"
              fill="#194A21"/>
        <g filter="url(#filter7_d_381_34)">
            <circle cx="530" cy="152" r="25" fill="white"/>
            <circle cx="530" cy="152" r="24.25" stroke="url(#paint7_linear_381_34)" stroke-width="1.5"/>
        </g>
        <path d="M520.598 157H526.07V156.064H521.738V156.04L524.354 153.58C525.206 152.776 526.01 152.02 526.01 150.664C526.01 149.152 524.822 148.36 523.418 148.36C522.05 148.36 520.982 149.092 520.754 150.484L521.846 150.58C522.002 149.764 522.602 149.224 523.454 149.224C524.306 149.224 525.002 149.776 525.002 150.664C525.002 151.492 524.606 151.948 523.802 152.728L520.598 155.848V157ZM527.122 152.752C527.122 154.684 527.662 157.144 530.002 157.144C532.342 157.144 532.882 154.684 532.882 152.752C532.882 150.82 532.342 148.36 530.002 148.36C527.662 148.36 527.122 150.82 527.122 152.752ZM528.13 152.752C528.13 151.504 528.322 149.224 530.002 149.224C531.682 149.224 531.874 151.504 531.874 152.752C531.874 154 531.682 156.28 530.002 156.28C528.322 156.28 528.13 154 528.13 152.752ZM533.934 157H539.406V156.064H535.074V156.04L537.69 153.58C538.542 152.776 539.346 152.02 539.346 150.664C539.346 149.152 538.158 148.36 536.754 148.36C535.386 148.36 534.318 149.092 534.09 150.484L535.182 150.58C535.338 149.764 535.938 149.224 536.79 149.224C537.642 149.224 538.338 149.776 538.338 150.664C538.338 151.492 537.942 151.948 537.138 152.728L533.934 155.848V157Z"
              fill="#194A21"/>
        <g filter="url(#filter8_d_381_34)">
            <circle cx="530" cy="59" r="25" fill="white"/>
            <circle cx="530" cy="59" r="24.25" stroke="url(#paint8_linear_381_34)" stroke-width="1.5"/>
        </g>
        <path d="M520.598 64H526.07V63.064H521.738V63.04L524.354 60.58C525.206 59.776 526.01 59.02 526.01 57.664C526.01 56.152 524.822 55.36 523.418 55.36C522.05 55.36 520.982 56.092 520.754 57.484L521.846 57.58C522.002 56.764 522.602 56.224 523.454 56.224C524.306 56.224 525.002 56.776 525.002 57.664C525.002 58.492 524.606 58.948 523.802 59.728L520.598 62.848V64ZM527.122 59.752C527.122 61.684 527.662 64.144 530.002 64.144C532.342 64.144 532.882 61.684 532.882 59.752C532.882 57.82 532.342 55.36 530.002 55.36C527.662 55.36 527.122 57.82 527.122 59.752ZM528.13 59.752C528.13 58.504 528.322 56.224 530.002 56.224C531.682 56.224 531.874 58.504 531.874 59.752C531.874 61 531.682 63.28 530.002 63.28C528.322 63.28 528.13 61 528.13 59.752ZM535.782 59.968H536.094C537.138 59.968 538.242 60.364 538.242 61.612C538.242 62.596 537.474 63.28 536.514 63.28C535.578 63.28 535.086 62.932 534.798 62.02L533.778 62.356C534.21 63.616 535.23 64.144 536.514 64.144C538.026 64.144 539.322 63.304 539.322 61.684C539.322 60.616 538.662 59.728 537.582 59.548V59.524C538.434 59.26 539.034 58.468 539.034 57.58C539.034 56.116 537.858 55.36 536.502 55.36C535.422 55.36 534.45 55.84 534.042 56.8L535.014 57.172C535.314 56.548 535.866 56.224 536.574 56.224C537.426 56.224 538.026 56.764 538.026 57.628C538.026 58.912 536.934 59.104 536.094 59.104H535.782V59.968Z"
              fill="#194A21"/>
        <g filter="url(#filter9_d_381_34)">
            <circle cx="393" cy="109" r="25" fill="white"/>
            <circle cx="393" cy="109" r="24.25" stroke="url(#paint9_linear_381_34)" stroke-width="1.5"/>
        </g>
        <path d="M383.598 114H389.07V113.064H384.738V113.04L387.354 110.58C388.206 109.776 389.01 109.02 389.01 107.664C389.01 106.152 387.822 105.36 386.418 105.36C385.05 105.36 383.982 106.092 383.754 107.484L384.846 107.58C385.002 106.764 385.602 106.224 386.454 106.224C387.306 106.224 388.002 106.776 388.002 107.664C388.002 108.492 387.606 108.948 386.802 109.728L383.598 112.848V114ZM390.122 109.752C390.122 111.684 390.662 114.144 393.002 114.144C395.342 114.144 395.882 111.684 395.882 109.752C395.882 107.82 395.342 105.36 393.002 105.36C390.662 105.36 390.122 107.82 390.122 109.752ZM391.13 109.752C391.13 108.504 391.322 106.224 393.002 106.224C394.682 106.224 394.874 108.504 394.874 109.752C394.874 111 394.682 113.28 393.002 113.28C391.322 113.28 391.13 111 391.13 109.752ZM401.362 105.504H400.126L396.754 110.94V112.056H400.354V114H401.362V112.056H402.586V111.12H401.362V105.504ZM400.354 111.12H397.618L400.33 106.68H400.354V111.12Z"
              fill="#194A21"/>
        <g filter="url(#filter10_d_381_34)">
            <circle cx="293" cy="109" r="25" fill="white"/>
            <circle cx="293" cy="109" r="24.25" stroke="url(#paint10_linear_381_34)" stroke-width="1.5"/>
        </g>
        <path d="M283.598 114H289.07V113.064H284.738V113.04L287.354 110.58C288.206 109.776 289.01 109.02 289.01 107.664C289.01 106.152 287.822 105.36 286.418 105.36C285.05 105.36 283.982 106.092 283.754 107.484L284.846 107.58C285.002 106.764 285.602 106.224 286.454 106.224C287.306 106.224 288.002 106.776 288.002 107.664C288.002 108.492 287.606 108.948 286.802 109.728L283.598 112.848V114ZM290.122 109.752C290.122 111.684 290.662 114.144 293.002 114.144C295.342 114.144 295.882 111.684 295.882 109.752C295.882 107.82 295.342 105.36 293.002 105.36C290.662 105.36 290.122 107.82 290.122 109.752ZM291.13 109.752C291.13 108.504 291.322 106.224 293.002 106.224C294.682 106.224 294.874 108.504 294.874 109.752C294.874 111 294.682 113.28 293.002 113.28C291.322 113.28 291.13 111 291.13 109.752ZM302.022 105.504H297.57L297.486 109.92C297.99 109.62 298.638 109.392 299.214 109.392C300.402 109.392 301.314 110.076 301.314 111.324C301.314 112.5 300.51 113.28 299.49 113.28C298.77 113.28 298.194 112.848 297.906 112.212L296.898 112.596C297.354 113.532 298.122 114.144 299.406 114.144C301.062 114.144 302.322 113.016 302.322 111.324C302.322 109.728 301.242 108.528 299.61 108.528C299.262 108.528 298.842 108.576 298.518 108.732L298.554 106.44H302.022V105.504Z"
              fill="#194A21"/>
        <g filter="url(#filter11_d_381_34)">
            <circle cx="193" cy="109" r="25" fill="white"/>
            <circle cx="193" cy="109" r="24.25" stroke="url(#paint11_linear_381_34)" stroke-width="1.5"/>
        </g>
        <path d="M183.598 114H189.07V113.064H184.738V113.04L187.354 110.58C188.206 109.776 189.01 109.02 189.01 107.664C189.01 106.152 187.822 105.36 186.418 105.36C185.05 105.36 183.982 106.092 183.754 107.484L184.846 107.58C185.002 106.764 185.602 106.224 186.454 106.224C187.306 106.224 188.002 106.776 188.002 107.664C188.002 108.492 187.606 108.948 186.802 109.728L183.598 112.848V114ZM190.122 109.752C190.122 111.684 190.662 114.144 193.002 114.144C195.342 114.144 195.882 111.684 195.882 109.752C195.882 107.82 195.342 105.36 193.002 105.36C190.662 105.36 190.122 107.82 190.122 109.752ZM191.13 109.752C191.13 108.504 191.322 106.224 193.002 106.224C194.682 106.224 194.874 108.504 194.874 109.752C194.874 111 194.682 113.28 193.002 113.28C191.322 113.28 191.13 111 191.13 109.752ZM201.062 105.504H199.886L197.63 109.092C197.174 109.824 196.826 110.496 196.826 111.48C196.826 113.136 198.062 114.144 199.67 114.144C201.278 114.144 202.514 113.136 202.514 111.48C202.514 109.896 201.422 108.816 199.946 108.816C199.598 108.816 199.118 108.888 198.806 109.068L198.782 109.044L201.062 105.504ZM199.67 109.68C200.69 109.68 201.506 110.376 201.506 111.48C201.506 112.584 200.69 113.28 199.67 113.28C198.65 113.28 197.834 112.584 197.834 111.48C197.834 110.376 198.65 109.68 199.67 109.68Z"
              fill="#194A21"/>
    </g>
    <defs>
        <filter id="filter0_d_381_34" x="49" y="43" width="70" height="70" filterUnits="userSpaceOnUse"
                color-interpolation-filters="sRGB">
            <feFlood flood-opacity="0" result="BackgroundImageFix"/>
            <feColorMatrix in="SourceAlpha" type="matrix" values="0 0 0 0 0 0 0 0 0 0 0 0 0 0 0 0 0 0 127 0"
                           result="hardAlpha"/>
            <feOffset/>
            <feGaussianBlur stdDeviation="5"/>
            <feComposite in2="hardAlpha" operator="out"/>
            <feColorMatrix type="matrix" values="0 0 0 0 0 0 0 0 0 0 0 0 0 0 0 0 0 0 0.45 0"/>
            <feBlend mode="normal" in2="BackgroundImageFix" result="effect1_dropShadow_381_34"/>
            <feBlend mode="normal" in="SourceGraphic" in2="effect1_dropShadow_381_34" result="shape"/>
        </filter>
        <filter id="filter1_d_381_34" x="49" y="147" width="70" height="70" filterUnits="userSpaceOnUse"
                color-interpolation-filters="sRGB">
            <feFlood flood-opacity="0" result="BackgroundImageFix"/>
            <feColorMatrix in="SourceAlpha" type="matrix" values="0 0 0 0 0 0 0 0 0 0 0 0 0 0 0 0 0 0 127 0"
                           result="hardAlpha"/>
            <feOffset/>
            <feGaussianBlur stdDeviation="5"/>
            <feComposite in2="hardAlpha" operator="out"/>
            <feColorMatrix type="matrix" values="0 0 0 0 0 0 0 0 0 0 0 0 0 0 0 0 0 0 0.45 0"/>
            <feBlend mode="normal" in2="BackgroundImageFix" result="effect1_dropShadow_381_34"/>
            <feBlend mode="normal" in="SourceGraphic" in2="effect1_dropShadow_381_34" result="shape"/>
        </filter>
        <filter id="filter2_d_381_34" x="49" y="266" width="70" height="70" filterUnits="userSpaceOnUse"
                color-interpolation-filters="sRGB">
            <feFlood flood-opacity="0" result="BackgroundImageFix"/>
            <feColorMatrix in="SourceAlpha" type="matrix" values="0 0 0 0 0 0 0 0 0 0 0 0 0 0 0 0 0 0 127 0"
                           result="hardAlpha"/>
            <feOffset/>
            <feGaussianBlur stdDeviation="5"/>
            <feComposite in2="hardAlpha" operator="out"/>
            <feColorMatrix type="matrix" values="0 0 0 0 0 0 0 0 0 0 0 0 0 0 0 0 0 0 0.45 0"/>
            <feBlend mode="normal" in2="BackgroundImageFix" result="effect1_dropShadow_381_34"/>
            <feBlend mode="normal" in="SourceGraphic" in2="effect1_dropShadow_381_34" result="shape"/>
        </filter>
        <filter id="filter3_d_381_34" x="158" y="266" width="70" height="70" filterUnits="userSpaceOnUse"
                color-interpolation-filters="sRGB">
            <feFlood flood-opacity="0" result="BackgroundImageFix"/>
            <feColorMatrix in="SourceAlpha" type="matrix" values="0 0 0 0 0 0 0 0 0 0 0 0 0 0 0 0 0 0 127 0"
                           result="hardAlpha"/>
            <feOffset/>
            <feGaussianBlur stdDeviation="5"/>
            <feComposite in2="hardAlpha" operator="out"/>
            <feColorMatrix type="matrix" values="0 0 0 0 0 0 0 0 0 0 0 0 0 0 0 0 0 0 0.45 0"/>
            <feBlend mode="normal" in2="BackgroundImageFix" result="effect1_dropShadow_381_34"/>
            <feBlend mode="normal" in="SourceGraphic" in2="effect1_dropShadow_381_34" result="shape"/>
        </filter>
        <filter id="filter4_d_381_34" x="299" y="266" width="70" height="70" filterUnits="userSpaceOnUse"
                color-interpolation-filters="sRGB">
            <feFlood flood-opacity="0" result="BackgroundImageFix"/>
            <feColorMatrix in="SourceAlpha" type="matrix" values="0 0 0 0 0 0 0 0 0 0 0 0 0 0 0 0 0 0 127 0"
                           result="hardAlpha"/>
            <feOffset/>
            <feGaussianBlur stdDeviation="5"/>
            <feComposite in2="hardAlpha" operator="out"/>
            <feColorMatrix type="matrix" values="0 0 0 0 0 0 0 0 0 0 0 0 0 0 0 0 0 0 0.45 0"/>
            <feBlend mode="normal" in2="BackgroundImageFix" result="effect1_dropShadow_381_34"/>
            <feBlend mode="normal" in="SourceGraphic" in2="effect1_dropShadow_381_34" result="shape"/>
        </filter>
        <filter id="filter5_d_381_34" x="403" y="266" width="70" height="70" filterUnits="userSpaceOnUse"
                color-interpolation-filters="sRGB">
            <feFlood flood-opacity="0" result="BackgroundImageFix"/>
            <feColorMatrix in="SourceAlpha" type="matrix" values="0 0 0 0 0 0 0 0 0 0 0 0 0 0 0 0 0 0 127 0"
                           result="hardAlpha"/>
            <feOffset/>
            <feGaussianBlur stdDeviation="5"/>
            <feComposite in2="hardAlpha" operator="out"/>
            <feColorMatrix type="matrix" values="0 0 0 0 0 0 0 0 0 0 0 0 0 0 0 0 0 0 0.45 0"/>
            <feBlend mode="normal" in2="BackgroundImageFix" result="effect1_dropShadow_381_34"/>
            <feBlend mode="normal" in="SourceGraphic" in2="effect1_dropShadow_381_34" result="shape"/>
        </filter>
        <filter id="filter6_d_381_34" x="495" y="211" width="70" height="70" filterUnits="userSpaceOnUse"
                color-interpolation-filters="sRGB">
            <feFlood flood-opacity="0" result="BackgroundImageFix"/>
            <feColorMatrix in="SourceAlpha" type="matrix" values="0 0 0 0 0 0 0 0 0 0 0 0 0 0 0 0 0 0 127 0"
                           result="hardAlpha"/>
            <feOffset/>
            <feGaussianBlur stdDeviation="5"/>
            <feComposite in2="hardAlpha" operator="out"/>
            <feColorMatrix type="matrix" values="0 0 0 0 0 0 0 0 0 0 0 0 0 0 0 0 0 0 0.45 0"/>
            <feBlend mode="normal" in2="BackgroundImageFix" result="effect1_dropShadow_381_34"/>
            <feBlend mode="normal" in="SourceGraphic" in2="effect1_dropShadow_381_34" result="shape"/>
        </filter>
        <filter id="filter7_d_381_34" x="495" y="117" width="70" height="70" filterUnits="userSpaceOnUse"
                color-interpolation-filters="sRGB">
            <feFlood flood-opacity="0" result="BackgroundImageFix"/>
            <feColorMatrix in="SourceAlpha" type="matrix" values="0 0 0 0 0 0 0 0 0 0 0 0 0 0 0 0 0 0 127 0"
                           result="hardAlpha"/>
            <feOffset/>
            <feGaussianBlur stdDeviation="5"/>
            <feComposite in2="hardAlpha" operator="out"/>
            <feColorMatrix type="matrix" values="0 0 0 0 0 0 0 0 0 0 0 0 0 0 0 0 0 0 0.45 0"/>
            <feBlend mode="normal" in2="BackgroundImageFix" result="effect1_dropShadow_381_34"/>
            <feBlend mode="normal" in="SourceGraphic" in2="effect1_dropShadow_381_34" result="shape"/>
        </filter>
        <filter id="filter8_d_381_34" x="495" y="24" width="70" height="70" filterUnits="userSpaceOnUse"
                color-interpolation-filters="sRGB">
            <feFlood flood-opacity="0" result="BackgroundImageFix"/>
            <feColorMatrix in="SourceAlpha" type="matrix" values="0 0 0 0 0 0 0 0 0 0 0 0 0 0 0 0 0 0 127 0"
                           result="hardAlpha"/>
            <feOffset/>
            <feGaussianBlur stdDeviation="5"/>
            <feComposite in2="hardAlpha" operator="out"/>
            <feColorMatrix type="matrix" values="0 0 0 0 0 0 0 0 0 0 0 0 0 0 0 0 0 0 0.45 0"/>
            <feBlend mode="normal" in2="BackgroundImageFix" result="effect1_dropShadow_381_34"/>
            <feBlend mode="normal" in="SourceGraphic" in2="effect1_dropShadow_381_34" result="shape"/>
        </filter>
        <filter id="filter9_d_381_34" x="358" y="74" width="70" height="70" filterUnits="userSpaceOnUse"
                color-interpolation-filters="sRGB">
            <feFlood flood-opacity="0" result="BackgroundImageFix"/>
            <feColorMatrix in="SourceAlpha" type="matrix" values="0 0 0 0 0 0 0 0 0 0 0 0 0 0 0 0 0 0 127 0"
                           result="hardAlpha"/>
            <feOffset/>
            <feGaussianBlur stdDeviation="5"/>
            <feComposite in2="hardAlpha" operator="out"/>
            <feColorMatrix type="matrix" values="0 0 0 0 0 0 0 0 0 0 0 0 0 0 0 0 0 0 0.45 0"/>
            <feBlend mode="normal" in2="BackgroundImageFix" result="effect1_dropShadow_381_34"/>
            <feBlend mode="normal" in="SourceGraphic" in2="effect1_dropShadow_381_34" result="shape"/>
        </filter>
        <filter id="filter10_d_381_34" x="258" y="74" width="70" height="70" filterUnits="userSpaceOnUse"
                color-interpolation-filters="sRGB">
            <feFlood flood-opacity="0" result="BackgroundImageFix"/>
            <feColorMatrix in="SourceAlpha" type="matrix" values="0 0 0 0 0 0 0 0 0 0 0 0 0 0 0 0 0 0 127 0"
                           result="hardAlpha"/>
            <feOffset/>
            <feGaussianBlur stdDeviation="5"/>
            <feComposite in2="hardAlpha" operator="out"/>
            <feColorMatrix type="matrix" values="0 0 0 0 0 0 0 0 0 0 0 0 0 0 0 0 0 0 0.45 0"/>
            <feBlend mode="normal" in2="BackgroundImageFix" result="effect1_dropShadow_381_34"/>
            <feBlend mode="normal" in="SourceGraphic" in2="effect1_dropShadow_381_34" result="shape"/>
        </filter>
        <filter id="filter11_d_381_34" x="158" y="74" width="70" height="70" filterUnits="userSpaceOnUse"
                color-interpolation-filters="sRGB">
            <feFlood flood-opacity="0" result="BackgroundImageFix"/>
            <feColorMatrix in="SourceAlpha" type="matrix" values="0 0 0 0 0 0 0 0 0 0 0 0 0 0 0 0 0 0 127 0"
                           result="hardAlpha"/>
            <feOffset/>
            <feGaussianBlur stdDeviation="5"/>
            <feComposite in2="hardAlpha" operator="out"/>
            <feColorMatrix type="matrix" values="0 0 0 0 0 0 0 0 0 0 0 0 0 0 0 0 0 0 0.45 0"/>
            <feBlend mode="normal" in2="BackgroundImageFix" result="effect1_dropShadow_381_34"/>
            <feBlend mode="normal" in="SourceGraphic" in2="effect1_dropShadow_381_34" result="shape"/>
        </filter>
        <linearGradient id="paint0_linear_381_34" x1="109" y1="84.4401" x2="70.9559" y2="85.3405"
                        gradientUnits="userSpaceOnUse">
            <stop offset="0.0161041" stop-color="#FFB800"/>
            <stop offset="0.357735" stop-color="#F9F2B7"/>
            <stop offset="0.697917" stop-color="#FFDB5B"/>
            <stop offset="1" stop-color="#FFB800"/>
        </linearGradient>
        <linearGradient id="paint1_linear_381_34" x1="109" y1="188.44" x2="70.9559" y2="189.341"
                        gradientUnits="userSpaceOnUse">
            <stop offset="0.0161041" stop-color="#FFB800"/>
            <stop offset="0.357735" stop-color="#F9F2B7"/>
            <stop offset="0.697917" stop-color="#FFDB5B"/>
            <stop offset="1" stop-color="#FFB800"/>
        </linearGradient>
        <linearGradient id="paint2_linear_381_34" x1="109" y1="307.44" x2="70.9559" y2="308.341"
                        gradientUnits="userSpaceOnUse">
            <stop offset="0.0161041" stop-color="#FFB800"/>
            <stop offset="0.357735" stop-color="#F9F2B7"/>
            <stop offset="0.697917" stop-color="#FFDB5B"/>
            <stop offset="1" stop-color="#FFB800"/>
        </linearGradient>
        <linearGradient id="paint3_linear_381_34" x1="218" y1="307.44" x2="179.956" y2="308.341"
                        gradientUnits="userSpaceOnUse">
            <stop offset="0.0161041" stop-color="#FFB800"/>
            <stop offset="0.357735" stop-color="#F9F2B7"/>
            <stop offset="0.697917" stop-color="#FFDB5B"/>
            <stop offset="1" stop-color="#FFB800"/>
        </linearGradient>
        <linearGradient id="paint4_linear_381_34" x1="359" y1="307.44" x2="320.956" y2="308.341"
                        gradientUnits="userSpaceOnUse">
            <stop offset="0.0161041" stop-color="#FFB800"/>
            <stop offset="0.357735" stop-color="#F9F2B7"/>
            <stop offset="0.697917" stop-color="#FFDB5B"/>
            <stop offset="1" stop-color="#FFB800"/>
        </linearGradient>
        <linearGradient id="paint5_linear_381_34" x1="463" y1="307.44" x2="424.956" y2="308.341"
                        gradientUnits="userSpaceOnUse">
            <stop offset="0.0161041" stop-color="#FFB800"/>
            <stop offset="0.357735" stop-color="#F9F2B7"/>
            <stop offset="0.697917" stop-color="#FFDB5B"/>
            <stop offset="1" stop-color="#FFB800"/>
        </linearGradient>
        <linearGradient id="paint6_linear_381_34" x1="555" y1="252.44" x2="516.956" y2="253.341"
                        gradientUnits="userSpaceOnUse">
            <stop offset="0.0161041" stop-color="#FFB800"/>
            <stop offset="0.357735" stop-color="#F9F2B7"/>
            <stop offset="0.697917" stop-color="#FFDB5B"/>
            <stop offset="1" stop-color="#FFB800"/>
        </linearGradient>
        <linearGradient id="paint7_linear_381_34" x1="555" y1="158.44" x2="516.956" y2="159.341"
                        gradientUnits="userSpaceOnUse">
            <stop offset="0.0161041" stop-color="#FFB800"/>
            <stop offset="0.357735" stop-color="#F9F2B7"/>
            <stop offset="0.697917" stop-color="#FFDB5B"/>
            <stop offset="1" stop-color="#FFB800"/>
        </linearGradient>
        <linearGradient id="paint8_linear_381_34" x1="555" y1="65.4401" x2="516.956" y2="66.3405"
                        gradientUnits="userSpaceOnUse">
            <stop offset="0.0161041" stop-color="#FFB800"/>
            <stop offset="0.357735" stop-color="#F9F2B7"/>
            <stop offset="0.697917" stop-color="#FFDB5B"/>
            <stop offset="1" stop-color="#FFB800"/>
        </linearGradient>
        <linearGradient id="paint9_linear_381_34" x1="418" y1="115.44" x2="379.956" y2="116.341"
                        gradientUnits="userSpaceOnUse">
            <stop offset="0.0161041" stop-color="#FFB800"/>
            <stop offset="0.357735" stop-color="#F9F2B7"/>
            <stop offset="0.697917" stop-color="#FFDB5B"/>
            <stop offset="1" stop-color="#FFB800"/>
        </linearGradient>
        <linearGradient id="paint10_linear_381_34" x1="318" y1="115.44" x2="279.956" y2="116.341"
                        gradientUnits="userSpaceOnUse">
            <stop offset="0.0161041" stop-color="#FFB800"/>
            <stop offset="0.357735" stop-color="#F9F2B7"/>
            <stop offset="0.697917" stop-color="#FFDB5B"/>
            <stop offset="1" stop-color="#FFB800"/>
        </linearGradient>
        <linearGradient id="paint11_linear_381_34" x1="218" y1="115.44" x2="179.956" y2="116.341"
                        gradientUnits="userSpaceOnUse">
            <stop offset="0.0161041" stop-color="#FFB800"/>
            <stop offset="0.357735" stop-color="#F9F2B7"/>
            <stop offset="0.697917" stop-color="#FFDB5B"/>
            <stop offset="1" stop-color="#FFB800"/>
        </linearGradient>
        <clipPath id="clip0_381_34">
            <rect width="408" height="604" fill="white" transform="translate(0 408) rotate(-90)"/>
        </clipPath>
    </defs>
</svg>
