<svg width="40" height="40" viewBox="0 0 40 40" fill="none" xmlns="http://www.w3.org/2000/svg">
<path fill-rule="evenodd" clip-rule="evenodd" d="M31.0607 11.0607C31.6464 10.4749 31.6464 9.52513 31.0607 8.93934C30.4749 8.35355 29.5251 8.35355 28.9393 8.93934L20 17.8787L11.0607 8.93934C10.4749 8.35355 9.52513 8.35355 8.93934 8.93934C8.35355 9.52513 8.35355 10.4749 8.93934 11.0607L17.8787 20L8.93934 28.9393C8.35355 29.5251 8.35355 30.4749 8.93934 31.0607C9.52513 31.6464 10.4749 31.6464 11.0607 31.0607L20 22.1213L28.9393 31.0607C29.5251 31.6464 30.4749 31.6464 31.0607 31.0607C31.6464 30.4749 31.6464 29.5251 31.0607 28.9393L22.1213 20L31.0607 11.0607Z" fill="url(#paint0_linear_243_1156)"/>
<defs>
<linearGradient id="paint0_linear_243_1156" x1="31.5" y1="17.3988" x2="8.11192" y2="16.6984" gradientUnits="userSpaceOnUse">
<stop stop-color="#FFD15B"/>
<stop offset="0.169225" stop-color="#E08F2A"/>
<stop offset="0.380208" stop-color="#FECF62"/>
<stop offset="0.384653" stop-color="#FFCE5A"/>
<stop offset="0.639648" stop-color="#FFF59F"/>
<stop offset="0.846739" stop-color="#FFCA4B"/>
<stop offset="1" stop-color="#FDC43E"/>
</linearGradient>
</defs>
</svg>
