<svg width="55" height="55" viewBox="0 0 55 55" fill="none" xmlns="http://www.w3.org/2000/svg">
<path fill-rule="evenodd" clip-rule="evenodd" d="M0.666014 27.5527C0.666015 12.641 12.7543 0.552727 27.666 0.552728C42.5777 0.55273 54.666 12.641 54.666 27.5527C54.666 42.4644 42.5777 54.5527 27.666 54.5527C12.7543 54.5527 0.666013 42.4644 0.666014 27.5527ZM34.128 20.8461C34.5185 21.2366 34.5185 21.8698 34.128 22.2603L28.8351 27.5532L34.128 32.8461C34.5185 33.2366 34.5185 33.8698 34.128 34.2603C33.7375 34.6509 33.1043 34.6509 32.7138 34.2603L27.4209 28.9674L22.128 34.2603C21.7375 34.6509 21.1043 34.6509 20.7138 34.2603C20.3233 33.8698 20.3233 33.2366 20.7138 32.8461L26.0067 27.5532L20.7138 22.2603C20.3233 21.8698 20.3233 21.2366 20.7138 20.8461C21.1043 20.4556 21.7375 20.4556 22.128 20.8461L27.4209 26.139L32.7138 20.8461C33.1043 20.4556 33.7375 20.4556 34.128 20.8461Z" fill="url(#paint0_linear_243_1512)"/>
<defs>
<linearGradient id="paint0_linear_243_1512" x1="-16.5" y1="55" x2="76.7889" y2="37.967" gradientUnits="userSpaceOnUse">
<stop stop-color="#FFD15B"/>
<stop offset="0.201521" stop-color="#E08F2A"/>
<stop offset="0.499696" stop-color="#FFCE5A"/>
<stop offset="0.798377" stop-color="#FFCA4B"/>
<stop offset="1" stop-color="#FDC43E"/>
</linearGradient>
</defs>
</svg>
