<svg width="49" height="49" viewBox="0 0 49 49" fill="none" xmlns="http://www.w3.org/2000/svg">
<mask id="path-1-inside-1_299_70" fill="white">
<path fill-rule="evenodd" clip-rule="evenodd" d="M24.209 48.9526C37.4638 48.9526 48.209 38.2075 48.209 24.9526C48.209 11.6978 37.4638 0.952637 24.209 0.952637C10.9542 0.952637 0.208984 11.6978 0.208984 24.9526C0.208984 38.2075 10.9542 48.9526 24.209 48.9526Z"/>
</mask>
<path d="M46.209 24.9526C46.209 37.1029 36.3592 46.9526 24.209 46.9526V50.9526C38.5684 50.9526 50.209 39.312 50.209 24.9526H46.209ZM24.209 2.95264C36.3592 2.95264 46.209 12.8024 46.209 24.9526H50.209C50.209 10.5932 38.5684 -1.04736 24.209 -1.04736V2.95264ZM2.20898 24.9526C2.20898 12.8024 12.0587 2.95264 24.209 2.95264V-1.04736C9.84958 -1.04736 -1.79102 10.5932 -1.79102 24.9526H2.20898ZM24.209 46.9526C12.0587 46.9526 2.20898 37.1029 2.20898 24.9526H-1.79102C-1.79102 39.312 9.84958 50.9526 24.209 50.9526V46.9526Z" fill="url(#paint0_linear_299_70)" mask="url(#path-1-inside-1_299_70)"/>
<path fill-rule="evenodd" clip-rule="evenodd" d="M33.5375 17.6954C34.1542 17.0788 34.1542 16.0791 33.5375 15.4625C32.9209 14.8458 31.9212 14.8458 31.3046 15.4625L24 22.767L16.6954 15.4625C16.0788 14.8458 15.0791 14.8458 14.4625 15.4625C13.8458 16.0791 13.8458 17.0788 14.4625 17.6954L21.767 25L14.4625 32.3046C13.8458 32.9212 13.8458 33.9209 14.4625 34.5375C15.0791 35.1542 16.0788 35.1542 16.6954 34.5375L24 27.233L31.3046 34.5375C31.9212 35.1542 32.9209 35.1542 33.5375 34.5375C34.1542 33.9209 34.1542 32.9212 33.5375 32.3046L26.233 25L33.5375 17.6954Z" fill="url(#paint1_linear_299_70)"/>
<defs>
<linearGradient id="paint0_linear_299_70" x1="48.209" y1="19.5241" x2="-0.600914" y2="18.0623" gradientUnits="userSpaceOnUse">
<stop stop-color="#FFD15B"/>
<stop offset="0.169225" stop-color="#E08F2A"/>
<stop offset="0.380208" stop-color="#FECF62"/>
<stop offset="0.384653" stop-color="#FFCE5A"/>
<stop offset="0.639648" stop-color="#FFF59F"/>
<stop offset="0.846739" stop-color="#FFCA4B"/>
<stop offset="1" stop-color="#FDC43E"/>
</linearGradient>
<linearGradient id="paint1_linear_299_70" x1="34" y1="22.7381" x2="13.6625" y2="22.129" gradientUnits="userSpaceOnUse">
<stop stop-color="#FFD15B"/>
<stop offset="0.169225" stop-color="#E08F2A"/>
<stop offset="0.380208" stop-color="#FECF62"/>
<stop offset="0.384653" stop-color="#FFCE5A"/>
<stop offset="0.639648" stop-color="#FFF59F"/>
<stop offset="0.846739" stop-color="#FFCA4B"/>
<stop offset="1" stop-color="#FDC43E"/>
</linearGradient>
</defs>
</svg>
