<svg width="32" height="32" viewBox="0 0 32 32" fill="none" xmlns="http://www.w3.org/2000/svg">
<path d="M15 0C15.6667 0 16.3333 0 17 0C17.5333 0.0666667 18.075 0.116667 18.6 0.208333C21.6417 0.725 24.325 1.99167 26.6167 4.05C29.375 6.525 31.1 9.58333 31.75 13.2417C31.85 13.825 31.9167 14.4167 31.9917 15C31.9917 15.6667 31.9917 16.3333 31.9917 17C31.975 17.0833 31.95 17.1583 31.9417 17.2417C31.75 19.7083 31.0417 22.025 29.7583 24.1333C27.2167 28.2917 23.55 30.85 18.75 31.7583C18.1667 31.8667 17.5833 31.925 16.9917 32C16.325 32 15.6583 32 14.9917 32C14.6 31.95 14.2083 31.9083 13.825 31.8583C10.6417 31.4 7.825 30.125 5.425 27.9917C2.65 25.5167 0.916667 22.45 0.25 18.7833C0.141667 18.1917 0.0833333 17.5917 0 17C0 16.3333 0 15.6667 0 15C0.05 14.6083 0.0916667 14.2167 0.141667 13.825C0.641667 10.3333 2.11667 7.31667 4.58333 4.80833C6.975 2.36667 9.86667 0.841667 13.2417 0.25C13.825 0.141667 14.4167 0.0833333 15 0ZM20.25 7.31667C20.2083 7.3 20.1833 7.28333 20.15 7.28333C18.9917 7.29167 17.8333 7.23333 16.6833 7.33333C15.2667 7.45833 14.25 8.225 13.7917 9.6C13.6167 10.1333 13.5583 10.7167 13.5167 11.2833C13.475 11.9333 13.5083 12.5917 13.5083 13.2833C12.8917 13.2833 12.3083 13.2833 11.7 13.2833C11.7 14.3917 11.7 15.4667 11.7 16.575C12.3083 16.575 12.9 16.575 13.5167 16.575C13.5167 19.675 13.5167 22.7417 13.5167 25.825C14.8083 25.825 16.075 25.825 17.375 25.825C17.375 22.7333 17.375 19.6583 17.375 16.55C18.2583 16.55 19.1083 16.55 19.975 16.55C20.0833 15.45 20.2 14.3833 20.3083 13.2833C19.3083 13.2833 18.35 13.2833 17.3667 13.2833C17.3667 12.6833 17.3667 12.1083 17.3667 11.5417C17.3667 10.7083 17.6083 10.475 18.45 10.475C19.0417 10.475 19.6333 10.475 20.2417 10.475C20.25 9.39167 20.25 8.35 20.25 7.31667Z" fill="url(#paint0_linear_415_90)"/>
<defs>
<linearGradient id="paint0_linear_415_90" x1="41.2822" y1="3.12902e-07" x2="-12.1304" y2="10.1069" gradientUnits="userSpaceOnUse">
<stop stop-color="#FFD15B"/>
<stop offset="0.169225" stop-color="#E08F2A"/>
<stop offset="0.380208" stop-color="#FECF62"/>
<stop offset="0.384653" stop-color="#FFCE5A"/>
<stop offset="0.639648" stop-color="#FFF59F"/>
<stop offset="0.846739" stop-color="#FFCA4B"/>
<stop offset="1" stop-color="#FDC43E"/>
</linearGradient>
</defs>
</svg>
