<svg width="32" height="32" viewBox="0 0 32 32" fill="none" xmlns="http://www.w3.org/2000/svg">
<g clip-path="url(#clip0_415_94)">
<path d="M17 31.9996C16.3333 31.9996 15.6667 31.9996 15 31.9996C14.6083 31.9496 14.2167 31.908 13.8333 31.858C10.65 31.3996 7.83333 30.1246 5.43333 27.9913C2.65 25.5163 0.916667 22.4496 0.25 18.7913C0.141667 18.1996 0.0833333 17.5996 0 17.008C0 16.3413 0 15.6746 0 15.008C0.0416667 14.7246 0.075 14.433 0.116667 14.1496C0.658333 9.79964 2.64167 6.23298 6.05833 3.50798C9.725 0.574651 13.9333 -0.500348 18.5667 0.207985C21.625 0.674651 24.3167 1.98298 26.625 4.04965C29.3833 6.52465 31.1083 9.58298 31.7583 13.2413C31.8583 13.8246 31.925 14.4163 32 14.9996C32 15.6663 32 16.333 32 16.9996C31.9833 17.083 31.9583 17.158 31.95 17.2413C31.7583 19.708 31.05 22.0246 29.7667 24.133C27.225 28.2913 23.5583 30.8496 18.7583 31.758C18.175 31.8663 17.5833 31.9163 17 31.9996ZM16.0083 6.89965C14.2 6.89965 12.3833 6.89131 10.575 6.89965C8.41667 6.90798 6.90833 8.40798 6.9 10.5496C6.89167 14.183 6.89167 17.8163 6.9 21.4496C6.90833 23.5913 8.43333 25.0996 10.575 25.0996C14.1917 25.0996 17.8 25.0996 21.4167 25.0996C23.5917 25.0996 25.1083 23.583 25.1083 21.3996C25.1083 17.7996 25.1083 14.1913 25.1083 10.5913C25.1083 10.2996 25.0917 10.008 25.0333 9.72464C24.675 7.99964 23.2667 6.89965 21.425 6.89131C19.6083 6.89131 17.8083 6.89965 16.0083 6.89965Z" fill="url(#paint0_linear_415_94)"/>
<path d="M8.69198 14.1494C9.59198 14.1494 10.467 14.1494 11.3753 14.1494C10.9086 15.4077 10.892 16.6494 11.392 17.8828C11.7836 18.8411 12.4253 19.6078 13.292 20.1828C14.992 21.2994 17.242 21.2494 18.9003 20.0494C20.7336 18.7328 21.3253 16.7494 20.642 14.1577C21.5253 14.1577 22.4003 14.1577 23.3253 14.1577C23.3253 14.2661 23.3253 14.3744 23.3253 14.4827C23.3253 16.7911 23.3253 19.1078 23.3253 21.4161C23.3253 22.6161 22.6253 23.3244 21.4336 23.3244C17.8086 23.3244 14.1836 23.3244 10.567 23.3244C9.39198 23.3244 8.69198 22.6161 8.69198 21.4328C8.69198 19.1078 8.69198 16.7911 8.69198 14.4661C8.67531 14.3661 8.69198 14.2661 8.69198 14.1494Z" fill="url(#paint1_linear_415_94)"/>
<path d="M19.1999 16.0078C19.1916 17.7828 17.7666 19.1994 15.9916 19.1911C14.2083 19.1828 12.7916 17.7495 12.8083 15.9495C12.8249 14.1911 14.2666 12.7828 16.0499 12.7995C17.7916 12.8161 19.2083 14.2578 19.1999 16.0078Z" fill="url(#paint2_linear_415_94)"/>
<path d="M19.9331 12.0577C19.9331 11.0494 19.9331 10.0494 19.9331 9.02441C20.9414 9.02441 21.9415 9.02441 22.9748 9.02441C22.9748 10.0161 22.9748 11.0161 22.9748 12.0577C21.9748 12.0577 20.9748 12.0577 19.9331 12.0577Z" fill="url(#paint3_linear_415_94)"/>
</g>
<defs>
<linearGradient id="paint0_linear_415_94" x1="41.2929" y1="-0.00244109" x2="-12.1328" y2="10.1089" gradientUnits="userSpaceOnUse">
<stop stop-color="#FFD15B"/>
<stop offset="0.169225" stop-color="#E08F2A"/>
<stop offset="0.380208" stop-color="#FECF62"/>
<stop offset="0.384653" stop-color="#FFCE5A"/>
<stop offset="0.639648" stop-color="#FFF59F"/>
<stop offset="0.846739" stop-color="#FFCA4B"/>
<stop offset="1" stop-color="#FDC43E"/>
</linearGradient>
<linearGradient id="paint1_linear_415_94" x1="27.577" y1="14.1494" x2="4.37449" y2="21.1572" gradientUnits="userSpaceOnUse">
<stop stop-color="#FFD15B"/>
<stop offset="0.169225" stop-color="#E08F2A"/>
<stop offset="0.380208" stop-color="#FECF62"/>
<stop offset="0.384653" stop-color="#FFCE5A"/>
<stop offset="0.639648" stop-color="#FFF59F"/>
<stop offset="0.846739" stop-color="#FFCA4B"/>
<stop offset="1" stop-color="#FDC43E"/>
</linearGradient>
<linearGradient id="paint2_linear_415_94" x1="21.0562" y1="12.7993" x2="10.3847" y2="14.8191" gradientUnits="userSpaceOnUse">
<stop stop-color="#FFD15B"/>
<stop offset="0.169225" stop-color="#E08F2A"/>
<stop offset="0.380208" stop-color="#FECF62"/>
<stop offset="0.384653" stop-color="#FFCE5A"/>
<stop offset="0.639648" stop-color="#FFF59F"/>
<stop offset="0.846739" stop-color="#FFCA4B"/>
<stop offset="1" stop-color="#FDC43E"/>
</linearGradient>
<linearGradient id="paint3_linear_415_94" x1="23.8581" y1="9.02441" x2="18.7808" y2="9.98805" gradientUnits="userSpaceOnUse">
<stop stop-color="#FFD15B"/>
<stop offset="0.169225" stop-color="#E08F2A"/>
<stop offset="0.380208" stop-color="#FECF62"/>
<stop offset="0.384653" stop-color="#FFCE5A"/>
<stop offset="0.639648" stop-color="#FFF59F"/>
<stop offset="0.846739" stop-color="#FFCA4B"/>
<stop offset="1" stop-color="#FDC43E"/>
</linearGradient>
<clipPath id="clip0_415_94">
<rect width="32" height="32" fill="white"/>
</clipPath>
</defs>
</svg>
