<svg width="242" height="155" viewBox="0 0 242 155" fill="none" xmlns="http://www.w3.org/2000/svg">
<path fill-rule="evenodd" clip-rule="evenodd" d="M69.1001 97.2436C73.9428 97.2436 81.0297 97.5944 84.8094 99.8161C91.3058 103.675 96.0304 113.146 96.0304 113.146C96.0304 113.146 89.534 103.441 83.9826 101.102C80.4391 99.5823 71.2262 99.3484 65.5566 99.4653C68.037 110.223 70.3993 121.916 70.3993 127.295L70.3995 127.566C70.4041 132.293 70.4149 143.417 59.1784 154.541L58.824 154.19C68.7487 144.364 68.7471 135.11 68.7458 127.557L68.7457 127.295C68.7457 122.735 65.7928 110.808 62.84 99.6992H62.3675C61.6339 99.7277 60.7041 99.7805 59.6367 99.841C51.9397 100.278 37.0908 101.12 37.0908 96.1912C37.0908 93.151 48.0755 88.5906 59.0603 85.1996C58.1153 81.2239 57.4067 78.1837 57.4067 76.8974C57.4067 71.2846 61.5407 70.3492 65.7928 70.3492C67.7896 70.3492 71.5492 70.7576 74.8312 71.1142C77.3735 71.3904 79.6292 71.6354 80.5573 71.6354C88.471 71.6354 90.7152 64.8534 90.7152 61.5793C90.7152 54.8026 85.0914 49.055 79.1867 43.0204C72.6613 36.3513 65.7928 29.3317 65.7928 20.1852C65.7928 4.51623 75.7145 0.540527 80.4391 0.540527C85.8724 0.540527 89.534 3.6977 91.1876 5.21782L90.8333 5.56862C90.0065 4.98396 86.3449 2.52838 81.7384 2.52838C74.6515 2.52838 68.982 9.77819 68.982 19.1328C68.982 28.9427 75.8905 34.8402 82.7247 40.6741C89.4131 46.3837 96.0304 52.0325 96.0304 61.2285C96.0304 72.337 87.9985 76.0789 81.5022 76.0789C79.2108 76.0789 76.9445 75.6298 74.5056 75.1465C71.6644 74.5835 68.5888 73.9741 64.966 73.9741C64.8807 73.9741 64.7887 73.9726 64.6914 73.971C63.3066 73.9482 60.832 73.9075 60.832 77.9498C60.832 78.6514 61.3045 80.99 62.0132 84.1472C70.045 81.8086 77.3681 80.1715 79.8486 80.1715C78.0768 80.7562 70.5175 83.4456 62.6037 86.4858C62.8029 87.3402 63.0207 88.25 63.2493 89.2047L63.2506 89.2103L63.2508 89.2111C63.8353 91.6524 64.4902 94.3877 65.0841 97.2436H69.1001ZM59.5327 87.6552C49.9654 91.397 40.5162 95.2558 40.5162 96.3082C40.5162 97.8136 50.7111 97.5988 61.6923 97.3673L62.0132 97.3606C61.5534 95.41 61.0572 93.5318 60.5853 91.746L60.585 91.7449L60.5849 91.7442L60.5846 91.7433L60.5843 91.742C60.2079 90.3175 59.8471 88.9518 59.5327 87.6552ZM92.5981 6.38673C94.8423 6.38673 96.2597 10.1286 96.2597 12.5841C96.2597 26.0436 89.9493 25.8 87.2489 25.6958C87.0403 25.6878 86.8532 25.6806 86.6923 25.6806C86.6923 25.6806 89.7633 23.5758 89.7633 20.3017C89.7633 19.6001 89.4976 18.8693 89.2318 18.1384C88.966 17.4076 88.7003 16.6768 88.7003 15.9752C88.7003 14.9228 89.2908 14.4551 89.9995 14.4551C90.472 14.4551 90.9445 14.572 90.9445 14.572V14.6889C90.472 14.6889 89.5271 14.8059 89.5271 15.8583C89.5271 16.3745 89.9415 16.9364 90.4045 17.564C90.99 18.3578 91.6532 19.2568 91.6532 20.3017C91.6532 21.471 91.2988 21.9387 91.2988 21.9387C92.0075 21.9387 95.3147 18.3138 95.3147 12.2333C95.3147 8.95924 93.6611 7.55605 92.9524 7.55605C92.3618 7.55605 92.7162 10.1286 92.7162 10.1286C92.7162 10.1286 90.7082 6.38673 92.5981 6.38673ZM56.1048 52.9265C42.5215 56.4344 37.7969 68.8293 37.7969 77.7161C37.7969 77.7161 38.9781 58.0715 60.1207 58.0715C65.1084 58.0715 68.8824 58.173 71.6444 58.2474H71.645C76.1427 58.3684 77.9561 58.4172 77.9561 57.8376V57.6038V57.3699C77.9561 49.6524 61.6562 39.0115 45.7106 39.0115C18.3079 39.0115 0 52.1079 0 52.8095C0 52.8095 12.5202 44.6243 37.6788 44.6243C43.3483 44.6243 48.6635 45.5597 53.5062 46.846C28.3477 48.3661 18.8984 65.2044 18.8984 70.3494C18.8984 70.3537 18.9061 70.3337 18.9224 70.291C19.345 69.1864 25.5653 52.9265 54.4512 52.9265H56.1048ZM188.916 100.752C188.562 101.337 188.326 101.687 188.09 101.687C186.79 101.687 186.082 101.337 186.2 100.752C186.2 100.635 186.79 100.05 188.09 99.1149L188.798 98.5303C189.271 98.1795 189.625 97.9456 189.743 97.9456C189.743 97.9456 189.861 97.9456 189.861 98.0625L189.507 99.4657C189.507 99.6996 189.271 100.167 188.916 100.752ZM241.361 108.586C241.479 108.352 241.715 108.235 241.833 108.352C241.871 108.39 241.909 108.415 241.939 108.429C241.859 108.719 241.381 109.395 240.416 110.457C238.762 112.445 237.345 113.38 236.163 113.38C235.337 113.38 234.746 113.029 234.392 112.328L232.738 113.965C231.675 114.9 230.376 115.368 229.077 115.368C228.368 115.368 227.659 115.134 227.187 114.783C226.242 114.199 225.769 113.146 225.769 111.626C225.769 111.127 225.856 110.713 225.954 110.238C225.971 110.157 225.988 110.074 226.006 109.989C225.334 110.654 224.43 111.472 223.355 112.445L223.34 112.458L223.136 112.643C222.955 112.806 222.77 112.974 222.58 113.146C220.572 114.9 219.273 115.953 218.446 116.42C216.084 121.215 214.548 124.255 213.722 125.541C211.595 128.581 209.469 130.102 207.461 130.102C207.225 130.102 206.989 130.102 206.635 129.985C205.217 129.634 204.509 128.932 204.509 127.763C204.509 126.594 205.335 125.19 206.753 123.553C208.288 121.916 211.359 119.461 216.084 116.42C218.092 112.328 219.391 109.054 220.218 106.715C218.682 108.586 217.619 109.872 216.911 110.574C214.43 113.263 212.422 114.666 210.887 114.666C210.414 114.666 209.942 114.549 209.469 114.315C208.997 113.965 208.524 113.614 208.17 113.146C207.816 112.679 207.58 112.211 207.58 111.626V111.275L207.461 111.392C206.28 112.562 205.335 113.497 204.272 114.199C203.327 114.9 202.264 115.251 201.319 115.251C200.374 115.251 199.666 115.017 199.311 114.666C198.957 114.316 198.721 113.731 198.721 113.146C198.721 112.562 198.721 111.977 198.839 111.392C198.85 111.34 198.86 111.287 198.871 111.233C198.98 110.682 199.107 110.043 199.43 109.405C199.902 108.235 200.374 107.3 200.729 106.598C200.829 106.399 200.92 106.228 200.999 106.08C201.198 105.707 201.319 105.479 201.319 105.312C201.319 105.078 201.201 104.961 200.965 104.961C200.493 104.961 199.666 105.546 198.367 106.598C197.54 107.417 196.24 108.937 194.587 111.158C192.933 113.38 191.988 114.55 191.752 114.666C190.689 115.134 190.098 115.368 189.862 115.368C189.626 115.368 189.508 115.368 189.508 115.251C189.508 115.193 189.537 115.134 189.567 115.076C189.596 115.017 189.626 114.959 189.626 114.9C189.744 114.783 189.98 114.082 190.453 112.679C190.692 112.206 190.877 111.679 191.081 111.1C191.179 110.82 191.282 110.528 191.398 110.223C191.28 110.398 191.103 110.574 190.911 110.764C190.719 110.954 190.512 111.159 190.335 111.392C188.563 113.263 187.027 114.433 185.846 114.9C185.138 115.134 184.547 115.251 184.075 115.251C182.893 115.251 182.185 114.783 181.83 113.731C181.712 113.497 181.712 113.263 181.712 113.03C181.712 111.977 182.067 110.574 183.012 108.586C182.893 108.82 182.657 109.288 182.067 109.872C181.878 110.121 181.657 110.369 181.42 110.635C181.21 110.87 180.989 111.118 180.767 111.392C178.996 113.263 177.46 114.433 176.279 114.9C174.98 115.251 174.035 115.368 173.444 115.017C172.854 114.666 172.499 114.316 172.381 113.848C172.361 113.768 172.341 113.691 172.321 113.616C172.226 113.256 172.145 112.949 172.145 112.562C172.145 111.275 172.499 109.989 172.972 108.703C173.444 107.417 173.799 106.481 174.153 106.013C173.09 106.481 172.145 106.949 171.436 107.651C170.373 108.586 169.428 109.521 168.72 110.223L167.893 111.158C167.657 111.743 167.184 112.094 166.594 112.211C165.885 112.328 165.649 112.094 165.649 111.626C165.649 111.158 166.239 109.989 167.184 108.118L167.185 108.117C168.129 106.247 168.601 105.312 168.601 105.078C168.601 104.844 168.483 104.727 168.247 104.727C167.775 104.727 166.83 105.312 165.53 106.481C164.704 107.3 163.404 108.82 161.751 111.042C160.097 113.263 159.152 114.433 158.916 114.55C157.853 115.017 157.262 115.251 157.026 115.251C156.79 115.251 156.672 115.251 156.672 115.134C156.672 115.017 156.672 114.9 156.79 114.783C156.908 114.55 157.735 112.211 159.388 107.534L159.388 107.534C159.034 108.118 158.68 108.586 158.325 108.937C158.122 109.205 157.841 109.512 157.505 109.879L157.505 109.879C157.255 110.152 156.974 110.459 156.672 110.808C155.254 112.211 154.31 113.146 153.601 113.614C152.302 114.55 151.002 115.017 149.939 115.017C148.876 115.017 148.168 114.55 147.813 113.497C147.695 113.146 147.695 112.795 147.695 112.328C147.695 111.042 148.049 109.755 148.522 108.352C148.436 108.352 148.16 108.664 147.65 109.242L147.65 109.242L147.649 109.243C147.461 109.457 147.241 109.706 146.986 109.989C146.041 111.042 144.978 112.094 143.797 113.029C142.616 113.965 141.435 114.433 140.49 114.433C140.018 114.433 139.545 114.316 139.073 114.082C138.6 113.731 138.128 113.38 137.773 112.912C137.419 112.445 137.183 111.977 137.183 111.392V111.042L137.065 111.158C136.002 112.328 134.939 113.263 133.994 113.965C133.167 114.666 132.222 115.017 131.277 115.017C129.151 115.017 128.088 114.082 128.088 111.977V111.743C128.206 109.755 129.151 106.832 131.041 102.973C132.931 98.9975 134.584 96.0742 136.12 94.0863L137.419 92.4493C137.655 92.0985 138.128 91.6308 138.718 91.163C139.781 90.1107 140.962 89.6429 142.144 89.6429C143.325 89.6429 144.034 89.9937 144.506 90.6953C144.624 90.9292 144.742 91.28 144.742 91.7477C144.742 92.2154 144.624 92.917 144.152 93.7355C141.317 98.6467 136.828 103.675 130.568 108.82C130.536 108.906 130.504 108.988 130.474 109.068L130.472 109.075C130.172 109.863 129.978 110.373 129.978 110.691V111.977C129.978 112.562 130.214 113.029 130.45 113.497C130.923 114.199 131.749 114.199 132.813 113.614C133.639 113.146 134.702 112.328 136.002 111.158L137.891 109.288C138.482 108.352 139.191 107.417 140.254 106.481C141.553 105.429 142.852 104.493 144.152 103.675C145.451 102.973 146.514 102.505 147.341 102.272C148.049 102.155 148.876 102.038 149.585 102.038C150.294 102.038 151.002 102.272 151.475 102.622C152.065 102.973 152.302 103.324 152.302 103.792V104.026C152.302 104.098 152.256 104.081 152.194 104.057C152.156 104.043 152.11 104.026 152.065 104.026C151.711 103.441 151.002 103.207 149.939 103.207C148.876 103.207 147.695 103.558 146.396 104.259C145.097 104.961 143.797 105.78 142.616 106.832C141.671 107.651 140.726 108.703 140.018 109.872C139.309 110.925 138.955 111.86 138.955 112.328C138.955 113.38 139.191 113.848 139.781 113.848C140.372 113.848 141.317 113.38 142.498 112.445C142.86 112.131 143.204 111.835 143.53 111.555L143.532 111.553C144.906 110.372 145.941 109.481 146.514 108.82C146.974 108.344 147.393 107.908 147.773 107.513C149.539 105.678 150.454 104.727 150.648 104.727C151.002 104.727 151.357 104.727 151.829 104.961C152.302 105.195 152.42 105.429 152.302 105.663C150.884 107.651 150.057 109.638 149.821 111.626V112.562C149.821 112.912 149.939 113.263 150.175 113.497C150.648 113.965 151.239 113.965 151.947 113.614C152.656 113.263 153.719 112.444 155.019 111.275C155.963 110.34 156.79 109.521 157.499 108.703C157.499 108.644 157.528 108.615 157.558 108.586C157.587 108.557 157.617 108.528 157.617 108.469C158.798 106.949 159.743 105.546 160.333 104.376C160.57 103.324 160.924 102.739 161.396 102.622C161.751 102.505 162.105 102.505 162.459 102.622C162.814 102.739 163.05 102.973 163.05 103.207C163.05 103.441 162.932 103.792 162.578 104.493C162.544 104.577 162.496 104.694 162.434 104.844L162.433 104.845C162.061 105.747 161.194 107.852 159.979 111.158C160.924 109.989 162.223 108.586 163.759 106.949C166.83 103.792 168.956 102.155 170.137 102.155C170.373 102.155 170.609 102.272 170.846 102.388C171.082 102.505 171.2 102.856 171.2 103.324C171.2 103.792 171.082 104.376 170.728 104.961C170.373 105.546 170.019 106.364 169.665 107.183C169.31 107.796 169.089 108.278 168.951 108.58L168.95 108.58C168.904 108.681 168.867 108.761 168.838 108.82C171.2 106.715 172.972 105.429 174.153 104.961C175.334 104.493 176.161 104.259 176.515 104.259C176.87 104.259 177.106 104.493 177.106 104.727C177.106 104.844 176.988 105.312 176.515 105.897C176.043 106.481 175.57 107.417 175.098 108.703C174.625 109.872 174.271 110.808 174.271 111.275C174.153 111.743 174.153 112.211 174.153 112.562C174.153 112.912 174.271 113.263 174.507 113.497C174.98 113.965 175.57 113.965 176.279 113.614C176.988 113.263 178.051 112.445 179.35 111.275C180.059 110.691 180.649 110.106 181.122 109.521C182.421 108.001 183.484 106.598 184.193 105.546C184.193 105.312 184.193 105.195 184.311 104.961C184.783 103.441 185.256 102.622 185.728 102.505H185.964C186.673 102.505 187.146 102.739 187.264 103.207C187.264 103.441 187.264 103.675 187.146 103.909C187.027 104.143 186.909 104.376 186.909 104.493C186.909 104.552 186.88 104.61 186.85 104.669C186.821 104.727 186.791 104.786 186.791 104.844C186.555 105.195 186.437 105.429 186.319 105.663C184.783 108.82 183.956 110.808 183.838 111.626V112.562C183.838 112.912 183.956 113.263 184.193 113.497C184.547 113.965 185.138 113.965 185.846 113.614C186.555 113.263 187.618 112.445 188.917 111.275C190.217 110.106 191.28 108.937 192.106 107.884C192.697 106.364 193.051 105.429 193.169 105.078C193.201 104.984 193.233 104.899 193.262 104.82L193.262 104.819C193.342 104.602 193.406 104.431 193.406 104.259C193.406 104.123 193.446 103.986 193.48 103.872C193.504 103.792 193.524 103.723 193.524 103.675C193.583 103.558 193.642 103.47 193.701 103.383L193.701 103.382C193.76 103.294 193.819 103.207 193.878 103.09C193.996 102.856 194.233 102.739 194.469 102.739C194.705 102.739 195.059 102.739 195.414 102.856C195.768 102.856 196.004 103.09 196.004 103.324C196.004 103.558 195.886 103.909 195.532 104.61C195.498 104.693 195.45 104.81 195.389 104.959L195.388 104.961C195.016 105.863 194.148 107.968 192.933 111.275C193.878 110.106 195.177 108.703 196.713 107.066C198.248 105.429 199.548 104.259 200.611 103.441C201.674 102.622 202.501 102.272 203.209 102.272C203.8 102.272 204.154 102.622 204.154 103.324C204.154 104.026 203.8 104.961 203.209 106.13C202.876 106.789 202.581 107.411 202.323 107.954C202.124 108.374 201.947 108.747 201.792 109.054C201.201 110.34 200.965 111.275 200.965 112.094C200.965 112.912 201.083 113.38 201.319 113.614C201.792 114.082 202.382 114.082 203.091 113.731C203.8 113.263 204.863 112.562 206.162 111.392C207.107 110.574 207.816 109.872 208.524 109.054C208.761 108.703 208.997 108.352 209.351 108.001L210.769 106.598C212.068 105.546 213.367 104.61 214.666 103.792C215.966 103.09 217.029 102.622 217.856 102.389C218.564 102.272 219.391 102.155 220.1 102.155C220.808 102.155 221.399 102.389 221.99 102.739C222.58 103.09 222.816 103.558 222.816 103.909C222.816 104.143 222.698 104.259 222.462 104.143C222.226 103.558 221.517 103.324 220.454 103.324C219.391 103.324 218.21 103.675 216.911 104.376C215.611 105.078 214.43 105.897 213.367 106.832C212.304 107.767 211.359 108.82 210.651 109.989C209.942 111.158 209.587 111.977 209.587 112.562C209.587 113.497 209.824 113.965 210.414 113.965C211.241 113.965 212.422 113.38 214.076 112.094C216.556 110.223 218.8 108.001 221.045 105.312C221.399 104.727 222.108 104.727 223.289 105.312C223.761 105.546 223.998 105.78 223.879 105.897C223.667 106.388 223.327 107.089 222.884 108.001L222.883 108.004L222.881 108.009C222.587 108.615 222.248 109.314 221.871 110.106C221.476 110.939 221.121 111.669 220.808 112.313C220.374 113.208 220.02 113.938 219.745 114.55C220.381 114.34 221.302 113.566 222.592 112.48C222.741 112.356 222.894 112.227 223.053 112.094C224.588 110.808 225.887 109.404 227.069 108.118C227.305 107.651 227.541 107.183 227.895 106.715C228.486 105.78 229.313 104.844 230.14 104.143C231.557 102.973 232.856 102.389 234.037 102.389C234.274 102.389 234.628 102.389 234.864 102.505C235.691 102.739 236.163 103.207 236.163 104.026C236.163 104.61 236.045 104.961 235.691 104.961C235.573 104.961 235.455 104.727 235.455 104.376C235.455 103.909 235.219 103.675 234.628 103.675C233.683 103.675 232.384 104.61 230.848 106.364C229.313 108.118 228.486 109.989 228.132 111.743C228.013 112.094 228.013 112.445 228.013 112.796C228.013 113.146 228.132 113.614 228.368 114.082C228.604 114.55 229.077 114.783 229.785 114.783C230.494 114.783 231.203 114.433 232.029 113.848C232.738 113.263 233.565 112.445 234.155 111.509L234.037 111.275C233.919 110.808 233.919 110.457 234.155 110.223C234.274 109.989 234.628 109.872 234.982 109.989C235.455 108.937 235.691 108.235 235.691 107.651C235.691 107.066 235.573 106.715 235.455 106.364C235.337 106.013 235.337 105.78 235.573 105.546C235.809 105.312 236.163 105.312 236.518 105.312C237.108 105.429 237.345 106.13 237.345 107.183C237.345 108.235 236.636 109.755 235.337 111.509C235.337 112.328 235.809 112.679 236.518 112.679C237.226 112.679 238.408 111.86 239.943 110.223C240.482 109.69 240.82 109.256 241.056 108.953C241.181 108.792 241.278 108.667 241.361 108.586ZM241.939 108.429C241.944 108.411 241.947 108.394 241.949 108.379C241.95 108.376 241.95 108.372 241.95 108.369C241.951 108.363 241.951 108.357 241.951 108.352C242.031 108.431 242.003 108.457 241.939 108.429ZM141.553 91.7477C139.309 93.5017 137.183 96.1911 135.057 99.933C133.403 102.973 132.104 105.546 131.277 107.417C133.285 106.13 135.411 104.026 137.773 101.102C140.254 98.179 142.026 95.6065 143.207 93.2678C143.561 92.6832 143.679 92.2154 143.679 91.8646C143.679 91.28 143.443 91.0461 142.97 91.0461C142.616 91.0461 142.144 91.28 141.553 91.7477ZM214.076 120.981L214.785 119.578C215.073 119.007 215.205 118.59 215.308 118.266L215.308 118.266C215.32 118.228 215.331 118.191 215.343 118.156C215.354 118.122 215.364 118.089 215.375 118.057C212.068 120.63 209.587 122.618 208.17 124.021C206.753 125.424 206.044 126.827 206.044 128.114C206.044 128.464 206.162 128.815 206.398 128.932C206.635 129.049 206.989 129.166 207.225 129.166C207.461 129.166 207.816 129.049 208.406 128.581C208.997 128.231 209.469 127.763 209.824 127.412C209.986 127.198 210.149 127.008 210.3 126.831L210.3 126.831L210.301 126.83L210.302 126.829C210.479 126.622 210.641 126.432 210.769 126.243C210.86 126.107 210.969 125.972 211.088 125.823C211.278 125.586 211.496 125.315 211.714 124.957C212.068 124.372 212.304 124.021 212.54 123.67C212.777 123.436 213.013 122.969 213.367 122.267C213.721 121.683 213.958 121.215 214.076 120.981ZM94.1344 11.5318C94.1344 12.113 93.9229 12.5842 93.662 12.5842C93.4011 12.5842 93.1895 12.113 93.1895 11.5318C93.1895 10.9506 93.4011 10.4794 93.662 10.4794C93.9229 10.4794 94.1344 10.9506 94.1344 11.5318ZM129.006 132.339C129.006 131.8 129.074 131.316 129.211 130.889C129.357 130.461 129.558 130.097 129.814 129.798C130.071 129.49 130.379 129.259 130.738 129.105C131.106 128.942 131.517 128.861 131.971 128.861C132.356 128.861 132.702 128.934 133.01 129.079C133.327 129.216 133.605 129.396 133.844 129.618H133.87C133.861 129.498 133.853 129.374 133.844 129.246V128.938V126.371H132.818V125.794H135.038V134.713H136.065V135.29H133.857V134.097H133.831C133.72 134.259 133.588 134.422 133.434 134.585C133.28 134.739 133.104 134.88 132.907 135.008C132.711 135.136 132.488 135.239 132.24 135.316C132 135.393 131.74 135.432 131.457 135.432C131.055 135.432 130.7 135.355 130.392 135.201C130.092 135.047 129.84 134.833 129.635 134.559C129.429 134.277 129.271 133.947 129.16 133.571C129.057 133.194 129.006 132.784 129.006 132.339ZM133.857 130.337C133.772 130.26 133.677 130.183 133.575 130.106C133.472 130.029 133.352 129.96 133.215 129.9C133.079 129.832 132.925 129.776 132.753 129.734C132.582 129.691 132.39 129.669 132.176 129.669C131.791 129.669 131.474 129.751 131.226 129.913C130.987 130.067 130.794 130.273 130.649 130.529C130.503 130.786 130.401 131.077 130.341 131.402C130.289 131.718 130.264 132.035 130.264 132.352C130.264 132.565 130.285 132.801 130.328 133.057C130.371 133.306 130.452 133.537 130.572 133.75C130.7 133.964 130.871 134.144 131.085 134.289C131.299 134.435 131.573 134.508 131.906 134.508C132.095 134.508 132.3 134.478 132.522 134.418C132.753 134.349 132.967 134.251 133.164 134.123C133.361 133.994 133.523 133.832 133.652 133.635C133.789 133.438 133.857 133.207 133.857 132.942V130.337ZM126.338 134.572C126.278 134.666 126.167 134.713 126.005 134.713H125.53V135.29H128.52V134.713H127.622V129.002H125.401V129.58H126.428V134.071C126.428 134.302 126.398 134.469 126.338 134.572ZM126.377 126.589C126.223 126.743 126.146 126.932 126.146 127.154C126.146 127.359 126.223 127.539 126.377 127.693C126.531 127.847 126.711 127.924 126.916 127.924C127.138 127.924 127.327 127.847 127.481 127.693C127.635 127.539 127.712 127.359 127.712 127.154C127.712 126.932 127.635 126.743 127.481 126.589C127.327 126.435 127.138 126.358 126.916 126.358C126.711 126.358 126.531 126.435 126.377 126.589ZM109.176 134.572C109.116 134.666 109.005 134.713 108.843 134.713H108.368V135.29H111.448V134.713H110.46V131.607C110.46 131.128 110.609 130.756 110.909 130.491C111.208 130.226 111.623 130.093 112.154 130.093H112.719V128.861C112.462 128.861 112.235 128.891 112.038 128.951C111.842 129.002 111.658 129.088 111.486 129.207C111.315 129.327 111.148 129.485 110.986 129.682C110.832 129.879 110.661 130.119 110.473 130.401H110.447V129.002H108.239V129.58H109.266V134.071C109.266 134.302 109.236 134.469 109.176 134.572ZM113.341 130.812C113.187 131.214 113.11 131.671 113.11 132.185C113.11 132.767 113.196 133.263 113.367 133.673C113.547 134.084 113.782 134.422 114.073 134.687C114.364 134.944 114.693 135.132 115.061 135.252C115.429 135.372 115.805 135.432 116.191 135.432C116.738 135.432 117.23 135.325 117.666 135.111C118.111 134.897 118.496 134.597 118.821 134.212L118.398 133.789C118.099 134.14 117.778 134.388 117.435 134.533C117.102 134.679 116.751 134.751 116.383 134.751C115.981 134.751 115.647 134.666 115.382 134.495C115.125 134.324 114.92 134.11 114.766 133.853C114.62 133.596 114.518 133.318 114.458 133.019C114.398 132.719 114.368 132.441 114.368 132.185H118.886V131.633C118.886 131.291 118.839 130.953 118.744 130.619C118.659 130.285 118.509 129.99 118.295 129.734C118.09 129.468 117.812 129.259 117.461 129.105C117.11 128.942 116.678 128.861 116.165 128.861C115.737 128.861 115.339 128.938 114.971 129.092C114.603 129.246 114.278 129.468 113.996 129.759C113.722 130.05 113.504 130.401 113.341 130.812ZM117.281 130.003C117.53 130.38 117.658 130.901 117.666 131.569H114.407C114.432 131.227 114.501 130.923 114.612 130.658C114.723 130.392 114.856 130.17 115.01 129.99C115.172 129.811 115.352 129.674 115.549 129.58C115.754 129.485 115.959 129.438 116.165 129.438C116.661 129.438 117.033 129.627 117.281 130.003ZM119.586 133.571H120.561V133.712C120.561 133.917 120.604 134.093 120.689 134.238C120.783 134.384 120.903 134.503 121.049 134.597C121.203 134.683 121.378 134.747 121.575 134.79C121.78 134.833 121.994 134.854 122.216 134.854C122.482 134.854 122.708 134.824 122.897 134.764C123.085 134.704 123.239 134.627 123.359 134.533C123.478 134.431 123.564 134.319 123.615 134.2C123.675 134.08 123.705 133.956 123.705 133.827C123.705 133.554 123.603 133.331 123.397 133.16C123.192 132.989 122.82 132.826 122.281 132.672L121.523 132.454C121.181 132.352 120.895 132.24 120.664 132.121C120.441 132.001 120.261 131.868 120.125 131.723C119.988 131.569 119.889 131.398 119.829 131.209C119.769 131.021 119.74 130.812 119.74 130.581C119.74 130.341 119.791 130.119 119.894 129.913C119.996 129.699 120.146 129.515 120.343 129.361C120.548 129.207 120.8 129.088 121.1 129.002C121.399 128.908 121.746 128.861 122.139 128.861C122.43 128.861 122.7 128.891 122.948 128.951C123.196 129.002 123.414 129.071 123.603 129.156C123.799 129.233 123.966 129.319 124.103 129.413C124.249 129.498 124.355 129.575 124.424 129.644V130.619H123.449V130.478C123.449 130.29 123.41 130.131 123.333 130.003C123.256 129.875 123.153 129.768 123.025 129.682C122.897 129.597 122.743 129.537 122.563 129.503C122.392 129.46 122.204 129.438 121.998 129.438C121.75 129.438 121.549 129.473 121.395 129.541C121.241 129.61 121.117 129.695 121.023 129.798C120.929 129.892 120.865 129.999 120.83 130.119C120.796 130.23 120.779 130.337 120.779 130.439C120.779 130.696 120.873 130.91 121.061 131.081C121.25 131.244 121.549 131.385 121.96 131.505L122.756 131.736C123.166 131.855 123.5 131.979 123.757 132.108C124.022 132.228 124.227 132.364 124.373 132.518C124.527 132.664 124.629 132.831 124.681 133.019C124.732 133.199 124.758 133.404 124.758 133.635C124.758 133.866 124.698 134.093 124.578 134.315C124.467 134.529 124.3 134.721 124.077 134.893C123.855 135.055 123.581 135.188 123.256 135.29C122.939 135.385 122.58 135.432 122.178 135.432C121.588 135.432 121.07 135.337 120.625 135.149C120.18 134.961 119.834 134.76 119.586 134.546V133.571ZM136.748 130.812C136.594 131.214 136.517 131.671 136.517 132.185C136.517 132.767 136.603 133.263 136.774 133.673C136.954 134.084 137.189 134.422 137.48 134.687C137.771 134.944 138.1 135.132 138.468 135.252C138.836 135.372 139.213 135.432 139.598 135.432C140.145 135.432 140.637 135.325 141.073 135.111C141.518 134.897 141.903 134.597 142.229 134.212L141.805 133.789C141.506 134.14 141.185 134.388 140.842 134.533C140.509 134.679 140.158 134.751 139.79 134.751C139.388 134.751 139.054 134.666 138.789 134.495C138.532 134.324 138.327 134.11 138.173 133.853C138.028 133.596 137.925 133.318 137.865 133.019C137.805 132.719 137.775 132.441 137.775 132.185H142.293V131.633C142.293 131.291 142.246 130.953 142.152 130.619C142.066 130.285 141.916 129.99 141.702 129.734C141.497 129.468 141.219 129.259 140.868 129.105C140.517 128.942 140.085 128.861 139.572 128.861C139.144 128.861 138.746 128.938 138.378 129.092C138.01 129.246 137.685 129.468 137.403 129.759C137.129 130.05 136.911 130.401 136.748 130.812ZM140.688 130.003C140.937 130.38 141.065 130.901 141.073 131.569H137.814C137.839 131.227 137.908 130.923 138.019 130.658C138.13 130.392 138.263 130.17 138.417 129.99C138.579 129.811 138.759 129.674 138.956 129.58C139.161 129.485 139.367 129.438 139.572 129.438C140.068 129.438 140.44 129.627 140.688 130.003ZM143.339 134.713C143.502 134.713 143.613 134.666 143.673 134.572C143.733 134.469 143.763 134.302 143.763 134.071V129.58H142.736V129.002H144.943V130.273H144.969C145.106 130.084 145.264 129.905 145.444 129.734C145.632 129.562 145.833 129.413 146.047 129.284C146.27 129.156 146.505 129.053 146.753 128.976C147.001 128.899 147.253 128.861 147.51 128.861C147.827 128.861 148.096 128.912 148.319 129.015C148.55 129.109 148.738 129.246 148.883 129.426C149.029 129.597 149.136 129.806 149.204 130.054C149.281 130.294 149.32 130.559 149.32 130.85V134.713H150.218V135.29H147.279V134.713H147.715C147.861 134.713 147.964 134.666 148.024 134.572C148.092 134.469 148.126 134.302 148.126 134.071V131.158C148.126 130.961 148.109 130.782 148.075 130.619C148.041 130.448 147.981 130.303 147.895 130.183C147.818 130.054 147.707 129.956 147.561 129.888C147.416 129.819 147.232 129.785 147.01 129.785C146.804 129.785 146.582 129.819 146.342 129.888C146.103 129.956 145.88 130.059 145.675 130.196C145.47 130.332 145.298 130.504 145.162 130.709C145.025 130.906 144.956 131.137 144.956 131.402V134.713H145.803V135.29H142.864V134.713H143.339ZM150.909 130.735C150.746 131.154 150.665 131.654 150.665 132.236C150.665 132.801 150.75 133.284 150.922 133.686C151.093 134.088 151.315 134.418 151.589 134.674C151.871 134.931 152.192 135.124 152.552 135.252C152.919 135.372 153.296 135.432 153.681 135.432C153.972 135.432 154.241 135.397 154.489 135.329C154.746 135.26 154.977 135.171 155.182 135.059C155.388 134.94 155.567 134.807 155.722 134.662C155.884 134.516 156.025 134.371 156.145 134.225L155.709 133.815C155.461 134.097 155.195 134.324 154.913 134.495C154.639 134.666 154.297 134.751 153.886 134.751C153.527 134.751 153.223 134.683 152.975 134.546C152.727 134.401 152.522 134.212 152.359 133.981C152.205 133.75 152.094 133.485 152.025 133.186C151.957 132.878 151.923 132.557 151.923 132.223C151.923 131.864 151.953 131.517 152.012 131.184C152.072 130.842 152.171 130.542 152.308 130.285C152.453 130.029 152.641 129.823 152.872 129.669C153.103 129.515 153.386 129.438 153.719 129.438C153.865 129.438 154.01 129.456 154.156 129.49C154.31 129.524 154.447 129.592 154.566 129.695C154.686 129.789 154.785 129.922 154.862 130.093C154.939 130.255 154.977 130.469 154.977 130.735V130.901H155.991V129.785C155.905 129.682 155.794 129.575 155.657 129.464C155.52 129.353 155.358 129.254 155.17 129.169C154.981 129.075 154.772 129.002 154.541 128.951C154.31 128.891 154.057 128.861 153.784 128.861C153.364 128.861 152.966 128.929 152.59 129.066C152.214 129.195 151.88 129.4 151.589 129.682C151.307 129.956 151.08 130.307 150.909 130.735ZM156.661 132.185C156.661 131.671 156.738 131.214 156.892 130.812C157.054 130.401 157.273 130.05 157.546 129.759C157.829 129.468 158.154 129.246 158.522 129.092C158.89 128.938 159.287 128.861 159.715 128.861C160.229 128.861 160.661 128.942 161.012 129.105C161.362 129.259 161.64 129.468 161.846 129.734C162.06 129.99 162.209 130.285 162.295 130.619C162.389 130.953 162.436 131.291 162.436 131.633V132.185H157.919C157.919 132.441 157.948 132.719 158.008 133.019C158.068 133.318 158.171 133.596 158.316 133.853C158.47 134.11 158.676 134.324 158.932 134.495C159.198 134.666 159.531 134.751 159.933 134.751C160.301 134.751 160.652 134.679 160.986 134.533C161.328 134.388 161.649 134.14 161.948 133.789L162.372 134.212C162.047 134.597 161.662 134.897 161.217 135.111C160.781 135.325 160.289 135.432 159.741 135.432C159.356 135.432 158.979 135.372 158.612 135.252C158.244 135.132 157.914 134.944 157.623 134.687C157.332 134.422 157.097 134.084 156.917 133.673C156.746 133.263 156.661 132.767 156.661 132.185ZM161.217 131.569C161.208 130.901 161.08 130.38 160.832 130.003C160.584 129.627 160.212 129.438 159.715 129.438C159.51 129.438 159.305 129.485 159.099 129.58C158.902 129.674 158.723 129.811 158.56 129.99C158.406 130.17 158.274 130.392 158.162 130.658C158.051 130.923 157.983 131.227 157.957 131.569H161.217ZM140.872 83.4436C138.774 83.3262 135.51 82.974 131.197 82.2696C126.884 81.5653 123.271 81.2131 120.357 81.2131C114.995 81.2131 110.449 82.1523 106.719 84.0305C103.572 85.5566 101.707 87.787 101.124 90.6044C101.124 90.7016 101.104 90.7988 101.081 90.9127C101.048 91.0738 101.008 91.2684 101.008 91.5435C100.775 92.013 100.658 92.7174 100.658 93.4217C100.658 94.1261 101.124 95.0652 102.057 96.2391C102.989 97.2956 104.155 98.1173 105.554 98.4695C105.612 98.4695 105.7 98.4989 105.787 98.5282C105.874 98.5575 105.962 98.5869 106.02 98.5869C106.092 98.5869 106.164 98.5421 106.264 98.4801C106.325 98.4418 106.397 98.397 106.486 98.3521C106.603 98.2347 106.603 98.1173 106.37 97.8825C106.137 97.6478 105.67 97.413 104.971 97.0608C104.272 96.7086 103.805 96.3565 103.456 96.0043C103.106 95.7695 102.873 95.3 102.64 94.8304C102.407 94.3608 102.29 93.8913 102.29 93.6565C102.29 93.3044 102.29 93.0695 102.407 92.8348C102.989 90.487 104.621 88.4913 107.419 86.8479C110.216 85.3218 113.596 84.2653 117.443 83.6783C118.492 83.4436 119.891 83.3262 121.756 83.3262C123.621 83.3262 126.418 83.4436 130.148 83.7957C133.878 84.1479 136.326 84.2653 137.608 84.2653C137.608 84.2653 139.589 84.2653 140.172 84.1479C140.988 83.9131 140.872 83.4436 140.872 83.4436ZM110.566 112.556C110.682 111.265 112.198 107.743 115.345 101.874C121.337 101.239 122.115 100.985 123.834 100.425L123.836 100.424L123.839 100.424C124.024 100.363 124.221 100.299 124.437 100.23C125.369 99.8783 125.719 99.6435 125.719 99.4087C125.719 99.3361 125.674 99.3084 125.613 99.2701C125.575 99.2465 125.53 99.2188 125.486 99.1739C125.369 99.0565 125.253 99.0565 125.019 99.0565H123.854C123.7 99.0565 123.7 99.0402 123.701 99.0269C123.702 98.9898 123.702 98.9768 120.357 99.4087C119.097 99.6202 117.931 99.7365 116.86 99.8433C116.742 99.855 116.626 99.8667 116.51 99.8783C120.94 92.1305 124.553 88.2566 127.117 88.2566C127.351 88.2566 127.584 88.374 127.817 88.4914C127.933 87.7871 127.584 87.0827 126.651 86.6132C125.835 86.1436 125.019 85.9088 124.437 85.9088C123.038 85.9088 121.639 86.7306 119.891 88.4914C118.259 90.2523 117.326 91.5436 117.093 92.7175C117.21 92.9522 117.21 93.187 117.21 93.5392C117.21 93.8914 116.86 94.7131 116.277 95.887C115.999 96.4471 115.668 97.0607 115.322 97.7022C114.942 98.4051 114.545 99.1418 114.179 99.8783H114.063C113.994 99.8783 113.924 99.795 113.806 99.6544C113.725 99.558 113.622 99.4343 113.48 99.2913C113.13 98.9391 112.78 98.7044 112.431 98.7044C111.965 98.7044 111.382 98.9391 110.566 99.2913C109.75 99.6435 109.4 100.113 109.4 100.583C109.4 101.052 109.517 101.404 109.866 101.639C110.216 101.874 110.566 102.109 111.032 102.109C111.498 102.109 112.198 102.109 113.13 101.991C109.75 108.565 108.118 112.674 108.118 114.552V115.022C108.118 115.121 108.369 115.221 108.8 115.391L108.805 115.393L108.92 115.439C108.962 115.456 109.006 115.473 109.051 115.491C110.117 115.882 110.458 113.916 110.609 113.041C110.64 112.865 110.663 112.733 110.682 112.674L110.566 112.556Z" fill="url(#paint0_linear_243_600)"/>
<defs>
<linearGradient id="paint0_linear_243_600" x1="275.442" y1="109.32" x2="-18.3841" y2="73.1893" gradientUnits="userSpaceOnUse">
<stop stop-color="#A76F2A"/>
<stop offset="0.398007" stop-color="#E2B855"/>
<stop offset="0.958884" stop-color="#8F5E21"/>
</linearGradient>
</defs>
</svg>
