<svg width="422" height="270" viewBox="0 0 422 270" fill="none" xmlns="http://www.w3.org/2000/svg">
<path fill-rule="evenodd" clip-rule="evenodd" d="M120.266 169.018C128.694 169.018 141.029 169.631 147.607 173.514C158.914 180.259 167.137 196.813 167.137 196.813C167.137 196.813 155.83 179.85 146.168 175.763C140.001 173.106 123.966 172.697 114.099 172.901C118.416 191.704 122.527 212.141 122.527 221.543L122.527 222.016C122.535 230.277 122.554 249.719 102.998 269.162L102.381 268.549C119.654 251.376 119.652 235.202 119.649 222.001L119.649 221.543C119.649 213.572 114.51 192.726 109.37 173.31H108.548C107.271 173.36 105.653 173.452 103.795 173.558C90.3989 174.321 64.5551 175.794 64.5551 167.179C64.5551 161.865 83.6735 153.894 102.792 147.968C101.147 141.019 99.914 135.705 99.914 133.457C99.914 123.647 107.109 122.012 114.51 122.012C117.985 122.012 124.528 122.726 130.241 123.349C134.665 123.832 138.591 124.26 140.207 124.26C153.98 124.26 157.886 112.406 157.886 106.684C157.886 94.8395 148.098 84.7938 137.821 74.2465C126.464 62.5903 114.51 50.3213 114.51 34.335C114.51 6.94875 131.778 0 140.001 0C149.458 0 155.83 5.51813 158.708 8.175L158.092 8.78813C156.653 7.76625 150.28 3.47438 142.262 3.47438C129.928 3.47438 120.06 16.1456 120.06 32.4956C120.06 49.6415 132.084 59.9491 143.979 70.1456C155.62 80.1249 167.137 89.9978 167.137 106.071C167.137 125.486 153.158 132.026 141.851 132.026C137.863 132.026 133.919 131.241 129.674 130.397C124.729 129.413 119.376 128.348 113.071 128.348C112.922 128.348 112.762 128.345 112.593 128.342C110.183 128.302 105.876 128.231 105.876 135.296C105.876 136.523 106.698 140.61 107.931 146.128C121.91 142.041 134.656 139.179 138.973 139.179C135.89 140.201 122.733 144.902 108.959 150.216C109.306 151.709 109.685 153.299 110.083 154.968L110.085 154.977L110.086 154.979C111.103 159.246 112.243 164.026 113.276 169.018H120.266ZM103.614 152.259C86.9627 158.799 70.5167 165.544 70.5167 167.383C70.5167 170.014 88.2606 169.639 107.373 169.234L107.931 169.223C107.131 165.813 106.268 162.531 105.446 159.409L105.446 159.407L105.445 159.406L105.445 159.405L105.444 159.402C104.789 156.913 104.161 154.526 103.614 152.259ZM161.163 10.218C165.069 10.218 167.536 16.758 167.536 21.0499C167.536 44.5743 156.553 44.1487 151.853 43.9666C151.49 43.9525 151.165 43.9399 150.884 43.9399C150.884 43.9399 156.229 40.2612 156.229 34.5387C156.229 33.3124 155.767 32.0351 155.304 30.7577C154.842 29.4804 154.379 28.203 154.379 26.9768C154.379 25.1374 155.407 24.3199 156.641 24.3199C157.463 24.3199 158.285 24.5243 158.285 24.5243V24.7287C157.463 24.7287 155.818 24.933 155.818 26.7724C155.818 27.6748 156.54 28.6568 157.345 29.7537C158.364 31.1412 159.519 32.7124 159.519 34.5387C159.519 36.5824 158.902 37.3999 158.902 37.3999C160.135 37.3999 165.891 31.0643 165.891 20.4368C165.891 14.7143 163.013 12.2618 161.78 12.2618C160.752 12.2618 161.369 16.758 161.369 16.758C161.369 16.758 157.874 10.218 161.163 10.218ZM97.6481 91.5604C74.007 97.6917 65.784 119.355 65.784 134.888C65.784 134.888 67.8397 100.553 104.638 100.553C113.319 100.553 119.887 100.73 124.694 100.86H124.695C132.523 101.072 135.679 101.157 135.679 100.144V99.7354V99.3267C135.679 85.8379 107.31 67.2398 79.5575 67.2398C31.8641 67.2398 0 90.1298 0 91.356C0 91.356 21.7909 77.0498 65.5784 77.0498C75.446 77.0498 84.6969 78.6848 93.1254 80.9329C49.338 83.5898 32.892 113.02 32.892 122.012C32.892 122.02 32.9053 121.985 32.9337 121.91C33.6692 119.98 44.4953 91.5604 94.77 91.5604H97.6481ZM328.801 175.15C328.184 176.172 327.773 176.785 327.362 176.785C325.101 176.785 323.867 176.172 324.073 175.15C324.073 174.946 325.101 173.924 327.362 172.289L328.596 171.267C329.418 170.654 330.035 170.245 330.24 170.245C330.24 170.245 330.446 170.245 330.446 170.449L329.829 172.902C329.829 173.311 329.418 174.128 328.801 175.15ZM420.078 188.842C420.284 188.434 420.695 188.229 420.9 188.434C420.966 188.499 421.033 188.544 421.085 188.567C420.946 189.075 420.113 190.257 418.434 192.112C415.556 195.587 413.089 197.222 411.033 197.222C409.594 197.222 408.566 196.609 407.949 195.382L405.071 198.244C403.221 199.879 400.96 200.696 398.698 200.696C397.465 200.696 396.231 200.287 395.409 199.674C393.765 198.652 392.942 196.813 392.942 194.156C392.942 193.283 393.092 192.559 393.264 191.73C393.294 191.589 393.323 191.444 393.353 191.295C392.185 192.456 390.611 193.887 388.74 195.587L388.714 195.611L388.359 195.933C388.044 196.219 387.722 196.512 387.392 196.813C383.897 199.879 381.636 201.718 380.197 202.536C376.085 210.915 373.413 216.229 371.974 218.477C368.273 223.791 364.573 226.447 361.078 226.447C360.667 226.447 360.256 226.447 359.639 226.243C357.172 225.63 355.939 224.404 355.939 222.36C355.939 220.316 357.378 217.864 359.845 215.002C362.517 212.141 367.862 207.849 376.085 202.536C379.58 195.382 381.841 189.66 383.28 185.572C380.608 188.842 378.758 191.09 377.524 192.317C373.207 197.017 369.712 199.47 367.04 199.47C366.218 199.47 365.395 199.265 364.572 198.856C363.75 198.243 362.928 197.63 362.312 196.813C361.695 195.995 361.284 195.178 361.284 194.156V193.543L361.078 193.747C359.022 195.791 357.378 197.426 355.528 198.652C353.883 199.879 352.033 200.492 350.388 200.492C348.744 200.492 347.51 200.083 346.894 199.47C346.277 198.857 345.866 197.835 345.866 196.813C345.866 195.791 345.866 194.769 346.071 193.747C346.09 193.656 346.108 193.563 346.127 193.469C346.317 192.506 346.538 191.39 347.099 190.273C347.921 188.229 348.744 186.594 349.36 185.368C349.535 185.02 349.694 184.722 349.831 184.463C350.177 183.81 350.388 183.413 350.388 183.12C350.388 182.711 350.183 182.507 349.772 182.507C348.949 182.507 347.51 183.529 345.249 185.368C343.81 186.799 341.549 189.456 338.671 193.339C335.792 197.222 334.148 199.266 333.737 199.47C331.887 200.287 330.859 200.696 330.448 200.696C330.036 200.696 329.831 200.696 329.831 200.492C329.831 200.39 329.882 200.287 329.934 200.185C329.985 200.083 330.036 199.981 330.036 199.879C330.242 199.674 330.653 198.448 331.475 195.995C331.891 195.169 332.214 194.249 332.568 193.237C332.74 192.748 332.919 192.236 333.12 191.704C332.914 192.01 332.606 192.317 332.272 192.649C331.938 192.981 331.578 193.339 331.27 193.747C328.186 197.017 325.514 199.061 323.458 199.879C322.225 200.287 321.197 200.492 320.374 200.492C318.319 200.492 317.085 199.674 316.468 197.835C316.263 197.426 316.263 197.018 316.263 196.609C316.263 194.77 316.88 192.317 318.524 188.842C318.319 189.251 317.907 190.069 316.88 191.09C316.552 191.525 316.166 191.959 315.754 192.424C315.389 192.834 315.004 193.268 314.618 193.747C311.535 197.017 308.862 199.061 306.806 199.879C304.545 200.492 302.9 200.696 301.873 200.083C300.845 199.47 300.228 198.857 300.022 198.039C299.987 197.899 299.952 197.765 299.918 197.635C299.752 197.005 299.611 196.468 299.611 195.791C299.611 193.543 300.228 191.295 301.05 189.047C301.873 186.799 302.489 185.164 303.106 184.346C301.256 185.164 299.611 185.981 298.378 187.207C296.528 188.842 294.883 190.477 293.65 191.704L292.211 193.339C291.799 194.361 290.977 194.974 289.949 195.178C288.716 195.382 288.305 194.974 288.305 194.156C288.305 193.339 289.333 191.295 290.977 188.025L290.978 188.023C292.622 184.754 293.444 183.12 293.444 182.711C293.444 182.302 293.238 182.098 292.827 182.098C292.005 182.098 290.36 183.12 288.099 185.164C286.66 186.594 284.399 189.251 281.521 193.134C278.643 197.017 276.998 199.061 276.587 199.266C274.737 200.083 273.709 200.492 273.298 200.492C272.887 200.492 272.681 200.492 272.681 200.287C272.681 200.083 272.681 199.879 272.887 199.674C273.092 199.266 274.531 195.178 277.409 187.004L277.409 187.003C276.792 188.025 276.176 188.842 275.559 189.455C275.205 189.924 274.717 190.46 274.131 191.102L274.13 191.103C273.695 191.58 273.207 192.116 272.681 192.726C270.214 195.178 268.569 196.813 267.336 197.63C265.075 199.265 262.813 200.083 260.963 200.083C259.113 200.083 257.88 199.265 257.263 197.426C257.057 196.813 257.057 196.2 257.057 195.382C257.057 193.134 257.674 190.886 258.496 188.434C258.346 188.434 257.867 188.979 256.979 189.989L256.978 189.99L256.977 189.992C256.649 190.364 256.266 190.8 255.824 191.295C254.179 193.134 252.329 194.974 250.273 196.609C248.218 198.244 246.162 199.061 244.517 199.061C243.695 199.061 242.873 198.857 242.05 198.448C241.228 197.835 240.406 197.222 239.789 196.404C239.172 195.587 238.761 194.769 238.761 193.747V193.134L238.556 193.339C236.705 195.382 234.855 197.017 233.211 198.244C231.772 199.47 230.127 200.083 228.482 200.083C224.782 200.083 222.932 198.448 222.932 194.769V194.361C223.137 190.886 224.782 185.777 228.071 179.032C231.36 172.084 234.238 166.974 236.911 163.5L239.172 160.639C239.583 160.025 240.406 159.208 241.434 158.39C243.284 156.551 245.34 155.734 247.395 155.734C249.451 155.734 250.684 156.347 251.507 157.573C251.712 157.982 251.918 158.595 251.918 159.412C251.918 160.23 251.712 161.456 250.89 162.887C245.956 171.47 238.144 180.259 227.249 189.251C227.192 189.401 227.138 189.546 227.085 189.686L227.08 189.697C226.558 191.075 226.221 191.966 226.221 192.521V194.769C226.221 195.791 226.632 196.608 227.043 197.426C227.866 198.652 229.305 198.652 231.155 197.63C232.594 196.813 234.444 195.382 236.705 193.339L239.995 190.069C241.022 188.434 242.256 186.799 244.106 185.164C246.367 183.324 248.629 181.689 250.89 180.259C253.151 179.032 255.002 178.215 256.441 177.806C257.674 177.602 259.113 177.397 260.346 177.397C261.58 177.397 262.813 177.806 263.636 178.419C264.664 179.032 265.075 179.645 265.075 180.463V180.872C265.075 180.998 264.996 180.968 264.888 180.927C264.821 180.902 264.742 180.872 264.664 180.872C264.047 179.85 262.813 179.441 260.963 179.441C259.113 179.441 257.057 180.054 254.796 181.281C252.535 182.507 250.273 183.937 248.218 185.777C246.573 187.207 244.928 189.047 243.695 191.09C242.461 192.93 241.845 194.565 241.845 195.382C241.845 197.222 242.256 198.039 243.284 198.039C244.312 198.039 245.956 197.222 248.012 195.587C248.642 195.039 249.241 194.521 249.808 194.032L249.812 194.028C252.203 191.964 254.005 190.407 255.002 189.251C255.802 188.419 256.532 187.658 257.193 186.968C260.267 183.759 261.858 182.098 262.197 182.098C262.813 182.098 263.43 182.098 264.252 182.507C265.075 182.916 265.28 183.324 265.075 183.733C262.608 187.207 261.169 190.682 260.758 194.156V195.791C260.758 196.404 260.963 197.017 261.374 197.426C262.197 198.244 263.225 198.244 264.458 197.63C265.691 197.017 267.542 195.586 269.803 193.542C271.448 191.908 272.887 190.477 274.12 189.047C274.12 188.945 274.171 188.893 274.223 188.842C274.274 188.791 274.326 188.74 274.326 188.638C276.381 185.981 278.026 183.529 279.054 181.485C279.465 179.646 280.082 178.624 280.904 178.419C281.521 178.215 282.137 178.215 282.754 178.419C283.371 178.624 283.782 179.032 283.782 179.441C283.782 179.85 283.576 180.463 282.96 181.689C282.901 181.835 282.817 182.04 282.709 182.302L282.709 182.304C282.061 183.881 280.551 187.559 278.437 193.339C280.082 191.295 282.343 188.842 285.015 185.981C290.36 180.463 294.061 177.602 296.117 177.602C296.528 177.602 296.939 177.806 297.35 178.01C297.761 178.215 297.967 178.828 297.967 179.646C297.967 180.463 297.761 181.485 297.144 182.507C296.528 183.529 295.911 184.959 295.294 186.39C294.678 187.462 294.293 188.305 294.052 188.832L294.051 188.833C293.971 189.008 293.907 189.149 293.855 189.251C297.967 185.572 301.05 183.324 303.106 182.507C305.162 181.689 306.601 181.281 307.218 181.281C307.834 181.281 308.245 181.689 308.245 182.098C308.245 182.302 308.04 183.12 307.218 184.142C306.395 185.164 305.573 186.799 304.751 189.047C303.928 191.09 303.312 192.725 303.312 193.543C303.106 194.361 303.106 195.178 303.106 195.791C303.106 196.404 303.312 197.017 303.723 197.426C304.545 198.244 305.573 198.244 306.806 197.63C308.04 197.017 309.89 195.587 312.151 193.543C313.385 192.521 314.413 191.499 315.235 190.477C317.496 187.82 319.346 185.368 320.58 183.529C320.58 183.12 320.58 182.916 320.785 182.507C321.608 179.85 322.43 178.419 323.252 178.215H323.664C324.897 178.215 325.719 178.624 325.925 179.441C325.925 179.85 325.925 180.259 325.719 180.667C325.514 181.076 325.308 181.485 325.308 181.689C325.308 181.791 325.257 181.894 325.205 181.996C325.154 182.098 325.103 182.2 325.103 182.302C324.691 182.915 324.486 183.324 324.28 183.733C321.608 189.251 320.169 192.725 319.963 194.156V195.791C319.963 196.404 320.169 197.017 320.58 197.426C321.197 198.244 322.225 198.244 323.458 197.63C324.691 197.017 326.542 195.587 328.803 193.543C331.064 191.499 332.914 189.456 334.353 187.616C335.381 184.959 335.998 183.324 336.204 182.711C336.259 182.547 336.314 182.398 336.365 182.259L336.365 182.258C336.505 181.879 336.615 181.58 336.615 181.281C336.615 181.041 336.685 180.802 336.744 180.604C336.785 180.463 336.82 180.343 336.82 180.259C336.923 180.055 337.026 179.901 337.128 179.748L337.13 179.746C337.232 179.594 337.335 179.441 337.437 179.237C337.643 178.828 338.054 178.624 338.465 178.624C338.876 178.624 339.493 178.624 340.11 178.828C340.726 178.828 341.137 179.237 341.137 179.646C341.137 180.054 340.932 180.667 340.315 181.894C340.257 182.039 340.173 182.242 340.066 182.503L340.065 182.507C339.417 184.083 337.907 187.762 335.792 193.543C337.437 191.499 339.698 189.047 342.371 186.186C345.043 183.324 347.305 181.281 349.155 179.85C351.005 178.419 352.444 177.806 353.677 177.806C354.705 177.806 355.322 178.419 355.322 179.646C355.322 180.872 354.705 182.507 353.677 184.551C353.098 185.702 352.584 186.789 352.136 187.738C351.788 188.473 351.48 189.125 351.211 189.66C350.183 191.908 349.772 193.543 349.772 194.974C349.772 196.404 349.977 197.222 350.388 197.63C351.211 198.448 352.238 198.448 353.472 197.835C354.705 197.017 356.556 195.791 358.817 193.747C360.461 192.317 361.695 191.09 362.928 189.66C363.339 189.047 363.751 188.434 364.367 187.821L366.834 185.368C369.096 183.529 371.357 181.894 373.618 180.463C375.88 179.237 377.73 178.419 379.169 178.01C380.402 177.806 381.841 177.602 383.075 177.602C384.308 177.602 385.336 178.011 386.364 178.624C387.392 179.237 387.803 180.054 387.803 180.667C387.803 181.076 387.597 181.28 387.186 181.076C386.775 180.054 385.542 179.646 383.691 179.646C381.841 179.646 379.786 180.259 377.524 181.485C375.263 182.711 373.207 184.142 371.357 185.777C369.507 187.412 367.862 189.251 366.629 191.295C365.395 193.339 364.779 194.769 364.779 195.791C364.779 197.426 365.19 198.244 366.218 198.244C367.657 198.244 369.712 197.222 372.59 194.974C376.907 191.704 380.813 187.82 384.719 183.12C385.336 182.098 386.569 182.098 388.625 183.12C389.447 183.529 389.859 183.937 389.653 184.142C389.283 185 388.691 186.227 387.921 187.821L387.919 187.825L387.915 187.834C387.403 188.893 386.813 190.115 386.158 191.499C385.469 192.954 384.853 194.23 384.308 195.357C383.553 196.921 382.936 198.197 382.458 199.266C383.564 198.899 385.166 197.546 387.413 195.649C387.671 195.431 387.938 195.206 388.214 194.974C390.887 192.726 393.148 190.273 395.204 188.025C395.615 187.207 396.026 186.39 396.643 185.572C397.671 183.937 399.11 182.302 400.549 181.076C403.015 179.032 405.277 178.01 407.333 178.01C407.744 178.01 408.36 178.01 408.772 178.215C410.211 178.624 411.033 179.441 411.033 180.872C411.033 181.894 410.827 182.507 410.211 182.507C410.005 182.507 409.799 182.098 409.799 181.485C409.799 180.667 409.388 180.259 408.36 180.259C406.716 180.259 404.454 181.894 401.782 184.959C399.11 188.025 397.671 191.295 397.054 194.361C396.848 194.974 396.848 195.587 396.848 196.2C396.848 196.813 397.054 197.63 397.465 198.448C397.876 199.266 398.698 199.674 399.932 199.674C401.165 199.674 402.399 199.061 403.838 198.039C405.071 197.017 406.51 195.587 407.538 193.952L407.333 193.543C407.127 192.725 407.127 192.112 407.538 191.704C407.744 191.295 408.36 191.09 408.977 191.295C409.799 189.456 410.211 188.229 410.211 187.207C410.211 186.186 410.005 185.572 409.799 184.959C409.594 184.346 409.594 183.937 410.005 183.529C410.416 183.12 411.033 183.12 411.65 183.12C412.677 183.324 413.089 184.55 413.089 186.39C413.089 188.229 411.855 190.886 409.594 193.952C409.594 195.382 410.416 195.995 411.65 195.995C412.883 195.995 414.939 194.565 417.611 191.704C418.549 190.771 419.137 190.013 419.547 189.484C419.767 189.202 419.935 188.985 420.078 188.842ZM421.085 188.567C421.094 188.536 421.099 188.507 421.103 188.481C421.104 188.475 421.104 188.468 421.105 188.462C421.106 188.452 421.106 188.443 421.106 188.434C421.246 188.572 421.196 188.617 421.085 188.567ZM246.367 159.412C242.461 162.478 238.761 167.179 235.061 173.719C232.183 179.032 229.921 183.529 228.482 186.799C231.977 184.551 235.677 180.872 239.789 175.762C244.106 170.653 247.19 166.157 249.245 162.069C249.862 161.047 250.068 160.23 250.068 159.617C250.068 158.595 249.657 158.186 248.834 158.186C248.218 158.186 247.395 158.595 246.367 159.412ZM372.59 210.506L373.824 208.054C374.326 207.056 374.555 206.328 374.734 205.762L374.735 205.76C374.755 205.694 374.776 205.631 374.795 205.569C374.814 205.51 374.833 205.452 374.852 205.397C369.096 209.893 364.779 213.367 362.312 215.82C359.845 218.272 358.611 220.725 358.611 222.973C358.611 223.586 358.817 224.199 359.228 224.404C359.639 224.608 360.256 224.812 360.667 224.812C361.078 224.812 361.695 224.608 362.723 223.791C363.751 223.177 364.573 222.36 365.19 221.747C365.472 221.372 365.755 221.04 366.018 220.732L366.019 220.731L366.021 220.729L366.021 220.728C366.33 220.365 366.612 220.034 366.834 219.703C366.993 219.466 367.182 219.23 367.39 218.97C367.721 218.556 368.1 218.082 368.479 217.455C369.096 216.433 369.507 215.82 369.918 215.207C370.329 214.798 370.74 213.98 371.357 212.754C371.973 211.733 372.385 210.915 372.59 210.506ZM163.837 19.2106C163.837 20.2265 163.469 21.05 163.015 21.05C162.561 21.05 162.193 20.2265 162.193 19.2106C162.193 18.1948 162.561 17.3712 163.015 17.3712C163.469 17.3712 163.837 18.1948 163.837 19.2106ZM224.53 230.358C224.53 229.416 224.649 228.571 224.887 227.823C225.14 227.075 225.49 226.44 225.937 225.916C226.383 225.378 226.92 224.974 227.545 224.705C228.185 224.421 228.9 224.279 229.689 224.279C230.359 224.279 230.963 224.406 231.499 224.66C232.05 224.9 232.534 225.214 232.951 225.602H232.995C232.98 225.393 232.965 225.176 232.951 224.952V224.414V219.928H231.164V218.918H235.028V234.507H236.815V235.517H232.973V233.431H232.928C232.735 233.715 232.504 233.999 232.236 234.283C231.968 234.552 231.663 234.799 231.32 235.023C230.977 235.247 230.59 235.427 230.158 235.561C229.742 235.696 229.287 235.763 228.796 235.763C228.096 235.763 227.478 235.629 226.942 235.36C226.421 235.09 225.981 234.717 225.624 234.238C225.267 233.745 224.991 233.169 224.798 232.511C224.619 231.853 224.53 231.135 224.53 230.358ZM232.973 226.859C232.824 226.724 232.66 226.589 232.482 226.455C232.303 226.32 232.094 226.201 231.856 226.096C231.618 225.976 231.35 225.879 231.052 225.804C230.754 225.73 230.419 225.692 230.047 225.692C229.377 225.692 228.826 225.834 228.394 226.118C227.977 226.387 227.642 226.746 227.389 227.195C227.135 227.644 226.957 228.152 226.853 228.72C226.763 229.273 226.719 229.827 226.719 230.38C226.719 230.754 226.756 231.165 226.83 231.614C226.905 232.047 227.046 232.451 227.255 232.825C227.478 233.199 227.776 233.513 228.148 233.767C228.52 234.021 228.997 234.148 229.578 234.148C229.905 234.148 230.263 234.096 230.65 233.991C231.052 233.872 231.424 233.7 231.767 233.475C232.109 233.251 232.392 232.967 232.616 232.623C232.854 232.279 232.973 231.875 232.973 231.412V226.859ZM219.887 234.26C219.782 234.425 219.589 234.507 219.306 234.507H218.479V235.517H223.684V234.507H222.12V224.526H218.256V225.535H220.043V233.386C220.043 233.789 219.991 234.081 219.887 234.26ZM219.954 220.309C219.686 220.578 219.552 220.907 219.552 221.296C219.552 221.655 219.686 221.969 219.954 222.238C220.222 222.507 220.534 222.642 220.892 222.642C221.279 222.642 221.607 222.507 221.875 222.238C222.143 221.969 222.277 221.655 222.277 221.296C222.277 220.907 222.143 220.578 221.875 220.309C221.607 220.04 221.279 219.905 220.892 219.905C220.534 219.905 220.222 220.04 219.954 220.309ZM190.017 234.26C189.913 234.425 189.719 234.507 189.436 234.507H188.61V235.517H193.971V234.507H192.251V229.079C192.251 228.242 192.511 227.591 193.032 227.128C193.554 226.664 194.276 226.432 195.199 226.432H196.182V224.279C195.735 224.279 195.341 224.331 194.998 224.436C194.656 224.526 194.335 224.675 194.038 224.885C193.74 225.094 193.449 225.371 193.166 225.715C192.898 226.059 192.601 226.477 192.273 226.971H192.228V224.526H188.386V225.535H190.173V233.386C190.173 233.789 190.121 234.081 190.017 234.26ZM197.266 227.688C196.998 228.391 196.864 229.191 196.864 230.088C196.864 231.105 197.013 231.973 197.311 232.69C197.623 233.408 198.033 233.999 198.539 234.462C199.046 234.911 199.619 235.24 200.259 235.449C200.9 235.659 201.555 235.763 202.225 235.763C203.178 235.763 204.034 235.576 204.794 235.203C205.568 234.829 206.238 234.305 206.804 233.632L206.067 232.892C205.546 233.505 204.987 233.939 204.392 234.193C203.811 234.447 203.2 234.574 202.56 234.574C201.86 234.574 201.279 234.425 200.818 234.126C200.371 233.827 200.013 233.453 199.745 233.004C199.492 232.556 199.314 232.07 199.209 231.546C199.105 231.023 199.053 230.537 199.053 230.088H206.916V229.124C206.916 228.526 206.834 227.935 206.67 227.352C206.521 226.769 206.26 226.253 205.888 225.804C205.531 225.341 205.047 224.974 204.436 224.705C203.826 224.421 203.074 224.279 202.18 224.279C201.436 224.279 200.743 224.414 200.103 224.683C199.463 224.952 198.897 225.341 198.405 225.849C197.929 226.358 197.549 226.971 197.266 227.688ZM204.124 226.275C204.555 226.933 204.779 227.845 204.794 229.012H199.12C199.165 228.414 199.284 227.883 199.477 227.419C199.671 226.956 199.902 226.567 200.17 226.253C200.453 225.939 200.766 225.7 201.108 225.535C201.465 225.371 201.823 225.288 202.18 225.288C203.044 225.288 203.692 225.617 204.124 226.275ZM208.134 232.511H209.831V232.758C209.831 233.117 209.906 233.423 210.055 233.677C210.219 233.931 210.427 234.141 210.68 234.305C210.948 234.455 211.253 234.567 211.596 234.642C211.953 234.717 212.326 234.754 212.713 234.754C213.174 234.754 213.569 234.702 213.897 234.597C214.224 234.492 214.492 234.358 214.701 234.193C214.909 234.014 215.058 233.819 215.148 233.61C215.252 233.401 215.304 233.184 215.304 232.96C215.304 232.481 215.125 232.092 214.768 231.793C214.41 231.494 213.763 231.21 212.825 230.941L211.507 230.559C210.911 230.38 210.412 230.186 210.01 229.976C209.623 229.767 209.31 229.535 209.072 229.281C208.834 229.012 208.662 228.713 208.558 228.384C208.454 228.055 208.402 227.688 208.402 227.285C208.402 226.866 208.491 226.477 208.67 226.118C208.849 225.744 209.109 225.423 209.452 225.154C209.809 224.885 210.248 224.675 210.77 224.526C211.291 224.361 211.894 224.279 212.579 224.279C213.085 224.279 213.554 224.331 213.986 224.436C214.418 224.526 214.798 224.645 215.125 224.795C215.468 224.93 215.758 225.079 215.996 225.244C216.25 225.393 216.436 225.528 216.555 225.647V227.352H214.857V227.105C214.857 226.776 214.79 226.5 214.656 226.275C214.522 226.051 214.343 225.864 214.12 225.715C213.897 225.565 213.629 225.46 213.316 225.401C213.018 225.326 212.691 225.288 212.333 225.288C211.901 225.288 211.551 225.348 211.283 225.468C211.015 225.587 210.799 225.737 210.635 225.916C210.472 226.081 210.36 226.268 210.3 226.477C210.241 226.672 210.211 226.859 210.211 227.038C210.211 227.487 210.375 227.86 210.702 228.159C211.03 228.444 211.551 228.69 212.266 228.9L213.651 229.303C214.366 229.513 214.947 229.73 215.393 229.954C215.855 230.163 216.212 230.402 216.465 230.672C216.734 230.926 216.912 231.217 217.002 231.546C217.091 231.86 217.136 232.219 217.136 232.623C217.136 233.027 217.031 233.423 216.823 233.812C216.629 234.186 216.339 234.522 215.952 234.821C215.565 235.105 215.088 235.337 214.522 235.517C213.971 235.681 213.346 235.763 212.646 235.763C211.618 235.763 210.717 235.599 209.943 235.27C209.169 234.941 208.566 234.589 208.134 234.216V232.511ZM238.005 227.688C237.737 228.391 237.603 229.191 237.603 230.088C237.603 231.105 237.752 231.973 238.05 232.69C238.362 233.408 238.772 233.999 239.278 234.462C239.785 234.911 240.358 235.24 240.998 235.449C241.639 235.659 242.294 235.763 242.964 235.763C243.917 235.763 244.773 235.576 245.533 235.203C246.307 234.829 246.977 234.305 247.543 233.632L246.806 232.892C246.285 233.505 245.726 233.939 245.131 234.193C244.55 234.447 243.939 234.574 243.299 234.574C242.599 234.574 242.018 234.425 241.557 234.126C241.11 233.827 240.753 233.453 240.484 233.004C240.231 232.556 240.053 232.07 239.948 231.546C239.844 231.023 239.792 230.537 239.792 230.088H247.655V229.124C247.655 228.526 247.573 227.935 247.409 227.352C247.26 226.769 246.999 226.253 246.627 225.804C246.27 225.341 245.786 224.974 245.175 224.705C244.565 224.421 243.813 224.279 242.919 224.279C242.175 224.279 241.482 224.414 240.842 224.683C240.202 224.952 239.636 225.341 239.144 225.849C238.668 226.358 238.288 226.971 238.005 227.688ZM244.863 226.275C245.294 226.933 245.518 227.845 245.533 229.012H239.859C239.904 228.414 240.023 227.883 240.216 227.419C240.41 226.956 240.641 226.567 240.909 226.253C241.192 225.939 241.505 225.7 241.847 225.535C242.204 225.371 242.562 225.288 242.919 225.288C243.783 225.288 244.431 225.617 244.863 226.275ZM249.476 234.507C249.759 234.507 249.952 234.425 250.057 234.26C250.161 234.081 250.213 233.789 250.213 233.386V225.535H248.426V224.526H252.268V226.746H252.313C252.551 226.417 252.826 226.103 253.139 225.804C253.467 225.505 253.817 225.244 254.189 225.019C254.576 224.795 254.986 224.616 255.418 224.481C255.849 224.346 256.289 224.279 256.735 224.279C257.286 224.279 257.755 224.369 258.143 224.548C258.545 224.713 258.872 224.952 259.125 225.266C259.379 225.565 259.565 225.931 259.684 226.365C259.818 226.784 259.885 227.247 259.885 227.756V234.507H261.449V235.517H256.333V234.507H257.093C257.346 234.507 257.525 234.425 257.629 234.26C257.748 234.081 257.808 233.789 257.808 233.386V228.294C257.808 227.95 257.778 227.636 257.718 227.352C257.659 227.053 257.554 226.799 257.406 226.589C257.272 226.365 257.078 226.193 256.825 226.073C256.572 225.954 256.251 225.894 255.864 225.894C255.507 225.894 255.12 225.954 254.703 226.073C254.286 226.193 253.899 226.373 253.541 226.612C253.184 226.851 252.886 227.15 252.648 227.509C252.409 227.853 252.29 228.257 252.29 228.72V234.507H253.765V235.517H248.649V234.507H249.476ZM262.651 227.554C262.368 228.287 262.226 229.161 262.226 230.178C262.226 231.165 262.375 232.01 262.673 232.713C262.971 233.416 263.358 233.991 263.834 234.44C264.326 234.889 264.884 235.225 265.51 235.449C266.15 235.659 266.805 235.763 267.475 235.763C267.982 235.763 268.451 235.703 268.883 235.584C269.329 235.464 269.731 235.307 270.089 235.113C270.446 234.903 270.759 234.672 271.027 234.417C271.31 234.163 271.556 233.909 271.764 233.655L271.005 232.937C270.573 233.431 270.111 233.827 269.62 234.126C269.143 234.425 268.548 234.574 267.833 234.574C267.207 234.574 266.679 234.455 266.247 234.216C265.815 233.961 265.458 233.632 265.175 233.229C264.907 232.825 264.713 232.361 264.594 231.838C264.475 231.3 264.415 230.739 264.415 230.156C264.415 229.528 264.467 228.922 264.572 228.339C264.676 227.741 264.847 227.217 265.085 226.769C265.338 226.32 265.666 225.961 266.068 225.692C266.47 225.423 266.962 225.288 267.542 225.288C267.796 225.288 268.049 225.318 268.302 225.378C268.57 225.438 268.808 225.558 269.017 225.737C269.225 225.901 269.396 226.133 269.53 226.432C269.664 226.716 269.731 227.09 269.731 227.554V227.845H271.496V225.894C271.347 225.715 271.154 225.528 270.915 225.333C270.677 225.139 270.394 224.967 270.066 224.817C269.739 224.653 269.374 224.526 268.972 224.436C268.57 224.331 268.131 224.279 267.654 224.279C266.924 224.279 266.232 224.399 265.577 224.638C264.922 224.862 264.341 225.221 263.834 225.715C263.343 226.193 262.948 226.806 262.651 227.554ZM272.662 230.088C272.662 229.191 272.796 228.391 273.064 227.688C273.347 226.971 273.727 226.358 274.203 225.849C274.694 225.341 275.26 224.952 275.901 224.683C276.541 224.414 277.233 224.279 277.978 224.279C278.871 224.279 279.624 224.421 280.234 224.705C280.845 224.974 281.329 225.341 281.686 225.804C282.058 226.253 282.319 226.769 282.468 227.352C282.632 227.935 282.713 228.526 282.713 229.124V230.088H274.851C274.851 230.537 274.903 231.023 275.007 231.546C275.111 232.07 275.29 232.556 275.543 233.004C275.811 233.453 276.169 233.827 276.615 234.126C277.077 234.425 277.658 234.574 278.358 234.574C278.998 234.574 279.609 234.447 280.189 234.193C280.785 233.939 281.343 233.505 281.865 232.892L282.602 233.632C282.036 234.305 281.366 234.829 280.591 235.203C279.832 235.576 278.976 235.763 278.023 235.763C277.353 235.763 276.697 235.659 276.057 235.449C275.417 235.24 274.843 234.911 274.337 234.462C273.831 233.999 273.421 233.408 273.109 232.69C272.811 231.973 272.662 231.105 272.662 230.088ZM280.591 229.012C280.577 227.845 280.353 226.933 279.921 226.275C279.489 225.617 278.842 225.288 277.978 225.288C277.621 225.288 277.263 225.371 276.906 225.535C276.563 225.7 276.251 225.939 275.968 226.253C275.7 226.567 275.469 226.956 275.275 227.419C275.082 227.883 274.962 228.414 274.918 229.012H280.591ZM245.181 144.898C241.53 144.693 235.849 144.078 228.343 142.847C220.837 141.616 214.548 141 209.476 141C200.144 141 192.232 142.641 185.741 145.924C180.263 148.591 177.017 152.49 176.003 157.414C176.003 157.584 175.968 157.754 175.927 157.953C175.87 158.235 175.8 158.575 175.8 159.055C175.394 159.876 175.191 161.107 175.191 162.338C175.191 163.569 176.003 165.211 177.626 167.262C179.249 169.109 181.277 170.545 183.712 171.161C183.813 171.161 183.966 171.212 184.118 171.263C184.27 171.315 184.422 171.366 184.523 171.366C184.649 171.366 184.774 171.288 184.947 171.179C185.055 171.112 185.18 171.034 185.335 170.956C185.538 170.75 185.538 170.545 185.132 170.135C184.726 169.725 183.915 169.314 182.698 168.699C181.48 168.083 180.669 167.468 180.06 166.852C179.452 166.442 179.046 165.621 178.64 164.8C178.234 163.98 178.032 163.159 178.032 162.749C178.032 162.133 178.032 161.723 178.234 161.312C179.249 157.209 182.089 153.721 186.958 150.848C191.827 148.181 197.71 146.335 204.405 145.309C206.23 144.898 208.665 144.693 211.911 144.693C215.157 144.693 220.026 144.898 226.517 145.514C233.009 146.129 237.269 146.335 239.501 146.335C239.501 146.335 242.95 146.335 243.964 146.129C245.384 145.719 245.181 144.898 245.181 144.898ZM192.435 195.782C192.638 193.525 195.276 187.37 200.753 177.111C211.182 176.001 212.535 175.558 215.528 174.579L215.531 174.578L215.536 174.576C215.859 174.47 216.202 174.358 216.577 174.239C218.2 173.623 218.808 173.213 218.808 172.802C218.808 172.675 218.731 172.627 218.624 172.56C218.558 172.519 218.48 172.47 218.403 172.392C218.2 172.187 217.997 172.187 217.591 172.187H215.562C215.295 172.187 215.296 172.158 215.296 172.135C215.298 172.07 215.299 172.047 209.476 172.802C207.283 173.172 205.254 173.375 203.39 173.562C203.185 173.582 202.983 173.603 202.782 173.623C210.491 160.081 216.78 153.311 221.243 153.311C221.649 153.311 222.054 153.516 222.46 153.721C222.663 152.49 222.054 151.259 220.431 150.438C219.011 149.618 217.591 149.207 216.577 149.207C214.142 149.207 211.708 150.643 208.665 153.721C205.825 156.799 204.202 159.056 203.796 161.107C203.999 161.518 203.999 161.928 203.999 162.544C203.999 163.159 203.39 164.595 202.376 166.647C201.892 167.626 201.316 168.698 200.713 169.82C200.053 171.048 199.361 172.336 198.724 173.623H198.521C198.401 173.623 198.28 173.478 198.075 173.232C197.935 173.063 197.754 172.847 197.507 172.597C196.898 171.982 196.29 171.571 195.681 171.571C194.87 171.571 193.855 171.982 192.435 172.597C191.015 173.213 190.407 174.033 190.407 174.854C190.407 175.675 190.61 176.29 191.218 176.701C191.827 177.111 192.435 177.521 193.247 177.521C194.058 177.521 195.276 177.521 196.898 177.316C191.015 188.806 188.175 195.987 188.175 199.27V200.091C188.175 200.264 188.612 200.438 189.362 200.737L189.371 200.74L189.571 200.82C189.644 200.849 189.72 200.88 189.798 200.911C191.655 201.594 192.248 198.158 192.511 196.63C192.564 196.322 192.604 196.09 192.638 195.987L192.435 195.782Z" fill="url(#paint0_linear_243_586)"/>
<defs>
<linearGradient id="paint0_linear_243_586" x1="421.191" y1="104.14" x2="-6.55143" y2="84.0943" gradientUnits="userSpaceOnUse">
<stop stop-color="#FFD15B"/>
<stop offset="0.169225" stop-color="#E08F2A"/>
<stop offset="0.380208" stop-color="#FECF62"/>
<stop offset="0.384653" stop-color="#FFCE5A"/>
<stop offset="0.639648" stop-color="#FFF59F"/>
<stop offset="0.846739" stop-color="#FFCA4B"/>
<stop offset="1" stop-color="#FDC43E"/>
</linearGradient>
</defs>
</svg>
