<svg width="49" height="48" viewBox="0 0 49 48" fill="none" xmlns="http://www.w3.org/2000/svg">
<path fill-rule="evenodd" clip-rule="evenodd" d="M48.209 24C48.209 37.2548 37.4638 48 24.209 48C10.9542 48 0.208984 37.2548 0.208984 24C0.208984 10.7452 10.9542 0 24.209 0C37.4638 0 48.209 10.7452 48.209 24ZM32.7399 33.8475L32.7453 33.5045C32.7682 32.712 32.2655 31.7015 31.621 31.2422L29.2389 29.5615C28.5952 29.1057 27.4772 28.9967 26.7642 29.3338L25.4539 29.9359C22.3269 27.7383 20.5982 24.02 20.924 20.21L22.224 19.6008C22.9349 19.2662 23.5682 18.3413 23.6403 17.5527L23.8768 14.653C23.9452 13.8654 23.4891 12.8234 22.8798 12.3273L22.6127 12.1216C21.9998 11.6256 20.8955 11.4999 20.1899 11.8374L18.2291 12.7438C17.8889 12.908 17.4625 13.5706 17.4611 13.5746C15.7529 18.0929 15.9466 23.1161 17.992 27.4944C20.0298 31.8637 23.735 35.2286 28.2688 36.8334C28.2974 36.8438 29.1022 36.9508 29.4543 36.793L31.4004 35.8825C32.1194 35.5519 32.7177 34.6324 32.7399 33.8475ZM28.2603 14.8768C28.3284 14.4682 28.7148 14.1922 29.1234 14.2603C30.2659 14.4507 31.8973 15.12 33.1983 16.5132C34.5211 17.9299 35.4625 20.0537 35.2482 23.0536C35.2187 23.4667 34.8598 23.7777 34.4467 23.7482C34.0335 23.7187 33.7225 23.3598 33.752 22.9467C33.9377 20.3465 33.1291 18.637 32.1019 17.537C31.0529 16.4136 29.7343 15.8828 28.8768 15.7399C28.4682 15.6718 28.1922 15.2854 28.2603 14.8768ZM27.2588 18.8863C27.3217 18.4769 27.7045 18.1959 28.1139 18.2588C28.7861 18.362 29.7398 18.7212 30.5075 19.4788C31.3014 20.2621 31.8581 21.4366 31.7324 23.0581C31.7003 23.4711 31.3396 23.7799 30.9266 23.7479C30.5137 23.7159 30.2048 23.3551 30.2368 22.9422C30.3282 21.7637 29.9353 21.0214 29.4539 20.5465C28.9464 20.0457 28.2994 19.8049 27.8863 19.7414C27.4768 19.6786 27.1959 19.2957 27.2588 18.8863Z" fill="url(#paint0_linear_299_84)"/>
<defs>
<linearGradient id="paint0_linear_299_84" x1="62.1483" y1="4.69354e-07" x2="-17.9899" y2="15.168" gradientUnits="userSpaceOnUse">
<stop stop-color="#FFD15B"/>
<stop offset="0.169225" stop-color="#E08F2A"/>
<stop offset="0.380208" stop-color="#FECF62"/>
<stop offset="0.384653" stop-color="#FFCE5A"/>
<stop offset="0.639648" stop-color="#FFF59F"/>
<stop offset="0.846739" stop-color="#FFCA4B"/>
<stop offset="1" stop-color="#FDC43E"/>
</linearGradient>
</defs>
</svg>
