<svg width="48" height="48" viewBox="0 0 48 48" fill="none" xmlns="http://www.w3.org/2000/svg">
<path fill-rule="evenodd" clip-rule="evenodd" d="M24 48C37.2548 48 48 37.2548 48 24C48 10.7452 37.2548 0 24 0C10.7452 0 0 10.7452 0 24C0 37.2548 10.7452 48 24 48ZM32.5363 33.5045L32.5309 33.8475C32.5087 34.6324 31.9105 35.5519 31.1915 35.8825L29.2454 36.793C28.8932 36.9508 28.0884 36.8438 28.0598 36.8334C23.526 35.2286 19.8208 31.8637 17.783 27.4944C15.7376 23.1161 15.5439 18.0929 17.2521 13.5746C17.2535 13.5706 17.6799 12.908 18.0202 12.7438L19.9809 11.8374C20.6865 11.4999 21.7908 11.6256 22.4037 12.1216L22.6708 12.3273C23.2801 12.8234 23.7362 13.8654 23.6678 14.653L23.4313 17.5527C23.3592 18.3413 22.7259 19.2662 22.015 19.6008L20.715 20.21C20.3892 24.02 22.1179 27.7383 25.2449 29.9359L26.5552 29.3338C27.2683 28.9967 28.3862 29.1057 29.0299 29.5615L31.412 31.2422C32.0565 31.7015 32.5593 32.712 32.5363 33.5045Z" fill="url(#paint0_linear_280_169)"/>
<defs>
<linearGradient id="paint0_linear_280_169" x1="63.2587" y1="-0.397575" x2="-19.6648" y2="14.7429" gradientUnits="userSpaceOnUse">
<stop stop-color="#FFD15B"/>
<stop offset="0.201521" stop-color="#E08F2A"/>
<stop offset="0.499696" stop-color="#FFCE5A"/>
<stop offset="0.798377" stop-color="#FFCA4B"/>
<stop offset="1" stop-color="#FDC43E"/>
</linearGradient>
</defs>
</svg>
