<svg width="78" height="30" viewBox="0 0 78 30" fill="none" xmlns="http://www.w3.org/2000/svg">
<path d="M8.92154 8.35229L13.5535 13.5273V8.35229H16.6705C17.7484 8.35229 18.5641 8.4095 19.0885 8.52387C19.6128 8.63823 20.0498 8.80975 20.4285 9.06706C20.8946 9.41015 21.2733 9.83901 21.5355 10.4394C21.7977 11.0112 21.9434 11.6688 21.9434 12.355C21.9434 13.0698 21.7977 13.6988 21.5355 14.2706C21.2733 14.8424 20.8946 15.2999 20.4285 15.6429C20.0498 15.9003 19.6128 16.1004 19.0885 16.2148C18.5641 16.3291 17.7775 16.3863 16.6705 16.3863H16.1753H16.117L21.9434 22.905H19.9333L14.1652 16.4721H13.5535H13.5243H13.0582H12.6504C11.1355 16.4721 10.1159 16.6437 9.59156 16.9867C9.06719 17.3298 8.80501 17.9302 8.80501 18.8166C8.80501 19.7315 9.06719 20.3891 9.62069 20.7893C10.1451 21.161 11.1647 21.3611 12.6504 21.3611H13.0582H13.5243H13.5535V17.0725L15.2722 18.9881V21.3325V21.5041V22.9336H13.5535H12.1551C11.0773 22.9336 10.2616 22.8764 9.73722 22.7621C9.21285 22.6477 8.77588 22.4762 8.39717 22.1902C7.93106 21.8472 7.55235 21.4183 7.29017 20.8179C7.02798 20.2461 6.88232 19.5885 6.88232 18.9023C6.88232 18.1876 7.02798 17.5586 7.29017 16.9867C7.55235 16.4149 7.93106 15.9575 8.39717 15.6144C8.77588 15.3571 9.21285 15.1569 9.73722 15.0426C10.2325 14.9282 11.0481 14.871 12.1551 14.871H12.6504H12.7669L6.88232 8.32373L8.92154 8.35229ZM15.2722 14.8138H16.1753C17.6902 14.8138 18.7098 14.6423 19.2341 14.2992C19.7585 13.9561 20.0207 13.3557 20.0207 12.4694C20.0207 11.5545 19.7585 10.8969 19.205 10.4966C18.6806 10.1249 17.661 9.92479 16.1753 9.92479H15.2722V14.8138Z" fill="white"/>
<path d="M27.0706 22.7909C26.7501 22.6193 26.5171 22.3906 26.3423 22.1047C26.1675 21.8188 26.0801 21.5043 26.0801 21.1326C26.0801 20.7609 26.1675 20.4464 26.3423 20.1605C26.5171 19.8746 26.7501 19.6459 27.0706 19.4743C27.391 19.3028 27.7115 19.2456 28.1193 19.2456C28.4397 19.2456 28.7311 19.3028 28.9932 19.4171C29.2554 19.5315 29.4593 19.6745 29.6633 19.9032L29.1098 20.4178C28.8476 20.1319 28.5563 19.989 28.1776 19.989C27.9445 19.989 27.7406 20.0461 27.5658 20.1319C27.391 20.2177 27.2453 20.3606 27.1288 20.5608C27.0414 20.7323 26.9832 20.9325 26.9832 21.1612C26.9832 21.3899 27.0414 21.5901 27.1288 21.7616C27.2162 21.9331 27.3619 22.0761 27.5658 22.1905C27.7406 22.2762 27.9445 22.3334 28.1776 22.3334C28.5563 22.3334 28.8476 22.1905 29.1098 21.9046L29.6633 22.4192C29.4885 22.6193 29.2554 22.7909 28.9932 22.9052C28.7311 23.0196 28.4397 23.0768 28.1193 23.0768C27.7406 23.0482 27.391 22.9624 27.0706 22.7909Z" fill="white"/>
<path d="M34.3541 22.9907L33.6258 21.9614H33.5967H32.8393V22.9907H31.9653V19.3311H33.5676C33.888 19.3311 34.1793 19.3882 34.4124 19.5026C34.6454 19.617 34.8494 19.7599 34.9659 19.9601C35.0824 20.1602 35.1698 20.3889 35.1698 20.6748C35.1698 20.9321 35.1115 21.1895 34.9659 21.3896C34.8202 21.5897 34.6454 21.7327 34.4124 21.847L35.2572 23.0193H34.3541V22.9907ZM34.1502 20.1888C34.0045 20.0744 33.8298 20.0172 33.5676 20.0172H32.8684V21.3038H33.5676C33.8298 21.3038 34.0337 21.2466 34.1502 21.1323C34.2959 21.0179 34.3541 20.875 34.3541 20.6748C34.3541 20.4461 34.2667 20.3031 34.1502 20.1888Z" fill="white"/>
<path d="M40.5579 22.3045V22.9907H37.6738V19.3311H40.4996V20.0172H38.5478V20.8178H40.2666V21.4754H38.5478V22.3331H40.5579V22.3045Z" fill="white"/>
<path d="M45.4527 22.1904H43.734L43.4135 22.9624H42.5396L44.2001 19.3027H45.0449L46.7054 22.9624H45.8023L45.4527 22.1904ZM45.1905 21.5614L44.6079 20.1605L44.0253 21.5614H45.1905Z" fill="white"/>
<path d="M49.4146 20.0172H48.2202V19.3311H51.4538V20.0172H50.2594V22.9907H49.3855V20.0172H49.4146Z" fill="white"/>
<path d="M53.6968 19.3311H54.5707V22.9907H53.6968V19.3311Z" fill="white"/>
<path d="M60.7758 19.3311L59.1736 22.9907H58.3288L56.7266 19.3311H57.6588L58.7949 21.9328L59.931 19.3311H60.7758Z" fill="white"/>
<path d="M65.7283 22.3045V22.9907H62.8442V19.3311H65.67V20.0172H63.7182V20.8178H65.437V21.4754H63.7182V22.3331H65.7283V22.3045Z" fill="white"/>
<path d="M32.4305 8.83848C32.984 9.0672 33.3919 9.43888 33.6832 9.86775C33.9745 10.3252 34.1202 10.8398 34.1202 11.4402C34.1202 12.0406 33.9745 12.5553 33.6832 13.0127C33.3919 13.4702 32.9549 13.8133 32.4305 14.042C31.877 14.2707 31.2361 14.4137 30.5078 14.4137H28.8182V16.6724H26.8955V8.4668H30.5078C31.2361 8.4668 31.877 8.58116 32.4305 8.83848ZM31.7022 12.4981C31.9936 12.2408 32.1683 11.8977 32.1683 11.4402C32.1683 10.9828 32.0227 10.6111 31.7022 10.3824C31.4109 10.1251 30.9448 10.0107 30.3622 10.0107H28.7891V12.8698H30.3622C30.974 12.8698 31.4109 12.7554 31.7022 12.4981Z" fill="white"/>
<path d="M41.3156 16.6724L39.7134 14.3851H39.626H37.9364V16.6724H36.0137V8.4668H39.626C40.3543 8.4668 41.0243 8.58116 41.5487 8.83848C42.1022 9.0672 42.51 9.43888 42.8013 9.86775C43.0927 10.3252 43.2383 10.8398 43.2383 11.4402C43.2383 12.0406 43.0927 12.5838 42.8013 13.0127C42.51 13.4416 42.0731 13.7847 41.5196 14.0134L43.384 16.6437L41.3156 16.6724ZM40.8204 10.3824C40.5291 10.1251 40.063 10.0107 39.4803 10.0107H37.9072V12.8698H39.4803C40.063 12.8698 40.5 12.7554 40.8204 12.4981C41.1117 12.2408 41.2865 11.8977 41.2865 11.4402C41.2865 10.9828 41.1408 10.6397 40.8204 10.3824Z" fill="white"/>
<path d="M46.9674 16.2717C46.2683 15.9 45.7148 15.3854 45.3361 14.7564C44.9282 14.0988 44.7534 13.384 44.7534 12.5835C44.7534 11.7829 44.9573 11.0396 45.3361 10.4106C45.7439 9.753 46.2683 9.26699 46.9674 8.8953C47.6666 8.52362 48.4531 8.35205 49.3271 8.35205C50.201 8.35205 50.9876 8.52362 51.6576 8.8953C52.3568 9.26699 52.9103 9.78159 53.289 10.4106C53.6968 11.0682 53.9008 11.7829 53.9008 12.5835C53.9008 13.384 53.6968 14.1274 53.289 14.7564C52.8811 15.3854 52.3568 15.9 51.6576 16.2717C50.9585 16.6434 50.1719 16.815 49.3271 16.815C48.4531 16.815 47.6666 16.6434 46.9674 16.2717ZM50.6671 14.8708C51.075 14.642 51.3663 14.3275 51.5994 13.9273C51.8324 13.527 51.9489 13.0695 51.9489 12.5549C51.9489 12.0403 51.8324 11.5828 51.5994 11.1826C51.3663 10.7823 51.0459 10.4678 50.6671 10.2391C50.2593 10.0103 49.8223 9.89598 49.3271 9.89598C48.8318 9.89598 48.3949 10.0103 47.987 10.2391C47.5792 10.4678 47.2879 10.7823 47.0548 11.1826C46.8218 11.5828 46.7052 12.0403 46.7052 12.5549C46.7052 13.0695 46.8218 13.527 47.0548 13.9273C47.2879 14.3275 47.6083 14.642 47.987 14.8708C48.3949 15.0995 48.8318 15.2138 49.3271 15.2138C49.8223 15.2138 50.2593 15.0995 50.6671 14.8708Z" fill="white"/>
<path d="M57.7757 9.98211V12.155H61.6502V13.6703H57.7757V16.6724H55.853V8.4668H62.1746V9.98211H57.7757Z" fill="white"/>
<path d="M63.98 8.4668H65.9027V16.6724H63.98V8.4668Z" fill="white"/>
<path d="M70.3012 8.52406C70.3594 8.43829 70.4177 8.29534 70.4177 8.18097C70.4177 8.00943 70.3594 7.83788 70.2138 7.75211C70.0973 7.63775 69.9225 7.58057 69.6894 7.58057H68.9902V9.3532H69.2816V8.78138H69.6894C69.7185 8.78138 69.7477 8.78138 69.7768 8.78138L70.1555 9.3532H70.4468L70.039 8.7242C70.1555 8.66702 70.2429 8.60984 70.3012 8.52406ZM69.6894 8.52406H69.2816V7.80929H69.6894C69.8351 7.80929 69.9516 7.83788 70.039 7.89507C70.1264 7.95225 70.1555 8.03802 70.1555 8.15238C70.1555 8.26675 70.1264 8.35252 70.039 8.4097C69.9225 8.49547 69.8351 8.52406 69.6894 8.52406Z" fill="white"/>
<path d="M70.9724 7.66621C70.8267 7.43749 70.652 7.23735 70.4189 7.12299C70.1859 6.98003 69.9237 6.92285 69.6324 6.92285C69.341 6.92285 69.0788 6.98003 68.8458 7.12299C68.6127 7.26594 68.4088 7.43749 68.2923 7.66621C68.1466 7.89494 68.0884 8.15226 68.0884 8.43817C68.0884 8.72407 68.1466 8.98139 68.2923 9.21012C68.438 9.43884 68.6127 9.63901 68.8458 9.75337C69.0788 9.89633 69.341 9.95348 69.6324 9.95348C69.9237 9.95348 70.1859 9.89633 70.4189 9.75337C70.652 9.61042 70.8559 9.43884 70.9724 9.21012C71.1181 8.98139 71.1763 8.72407 71.1763 8.43817C71.1763 8.18085 71.0889 7.89494 70.9724 7.66621ZM70.7685 9.12435C70.652 9.32448 70.4772 9.49605 70.2733 9.61042C70.0693 9.72478 69.8363 9.78193 69.6032 9.78193C69.341 9.78193 69.1371 9.72478 68.9332 9.61042C68.7293 9.49605 68.5545 9.32448 68.438 9.12435C68.3214 8.92421 68.2632 8.69551 68.2632 8.46678C68.2632 8.23806 68.3214 8.0093 68.438 7.80917C68.5545 7.60903 68.7293 7.43752 68.9332 7.32315C69.1371 7.20879 69.3702 7.15158 69.6324 7.15158C69.8945 7.15158 70.0985 7.20879 70.3024 7.32315C70.5063 7.43752 70.652 7.60903 70.7685 7.78058C70.885 7.98071 70.9433 8.20944 70.9433 8.43817C70.9433 8.69548 70.885 8.92421 70.7685 9.12435Z" fill="white"/>
</svg>
