<svg width="234" height="150" viewBox="0 0 234 150" fill="none" xmlns="http://www.w3.org/2000/svg">
<path fill-rule="evenodd" clip-rule="evenodd" d="M66.8158 93.901C71.4984 93.901 78.351 94.2416 82.0058 96.3989C88.2874 100.146 92.8558 109.343 92.8558 109.343C92.8558 109.343 86.5742 99.9188 81.2063 97.6479C77.78 96.1718 68.8716 95.9447 63.3894 96.0583C65.7879 106.504 68.0721 117.859 68.0721 123.082L68.0723 123.345C68.0767 127.934 68.0871 138.736 57.2221 149.538L56.8794 149.197C66.4761 139.656 66.4745 130.67 66.4732 123.336L66.4731 123.082C66.4731 118.654 63.6179 107.072 60.7626 96.2854H60.3058C59.5964 96.313 58.6973 96.3643 57.6652 96.4231C50.2227 96.8472 35.8647 97.6654 35.8647 92.8791C35.8647 89.9269 46.4863 85.4987 57.1079 82.2059C56.1942 78.3454 55.5089 75.3933 55.5089 74.1443C55.5089 68.6942 59.5063 67.7858 63.6179 67.7858C65.5486 67.7858 69.1839 68.1824 72.3575 68.5286C74.8157 68.7968 76.9969 69.0348 77.8942 69.0348C85.5463 69.0348 87.7163 62.4492 87.7163 59.27C87.7163 52.6897 82.2784 47.1087 76.5689 41.2489C70.2592 34.7731 63.6179 27.9569 63.6179 19.0754C63.6179 3.8605 73.2116 0 77.78 0C83.0337 0 86.5742 3.06569 88.1731 4.54176L87.8305 4.8824C87.0311 4.31468 83.4905 1.93025 79.0363 1.93025C72.1837 1.93025 66.7016 8.96998 66.7016 18.0535C66.7016 27.5792 73.3817 33.3057 79.9899 38.9706C86.4573 44.5148 92.8558 49.9998 92.8558 58.9294C92.8558 69.7161 85.0895 73.3495 78.8079 73.3495C76.5922 73.3495 74.4009 72.9134 72.0426 72.4441C69.2953 71.8974 66.3214 71.3057 62.8184 71.3057C62.7359 71.3057 62.647 71.3042 62.5528 71.3027C61.2138 71.2805 58.821 71.241 58.821 75.1662C58.821 75.8474 59.2779 78.1183 59.9631 81.184C67.7295 78.9131 74.8105 77.3235 77.2089 77.3235C75.4958 77.8912 68.1863 80.5027 60.5342 83.4549C60.7267 84.2845 60.9374 85.1679 61.1584 86.095L61.1597 86.1003L61.1599 86.1012C61.7251 88.4717 62.3583 91.1277 62.9326 93.901H66.8158ZM57.5647 84.5903C48.3136 88.2237 39.1768 91.9707 39.1768 92.9926C39.1768 94.4544 49.0347 94.2458 59.6529 94.0211L59.9631 94.0145C59.5186 92.1205 59.0387 90.2967 58.5825 88.5626L58.5822 88.5616L58.5821 88.5609L58.5818 88.56L58.5815 88.5587C58.2176 87.1755 57.8687 85.8494 57.5647 84.5903ZM89.537 5.6768C91.707 5.6768 93.0775 9.31021 93.0775 11.6946C93.0775 24.764 86.9758 24.5276 84.3646 24.4264C84.1629 24.4186 83.9821 24.4116 83.8264 24.4116C83.8264 24.4116 86.7959 22.3678 86.7959 19.1885C86.7959 18.5073 86.539 17.7976 86.282 17.088C86.025 16.3783 85.768 15.6687 85.768 14.9874C85.768 13.9655 86.3391 13.5113 87.0243 13.5113C87.4812 13.5113 87.938 13.6249 87.938 13.6249V13.7384C87.4812 13.7384 86.5675 13.852 86.5675 14.8739C86.5675 15.3752 86.9682 15.9208 87.4159 16.5302C87.9821 17.301 88.6233 18.1739 88.6233 19.1885C88.6233 20.324 88.2807 20.7782 88.2807 20.7782C88.9659 20.7782 92.1638 17.2583 92.1638 11.354C92.1638 8.17477 90.5649 6.81224 89.8796 6.81224C89.3086 6.81224 89.6512 9.31021 89.6512 9.31021C89.6512 9.31021 87.7096 5.6768 89.537 5.6768ZM54.2501 50.868C41.1158 54.2743 36.5474 66.31 36.5474 74.9393C36.5474 74.9393 37.6895 55.8639 58.1332 55.8639C62.9561 55.8639 66.6053 55.9625 69.276 56.0347H69.2766C73.6255 56.1522 75.379 56.1996 75.379 55.6368V55.4097V55.1826C75.379 47.6887 59.618 37.3562 44.1995 37.3562C17.7027 37.3562 0 50.0731 0 50.7544C0 50.7544 12.1063 42.8063 36.4332 42.8063C41.9153 42.8063 47.0548 43.7147 51.7374 44.9637C27.4106 46.4397 18.2737 62.7901 18.2737 67.786C18.2737 67.7902 18.2811 67.7708 18.2969 67.7293C18.7055 66.6567 24.7201 50.868 52.6511 50.868H54.2501ZM182.671 97.3076C182.329 97.8754 182.1 98.216 181.872 98.216C180.615 98.216 179.93 97.8754 180.044 97.3076C180.044 97.1941 180.615 96.6264 181.872 95.718L182.557 95.1503C183.014 94.8097 183.356 94.5826 183.471 94.5826C183.471 94.5826 183.585 94.5826 183.585 94.6961L183.242 96.0586C183.242 96.2857 183.014 96.7399 182.671 97.3076ZM233.382 104.915C233.496 104.688 233.724 104.574 233.838 104.688C233.875 104.724 233.912 104.749 233.941 104.762C233.864 105.044 233.401 105.7 232.468 106.731C230.869 108.662 229.498 109.57 228.356 109.57C227.557 109.57 226.986 109.229 226.643 108.548L225.044 110.138C224.016 111.046 222.76 111.5 221.504 111.5C220.818 111.5 220.133 111.273 219.676 110.932C218.763 110.365 218.306 109.343 218.306 107.867C218.306 107.382 218.389 106.98 218.485 106.519C218.501 106.44 218.518 106.36 218.534 106.277C217.885 106.922 217.01 107.717 215.971 108.662L215.956 108.675L215.76 108.854C215.585 109.013 215.405 109.176 215.222 109.343C213.281 111.046 212.024 112.068 211.225 112.522C208.941 117.177 207.456 120.13 206.656 121.379C204.601 124.331 202.545 125.807 200.603 125.807C200.375 125.807 200.146 125.807 199.804 125.693C198.433 125.353 197.748 124.671 197.748 123.536C197.748 122.4 198.547 121.038 199.918 119.448C201.403 117.859 204.372 115.474 208.941 112.522C210.882 108.548 212.138 105.369 212.938 103.098C211.453 104.915 210.425 106.164 209.74 106.845C207.342 109.456 205.4 110.819 203.915 110.819C203.458 110.819 203.001 110.705 202.544 110.478C202.088 110.138 201.631 109.797 201.288 109.343C200.946 108.889 200.717 108.434 200.717 107.867V107.526L200.603 107.64C199.461 108.775 198.547 109.683 197.519 110.365C196.606 111.046 195.578 111.387 194.664 111.387C193.751 111.387 193.065 111.16 192.723 110.819C192.38 110.478 192.152 109.911 192.152 109.343C192.152 108.775 192.152 108.207 192.266 107.64C192.276 107.589 192.286 107.537 192.297 107.485C192.402 106.95 192.525 106.33 192.837 105.709C193.294 104.574 193.751 103.666 194.093 102.984C194.19 102.791 194.278 102.625 194.354 102.482C194.547 102.119 194.664 101.898 194.664 101.735C194.664 101.508 194.55 101.395 194.322 101.395C193.865 101.395 193.065 101.962 191.809 102.984C191.009 103.779 189.753 105.255 188.154 107.413C186.555 109.57 185.642 110.705 185.413 110.819C184.385 111.273 183.814 111.5 183.586 111.5C183.357 111.5 183.243 111.5 183.243 111.387C183.243 111.33 183.272 111.273 183.3 111.216C183.329 111.16 183.357 111.103 183.357 111.046C183.472 110.932 183.7 110.251 184.157 108.889C184.388 108.429 184.567 107.918 184.764 107.356C184.859 107.084 184.959 106.8 185.071 106.504C184.956 106.675 184.785 106.845 184.6 107.029C184.414 107.214 184.214 107.413 184.043 107.64C182.329 109.456 180.845 110.592 179.703 111.046C179.017 111.273 178.446 111.387 177.989 111.387C176.847 111.387 176.162 110.932 175.819 109.911C175.705 109.684 175.705 109.457 175.705 109.229C175.705 108.208 176.048 106.845 176.962 104.915C176.847 105.142 176.619 105.596 176.048 106.164C175.866 106.405 175.652 106.646 175.422 106.904C175.22 107.132 175.006 107.373 174.792 107.64C173.078 109.456 171.594 110.592 170.452 111.046C169.195 111.387 168.282 111.5 167.71 111.16C167.139 110.819 166.797 110.478 166.683 110.024C166.663 109.946 166.643 109.872 166.624 109.799C166.533 109.45 166.454 109.151 166.454 108.775C166.454 107.526 166.797 106.277 167.254 105.028C167.71 103.779 168.053 102.871 168.396 102.417C167.368 102.871 166.454 103.325 165.769 104.006C164.741 104.915 163.827 105.823 163.142 106.504L162.343 107.413C162.114 107.98 161.657 108.321 161.086 108.434C160.401 108.548 160.173 108.321 160.173 107.867C160.173 107.413 160.744 106.277 161.657 104.46L161.658 104.46C162.571 102.643 163.028 101.735 163.028 101.508C163.028 101.281 162.914 101.168 162.685 101.168C162.228 101.168 161.315 101.735 160.058 102.871C159.259 103.666 158.003 105.142 156.404 107.299C154.805 109.456 153.891 110.592 153.663 110.705C152.635 111.16 152.064 111.387 151.835 111.387C151.607 111.387 151.493 111.387 151.493 111.273C151.493 111.16 151.493 111.046 151.607 110.932C151.721 110.705 152.52 108.435 154.119 103.893L154.119 103.893C153.777 104.46 153.434 104.915 153.092 105.255C152.895 105.516 152.624 105.813 152.298 106.17L152.298 106.17C152.056 106.436 151.785 106.733 151.493 107.072C150.122 108.434 149.208 109.343 148.523 109.797C147.267 110.705 146.01 111.16 144.983 111.16C143.955 111.16 143.269 110.705 142.927 109.683C142.813 109.343 142.813 109.002 142.813 108.548C142.813 107.299 143.155 106.05 143.612 104.688C143.529 104.688 143.262 104.991 142.769 105.552L142.769 105.552L142.768 105.553C142.586 105.76 142.373 106.002 142.127 106.277C141.214 107.299 140.186 108.321 139.044 109.229C137.902 110.138 136.759 110.592 135.846 110.592C135.389 110.592 134.932 110.478 134.475 110.251C134.018 109.911 133.562 109.57 133.219 109.116C132.876 108.662 132.648 108.207 132.648 107.64V107.299L132.534 107.413C131.506 108.548 130.478 109.456 129.564 110.138C128.765 110.819 127.851 111.16 126.937 111.16C124.882 111.16 123.854 110.251 123.854 108.207V107.98C123.968 106.05 124.882 103.211 126.709 99.4645C128.536 95.604 130.135 92.7654 131.62 90.8352L132.876 89.2455C133.105 88.9049 133.562 88.4507 134.133 87.9965C135.16 86.9747 136.303 86.5205 137.445 86.5205C138.587 86.5205 139.272 86.8611 139.729 87.5424C139.843 87.7695 139.957 88.1101 139.957 88.5643C139.957 89.0184 139.843 89.6997 139.386 90.4945C136.645 95.2634 132.305 100.146 126.252 105.142C126.221 105.225 126.19 105.305 126.161 105.383L126.158 105.389C125.868 106.155 125.681 106.65 125.681 106.958V108.207C125.681 108.775 125.909 109.229 126.138 109.683C126.595 110.365 127.394 110.365 128.422 109.797C129.222 109.343 130.249 108.548 131.506 107.413L133.333 105.596C133.904 104.688 134.589 103.779 135.617 102.871C136.874 101.849 138.13 100.941 139.386 100.146C140.643 99.4645 141.67 99.0103 142.47 98.7832C143.155 98.6697 143.955 98.5562 144.64 98.5562C145.325 98.5562 146.01 98.7832 146.467 99.1239C147.038 99.4645 147.267 99.8051 147.267 100.259V100.486C147.267 100.557 147.223 100.54 147.163 100.517C147.126 100.503 147.082 100.486 147.038 100.486C146.696 99.9187 146.01 99.6916 144.983 99.6916C143.955 99.6916 142.813 100.032 141.556 100.713C140.3 101.395 139.044 102.19 137.902 103.211C136.988 104.006 136.074 105.028 135.389 106.164C134.704 107.186 134.361 108.094 134.361 108.548C134.361 109.57 134.589 110.024 135.16 110.024C135.732 110.024 136.645 109.57 137.787 108.662C138.137 108.357 138.47 108.07 138.785 107.798L138.787 107.796C140.115 106.649 141.117 105.784 141.67 105.142C142.115 104.679 142.521 104.256 142.888 103.873C144.596 102.091 145.48 101.168 145.668 101.168C146.01 101.168 146.353 101.168 146.81 101.395C147.267 101.622 147.381 101.849 147.267 102.076C145.896 104.006 145.097 105.937 144.868 107.867V108.775C144.868 109.116 144.983 109.456 145.211 109.683C145.668 110.138 146.239 110.138 146.924 109.797C147.609 109.456 148.638 108.661 149.894 107.526C150.808 106.618 151.607 105.823 152.292 105.028C152.292 104.971 152.321 104.943 152.349 104.915C152.378 104.886 152.406 104.858 152.406 104.801C153.548 103.325 154.462 101.962 155.033 100.827C155.262 99.8051 155.604 99.2374 156.061 99.1239C156.404 99.0103 156.746 99.0103 157.089 99.1239C157.432 99.2374 157.66 99.4645 157.66 99.6916C157.66 99.9187 157.546 100.259 157.203 100.941C157.171 101.022 157.124 101.135 157.064 101.281L157.064 101.282C156.704 102.158 155.865 104.202 154.69 107.413C155.604 106.277 156.861 104.915 158.345 103.325C161.315 100.259 163.37 98.6697 164.513 98.6697C164.741 98.6697 164.969 98.7832 165.198 98.8967C165.426 99.0102 165.54 99.351 165.54 99.8051C165.54 100.259 165.426 100.827 165.084 101.395C164.741 101.962 164.398 102.757 164.056 103.552C163.713 104.148 163.499 104.616 163.365 104.909L163.365 104.909C163.321 105.007 163.285 105.085 163.256 105.142C165.54 103.098 167.254 101.849 168.396 101.395C169.538 100.941 170.337 100.713 170.68 100.713C171.023 100.713 171.251 100.941 171.251 101.168C171.251 101.281 171.137 101.735 170.68 102.303C170.223 102.871 169.766 103.779 169.309 105.028C168.853 106.164 168.51 107.072 168.51 107.526C168.396 107.98 168.396 108.434 168.396 108.775C168.396 109.116 168.51 109.456 168.738 109.683C169.195 110.138 169.766 110.138 170.452 109.797C171.137 109.456 172.165 108.662 173.421 107.526C174.106 106.958 174.677 106.391 175.134 105.823C176.391 104.347 177.418 102.984 178.104 101.962C178.104 101.735 178.104 101.622 178.218 101.395C178.675 99.9187 179.132 99.1239 179.588 99.0103H179.817C180.502 99.0103 180.959 99.2374 181.073 99.6916C181.073 99.9187 181.073 100.146 180.959 100.373C180.845 100.6 180.731 100.827 180.731 100.941C180.731 100.997 180.702 101.054 180.673 101.111C180.645 101.168 180.616 101.224 180.616 101.281C180.388 101.622 180.274 101.849 180.159 102.076C178.675 105.142 177.875 107.072 177.761 107.867V108.775C177.761 109.116 177.875 109.456 178.104 109.683C178.446 110.138 179.017 110.138 179.703 109.797C180.388 109.456 181.416 108.662 182.672 107.526C183.928 106.391 184.956 105.255 185.756 104.233C186.327 102.757 186.669 101.849 186.784 101.508C186.814 101.417 186.845 101.334 186.873 101.257L186.873 101.257C186.951 101.046 187.012 100.88 187.012 100.713C187.012 100.581 187.051 100.448 187.084 100.337C187.107 100.259 187.126 100.193 187.126 100.146C187.183 100.032 187.24 99.9473 187.297 99.8623L187.298 99.8612C187.355 99.7763 187.412 99.6913 187.469 99.578C187.583 99.351 187.812 99.2374 188.04 99.2374C188.268 99.2374 188.611 99.2374 188.954 99.351C189.296 99.351 189.525 99.5781 189.525 99.8051C189.525 100.032 189.411 100.373 189.068 101.054C189.035 101.135 188.989 101.248 188.93 101.393L188.929 101.395C188.569 102.271 187.73 104.314 186.555 107.526C187.469 106.391 188.725 105.028 190.21 103.439C191.695 101.849 192.951 100.713 193.979 99.9187C195.007 99.1239 195.806 98.7832 196.492 98.7832C197.063 98.7832 197.405 99.1239 197.405 99.8051C197.405 100.486 197.063 101.395 196.492 102.53C196.17 103.17 195.884 103.774 195.635 104.301C195.442 104.709 195.271 105.071 195.121 105.369C194.55 106.618 194.322 107.526 194.322 108.321C194.322 109.116 194.436 109.57 194.664 109.797C195.121 110.251 195.692 110.251 196.377 109.911C197.063 109.456 198.091 108.775 199.347 107.64C200.261 106.845 200.946 106.164 201.631 105.369C201.859 105.028 202.088 104.688 202.431 104.347L203.801 102.984C205.057 101.962 206.314 101.054 207.57 100.259C208.826 99.5781 209.854 99.1239 210.654 98.8968C211.339 98.7832 212.138 98.6697 212.824 98.6697C213.509 98.6697 214.08 98.8968 214.651 99.2374C215.222 99.5781 215.451 100.032 215.451 100.373C215.451 100.6 215.336 100.713 215.108 100.6C214.879 100.032 214.194 99.8051 213.166 99.8051C212.138 99.8051 210.996 100.146 209.74 100.827C208.484 101.508 207.342 102.303 206.314 103.211C205.286 104.12 204.372 105.142 203.687 106.277C203.002 107.413 202.659 108.207 202.659 108.775C202.659 109.683 202.887 110.138 203.458 110.138C204.258 110.138 205.4 109.57 206.999 108.321C209.397 106.504 211.567 104.347 213.737 101.735C214.08 101.168 214.765 101.168 215.907 101.735C216.364 101.962 216.593 102.19 216.478 102.303C216.273 102.78 215.944 103.461 215.516 104.347L215.515 104.349L215.513 104.354C215.229 104.943 214.901 105.622 214.537 106.391C214.154 107.199 213.812 107.908 213.509 108.534C213.089 109.403 212.747 110.111 212.481 110.705C213.096 110.502 213.986 109.75 215.234 108.696C215.377 108.575 215.526 108.45 215.679 108.321C217.164 107.072 218.42 105.709 219.562 104.46C219.791 104.006 220.019 103.552 220.362 103.098C220.933 102.19 221.732 101.281 222.532 100.6C223.902 99.4645 225.158 98.8968 226.301 98.8968C226.529 98.8968 226.872 98.8968 227.1 99.0103C227.9 99.2374 228.356 99.6916 228.356 100.486C228.356 101.054 228.242 101.395 227.9 101.395C227.785 101.395 227.671 101.168 227.671 100.827C227.671 100.373 227.443 100.146 226.872 100.146C225.958 100.146 224.702 101.054 223.217 102.757C221.732 104.46 220.933 106.277 220.59 107.98C220.476 108.321 220.476 108.662 220.476 109.002C220.476 109.343 220.59 109.797 220.818 110.251C221.047 110.705 221.504 110.932 222.189 110.932C222.874 110.932 223.56 110.592 224.359 110.024C225.044 109.456 225.844 108.662 226.415 107.753L226.301 107.526C226.186 107.072 226.186 106.731 226.415 106.504C226.529 106.277 226.872 106.164 227.214 106.277C227.671 105.255 227.9 104.574 227.9 104.006C227.9 103.439 227.785 103.098 227.671 102.757C227.557 102.417 227.557 102.19 227.785 101.962C228.014 101.735 228.356 101.735 228.699 101.735C229.27 101.849 229.498 102.53 229.498 103.552C229.498 104.574 228.813 106.05 227.557 107.753C227.557 108.548 228.014 108.889 228.699 108.889C229.384 108.889 230.526 108.094 232.011 106.504C232.532 105.986 232.859 105.565 233.087 105.271C233.209 105.114 233.302 104.994 233.382 104.915ZM233.941 104.762C233.946 104.744 233.949 104.729 233.951 104.714C233.951 104.71 233.952 104.707 233.952 104.703C233.952 104.698 233.953 104.693 233.953 104.688C234.03 104.765 234.003 104.789 233.941 104.762ZM136.874 88.5643C134.704 90.2674 132.648 92.879 130.592 96.5124C128.993 99.4645 127.737 101.962 126.937 103.779C128.879 102.53 130.935 100.486 133.219 97.6478C135.617 94.8092 137.33 92.3112 138.473 90.0404C138.815 89.4726 138.929 89.0184 138.929 88.6778C138.929 88.1101 138.701 87.883 138.244 87.883C137.902 87.883 137.445 88.1101 136.874 88.5643ZM206.999 116.95L207.684 115.588C207.963 115.033 208.091 114.629 208.19 114.314L208.19 114.314C208.202 114.277 208.213 114.242 208.224 114.207C208.235 114.174 208.245 114.143 208.255 114.112C205.057 116.61 202.659 118.54 201.288 119.902C199.918 121.265 199.233 122.627 199.233 123.876C199.233 124.217 199.347 124.558 199.575 124.671C199.804 124.785 200.146 124.898 200.375 124.898C200.603 124.898 200.946 124.785 201.517 124.331C202.088 123.99 202.545 123.536 202.887 123.195C203.044 122.987 203.201 122.803 203.348 122.631L203.348 122.631L203.349 122.63L203.349 122.629C203.521 122.428 203.678 122.244 203.801 122.06C203.889 121.928 203.994 121.797 204.11 121.652C204.294 121.422 204.504 121.159 204.715 120.811C205.057 120.243 205.286 119.902 205.514 119.562C205.743 119.335 205.971 118.881 206.314 118.199C206.656 117.632 206.885 117.177 206.999 116.95ZM91.0226 10.6728C91.0226 11.2372 90.818 11.6947 90.5657 11.6947C90.3134 11.6947 90.1089 11.2372 90.1089 10.6728C90.1089 10.1084 90.3134 9.65089 90.5657 9.65089C90.818 9.65089 91.0226 10.1084 91.0226 10.6728ZM124.741 127.979C124.741 127.456 124.807 126.986 124.94 126.571C125.08 126.156 125.275 125.803 125.523 125.512C125.771 125.213 126.069 124.988 126.417 124.839C126.772 124.681 127.169 124.602 127.608 124.602C127.98 124.602 128.315 124.673 128.613 124.814C128.919 124.947 129.188 125.121 129.42 125.337H129.445C129.436 125.221 129.428 125.101 129.42 124.976V124.677V122.185H128.427V121.624H130.574V130.285H131.567V130.845H129.432V129.686H129.407C129.3 129.844 129.171 130.002 129.023 130.16C128.874 130.309 128.704 130.446 128.514 130.571C128.324 130.696 128.108 130.795 127.868 130.87C127.637 130.945 127.385 130.982 127.111 130.982C126.723 130.982 126.379 130.908 126.081 130.758C125.792 130.609 125.548 130.401 125.349 130.135C125.151 129.861 124.998 129.541 124.89 129.175C124.791 128.81 124.741 128.411 124.741 127.979ZM129.432 126.035C129.349 125.96 129.258 125.886 129.159 125.811C129.06 125.736 128.944 125.67 128.812 125.611C128.679 125.545 128.53 125.491 128.365 125.449C128.199 125.408 128.013 125.387 127.806 125.387C127.434 125.387 127.128 125.466 126.888 125.624C126.656 125.773 126.47 125.973 126.33 126.222C126.189 126.471 126.09 126.754 126.032 127.069C125.982 127.377 125.957 127.684 125.957 127.992C125.957 128.199 125.978 128.428 126.019 128.677C126.061 128.918 126.139 129.142 126.255 129.35C126.379 129.558 126.545 129.732 126.752 129.873C126.958 130.015 127.223 130.085 127.546 130.085C127.728 130.085 127.926 130.056 128.141 129.998C128.365 129.931 128.572 129.836 128.762 129.711C128.952 129.587 129.109 129.429 129.234 129.238C129.366 129.047 129.432 128.822 129.432 128.565V126.035ZM122.162 130.147C122.104 130.239 121.996 130.285 121.839 130.285H121.38V130.845H124.271V130.285H123.403V124.739H121.256V125.3H122.249V129.661C122.249 129.886 122.22 130.048 122.162 130.147ZM122.199 122.396C122.05 122.546 121.976 122.729 121.976 122.945C121.976 123.144 122.05 123.319 122.199 123.468C122.348 123.618 122.522 123.692 122.72 123.692C122.935 123.692 123.117 123.618 123.266 123.468C123.415 123.319 123.49 123.144 123.49 122.945C123.49 122.729 123.415 122.546 123.266 122.396C123.117 122.247 122.935 122.172 122.72 122.172C122.522 122.172 122.348 122.247 122.199 122.396ZM105.567 130.147C105.509 130.239 105.402 130.285 105.245 130.285H104.785V130.845H107.764V130.285H106.808V127.269C106.808 126.804 106.953 126.442 107.242 126.185C107.532 125.927 107.933 125.798 108.446 125.798H108.992V124.602C108.744 124.602 108.525 124.631 108.335 124.689C108.144 124.739 107.966 124.822 107.801 124.939C107.635 125.055 107.474 125.209 107.317 125.4C107.168 125.591 107.003 125.823 106.821 126.097H106.796V124.739H104.661V125.3H105.654V129.661C105.654 129.886 105.625 130.048 105.567 130.147ZM109.595 126.496C109.446 126.887 109.371 127.331 109.371 127.83C109.371 128.395 109.454 128.876 109.619 129.275C109.793 129.674 110.021 130.002 110.302 130.26C110.583 130.509 110.902 130.692 111.257 130.808C111.613 130.924 111.977 130.982 112.349 130.982C112.879 130.982 113.355 130.878 113.777 130.671C114.207 130.463 114.579 130.172 114.893 129.799L114.484 129.387C114.194 129.728 113.884 129.969 113.553 130.11C113.231 130.251 112.891 130.322 112.536 130.322C112.147 130.322 111.824 130.239 111.568 130.073C111.319 129.906 111.121 129.699 110.972 129.45C110.831 129.2 110.732 128.93 110.674 128.64C110.616 128.349 110.587 128.079 110.587 127.83H114.956V127.294C114.956 126.961 114.91 126.633 114.819 126.309C114.736 125.985 114.592 125.699 114.385 125.449C114.186 125.192 113.917 124.988 113.578 124.839C113.239 124.681 112.821 124.602 112.325 124.602C111.911 124.602 111.526 124.677 111.171 124.826C110.815 124.976 110.5 125.192 110.227 125.474C109.963 125.757 109.752 126.097 109.595 126.496ZM113.404 125.711C113.644 126.077 113.768 126.583 113.777 127.231H110.625C110.649 126.899 110.716 126.604 110.823 126.347C110.931 126.089 111.059 125.873 111.208 125.699C111.365 125.524 111.539 125.391 111.729 125.3C111.928 125.209 112.126 125.163 112.325 125.163C112.805 125.163 113.164 125.346 113.404 125.711ZM115.632 129.175H116.575V129.313C116.575 129.512 116.617 129.682 116.7 129.823C116.791 129.965 116.906 130.081 117.047 130.172C117.196 130.255 117.365 130.318 117.556 130.359C117.754 130.401 117.961 130.422 118.176 130.422C118.433 130.422 118.652 130.393 118.834 130.334C119.016 130.276 119.165 130.201 119.281 130.11C119.397 130.01 119.479 129.902 119.529 129.786C119.587 129.67 119.616 129.549 119.616 129.425C119.616 129.159 119.517 128.943 119.318 128.777C119.119 128.611 118.76 128.453 118.238 128.303L117.506 128.091C117.175 127.992 116.898 127.884 116.675 127.767C116.46 127.651 116.286 127.522 116.153 127.381C116.021 127.231 115.926 127.065 115.868 126.883C115.81 126.7 115.781 126.496 115.781 126.272C115.781 126.039 115.831 125.823 115.93 125.624C116.029 125.416 116.174 125.238 116.364 125.088C116.563 124.939 116.807 124.822 117.097 124.739C117.386 124.648 117.721 124.602 118.102 124.602C118.383 124.602 118.644 124.631 118.884 124.689C119.124 124.739 119.335 124.806 119.517 124.889C119.707 124.963 119.868 125.047 120 125.138C120.141 125.221 120.245 125.296 120.311 125.362V126.309H119.368V126.172C119.368 125.989 119.33 125.836 119.256 125.711C119.181 125.587 119.082 125.483 118.958 125.4C118.834 125.317 118.685 125.258 118.511 125.225C118.346 125.184 118.164 125.163 117.965 125.163C117.725 125.163 117.531 125.196 117.382 125.263C117.233 125.329 117.113 125.412 117.022 125.512C116.931 125.603 116.869 125.707 116.836 125.823C116.803 125.931 116.786 126.035 116.786 126.135C116.786 126.384 116.877 126.592 117.059 126.758C117.241 126.916 117.531 127.053 117.928 127.169L118.697 127.393C119.095 127.51 119.417 127.63 119.665 127.755C119.922 127.871 120.12 128.004 120.261 128.154C120.41 128.295 120.509 128.457 120.559 128.64C120.609 128.814 120.633 129.013 120.633 129.238C120.633 129.462 120.575 129.682 120.46 129.898C120.352 130.106 120.191 130.293 119.976 130.459C119.761 130.617 119.496 130.746 119.181 130.845C118.875 130.937 118.528 130.982 118.139 130.982C117.568 130.982 117.068 130.891 116.637 130.708C116.207 130.525 115.872 130.33 115.632 130.122V129.175ZM132.228 126.496C132.079 126.887 132.004 127.331 132.004 127.83C132.004 128.395 132.087 128.876 132.253 129.275C132.426 129.674 132.654 130.002 132.935 130.26C133.216 130.509 133.535 130.692 133.891 130.808C134.246 130.924 134.61 130.982 134.983 130.982C135.512 130.982 135.988 130.878 136.41 130.671C136.84 130.463 137.212 130.172 137.527 129.799L137.117 129.387C136.828 129.728 136.517 129.969 136.187 130.11C135.864 130.251 135.525 130.322 135.169 130.322C134.78 130.322 134.457 130.239 134.201 130.073C133.953 129.906 133.754 129.699 133.605 129.45C133.465 129.2 133.365 128.93 133.307 128.64C133.25 128.349 133.221 128.079 133.221 127.83H137.589V127.294C137.589 126.961 137.543 126.633 137.452 126.309C137.37 125.985 137.225 125.699 137.018 125.449C136.819 125.192 136.551 124.988 136.211 124.839C135.872 124.681 135.454 124.602 134.958 124.602C134.544 124.602 134.16 124.677 133.804 124.826C133.448 124.976 133.134 125.192 132.861 125.474C132.596 125.757 132.385 126.097 132.228 126.496ZM136.038 125.711C136.278 126.077 136.402 126.583 136.41 127.231H133.258C133.283 126.899 133.349 126.604 133.456 126.347C133.564 126.089 133.692 125.873 133.841 125.699C133.998 125.524 134.172 125.391 134.362 125.3C134.561 125.209 134.759 125.163 134.958 125.163C135.438 125.163 135.798 125.346 136.038 125.711ZM138.601 130.285C138.758 130.285 138.865 130.239 138.923 130.147C138.981 130.048 139.01 129.886 139.01 129.661V125.3H138.017V124.739H140.152V125.973H140.177C140.309 125.79 140.462 125.616 140.636 125.449C140.818 125.283 141.012 125.138 141.219 125.013C141.434 124.889 141.662 124.789 141.902 124.714C142.142 124.639 142.386 124.602 142.634 124.602C142.94 124.602 143.2 124.652 143.416 124.752C143.639 124.843 143.821 124.976 143.962 125.15C144.102 125.317 144.206 125.52 144.272 125.761C144.346 125.994 144.384 126.251 144.384 126.534V130.285H145.252V130.845H142.41V130.285H142.832C142.973 130.285 143.072 130.239 143.13 130.147C143.196 130.048 143.229 129.886 143.229 129.661V126.833C143.229 126.642 143.213 126.467 143.18 126.309C143.147 126.143 143.089 126.002 143.006 125.886C142.932 125.761 142.824 125.665 142.683 125.599C142.543 125.533 142.365 125.499 142.15 125.499C141.951 125.499 141.736 125.533 141.504 125.599C141.273 125.665 141.058 125.765 140.859 125.898C140.661 126.031 140.495 126.197 140.363 126.397C140.23 126.588 140.164 126.812 140.164 127.069V130.285H140.983V130.845H138.141V130.285H138.601ZM145.92 126.421C145.763 126.829 145.684 127.315 145.684 127.879C145.684 128.428 145.767 128.897 145.932 129.288C146.098 129.678 146.313 129.998 146.578 130.247C146.851 130.496 147.161 130.683 147.508 130.808C147.864 130.924 148.228 130.982 148.601 130.982C148.882 130.982 149.142 130.949 149.382 130.883C149.631 130.816 149.854 130.729 150.052 130.621C150.251 130.505 150.425 130.376 150.574 130.235C150.731 130.093 150.867 129.952 150.983 129.811L150.561 129.412C150.321 129.686 150.065 129.906 149.792 130.073C149.527 130.239 149.196 130.322 148.799 130.322C148.452 130.322 148.158 130.255 147.918 130.122C147.678 129.981 147.48 129.798 147.322 129.574C147.173 129.35 147.066 129.092 147 128.802C146.934 128.503 146.9 128.191 146.9 127.867C146.9 127.518 146.929 127.182 146.987 126.858C147.045 126.525 147.14 126.235 147.273 125.985C147.413 125.736 147.595 125.537 147.819 125.387C148.042 125.238 148.315 125.163 148.638 125.163C148.778 125.163 148.919 125.179 149.06 125.213C149.209 125.246 149.341 125.312 149.457 125.412C149.573 125.503 149.668 125.632 149.742 125.798C149.817 125.956 149.854 126.164 149.854 126.421V126.583H150.834V125.499C150.752 125.4 150.644 125.296 150.512 125.188C150.379 125.08 150.222 124.984 150.04 124.901C149.858 124.81 149.655 124.739 149.432 124.689C149.209 124.631 148.965 124.602 148.7 124.602C148.294 124.602 147.91 124.669 147.546 124.801C147.182 124.926 146.859 125.125 146.578 125.4C146.305 125.665 146.085 126.006 145.92 126.421ZM151.482 127.83C151.482 127.331 151.556 126.887 151.705 126.496C151.862 126.097 152.073 125.757 152.338 125.474C152.611 125.192 152.926 124.976 153.281 124.826C153.637 124.677 154.022 124.602 154.435 124.602C154.932 124.602 155.35 124.681 155.689 124.839C156.028 124.988 156.297 125.192 156.495 125.449C156.702 125.699 156.847 125.985 156.93 126.309C157.021 126.633 157.066 126.961 157.066 127.294V127.83H152.698C152.698 128.079 152.727 128.349 152.785 128.64C152.843 128.93 152.942 129.2 153.083 129.45C153.232 129.699 153.43 129.906 153.678 130.073C153.935 130.239 154.258 130.322 154.646 130.322C155.002 130.322 155.341 130.251 155.664 130.11C155.995 129.969 156.305 129.728 156.595 129.387L157.004 129.799C156.69 130.172 156.318 130.463 155.887 130.671C155.465 130.878 154.99 130.982 154.46 130.982C154.088 130.982 153.724 130.924 153.368 130.808C153.012 130.692 152.694 130.509 152.413 130.26C152.131 130.002 151.904 129.674 151.73 129.275C151.565 128.876 151.482 128.395 151.482 127.83ZM155.887 127.231C155.879 126.583 155.755 126.077 155.515 125.711C155.275 125.346 154.915 125.163 154.435 125.163C154.237 125.163 154.038 125.209 153.84 125.3C153.649 125.391 153.476 125.524 153.319 125.699C153.17 125.873 153.041 126.089 152.934 126.347C152.826 126.604 152.76 126.899 152.735 127.231H155.887ZM136.215 80.5008C134.186 80.3868 131.03 80.0448 126.86 79.3609C122.69 78.6769 119.196 78.335 116.378 78.335C111.194 78.335 106.798 79.2469 103.191 81.0707C100.148 82.5525 98.345 84.7183 97.7814 87.4541C97.7814 87.5485 97.7621 87.6429 97.7395 87.7535C97.7074 87.9099 97.6687 88.0989 97.6687 88.366C97.4433 88.8219 97.3306 89.5058 97.3306 90.1898C97.3306 90.8737 97.7814 91.7856 98.6831 92.9255C99.5847 93.9514 100.712 94.7493 102.064 95.0913C102.121 95.0913 102.205 95.1198 102.29 95.1483C102.374 95.1768 102.459 95.2053 102.515 95.2053C102.585 95.2053 102.654 95.1617 102.751 95.1016C102.81 95.0644 102.88 95.0209 102.966 94.9773C103.079 94.8633 103.079 94.7493 102.853 94.5213C102.628 94.2934 102.177 94.0654 101.501 93.7234C100.825 93.3815 100.374 93.0395 100.036 92.6975C99.6975 92.4695 99.472 92.0136 99.2466 91.5577C99.0212 91.1017 98.9085 90.6457 98.9085 90.4178C98.9085 90.0758 98.9085 89.8478 99.0212 89.6198C99.5847 87.3401 101.163 85.4023 103.868 83.8064C106.573 82.3246 109.841 81.2987 113.56 80.7287C114.575 80.5008 115.927 80.3868 117.731 80.3868C119.534 80.3868 122.239 80.5008 125.846 80.8427C129.452 81.1847 131.819 81.2987 133.059 81.2987C133.059 81.2987 134.975 81.2987 135.538 81.1847C136.327 80.9567 136.215 80.5008 136.215 80.5008ZM106.911 108.77C107.023 107.516 108.489 104.096 111.532 98.397C117.326 97.7802 118.078 97.5342 119.741 96.9901L119.742 96.9896L119.745 96.9888C119.924 96.93 120.115 96.8678 120.323 96.8012C121.225 96.4592 121.563 96.2313 121.563 96.0033C121.563 95.9328 121.52 95.9059 121.46 95.8687C121.423 95.8457 121.38 95.8189 121.337 95.7753C121.225 95.6613 121.112 95.6613 120.887 95.6613H119.759C119.611 95.6613 119.611 95.6454 119.612 95.6325C119.613 95.5966 119.613 95.5838 116.378 96.0033C115.16 96.2087 114.033 96.3216 112.997 96.4253C112.883 96.4367 112.77 96.448 112.659 96.4592C116.942 88.936 120.436 85.1744 122.915 85.1744C123.141 85.1744 123.366 85.2884 123.591 85.4024C123.704 84.7184 123.366 84.0345 122.464 83.5785C121.675 83.1226 120.887 82.8946 120.323 82.8946C118.97 82.8946 117.618 83.6925 115.927 85.4024C114.349 87.1122 113.448 88.3661 113.222 89.5059C113.335 89.7339 113.335 89.9619 113.335 90.3039C113.335 90.6458 112.997 91.4437 112.433 92.5836C112.165 93.1275 111.844 93.7233 111.51 94.3462C111.143 95.0287 110.758 95.7441 110.405 96.4592H110.292C110.225 96.4592 110.158 96.3784 110.044 96.2419C109.966 96.1483 109.866 96.0281 109.728 95.8893C109.39 95.5473 109.052 95.3194 108.714 95.3194C108.263 95.3194 107.7 95.5473 106.911 95.8893C106.122 96.2313 105.784 96.6872 105.784 97.1432C105.784 97.5991 105.896 97.9411 106.235 98.1691C106.573 98.397 106.911 98.625 107.362 98.625C107.812 98.625 108.489 98.625 109.39 98.511C106.122 104.894 104.544 108.884 104.544 110.708V111.164C104.544 111.26 104.787 111.357 105.203 111.523L105.209 111.525L105.319 111.569C105.36 111.585 105.402 111.602 105.446 111.62C106.477 111.999 106.806 110.09 106.953 109.241C106.982 109.07 107.005 108.941 107.023 108.884L106.911 108.77Z" fill="url(#paint0_linear_245_2092)"/>
<defs>
<linearGradient id="paint0_linear_245_2092" x1="266.337" y1="105.628" x2="-17.8119" y2="70.8335" gradientUnits="userSpaceOnUse">
<stop stop-color="#A76F2A"/>
<stop offset="0.398007" stop-color="#E2B855"/>
<stop offset="0.958884" stop-color="#8F5E21"/>
</linearGradient>
</defs>
</svg>
