<svg width="48" height="48" viewBox="0 0 48 48" fill="none" xmlns="http://www.w3.org/2000/svg">
<g clip-path="url(#clip0_595_713)">
<path fill-rule="evenodd" clip-rule="evenodd" d="M36.9123 3.8375C43.2248 8.0125 46.8748 13.8625 47.7998 21.4C47.8748 21.9875 47.9373 22.575 47.9748 23.1625V24.85C47.9617 24.9376 47.947 25.0237 47.9324 25.1093C47.9053 25.268 47.8785 25.4251 47.8623 25.5875C47.8222 25.9129 47.79 26.24 47.7578 26.5669C47.6998 27.1566 47.6418 27.746 47.5373 28.325C46.7248 32.6875 44.8748 36.55 41.9123 39.8625C37.8248 44.425 32.7373 47.1 26.6248 47.8C26.3248 47.8312 26.0248 47.8656 25.7248 47.9C25.4248 47.9344 25.1248 47.9688 24.8248 48H23.1373C23.0123 47.9813 22.8904 47.9625 22.7686 47.9437C22.6467 47.925 22.5248 47.9062 22.3998 47.8875C22.0915 47.8494 21.7822 47.8161 21.4731 47.7828C20.6666 47.6959 19.8609 47.6092 19.0748 47.4375C13.2498 46.2125 8.5248 43.2 4.9123 38.4875C2.2373 34.9875 0.662305 31.0375 0.187305 26.65C0.156055 26.35 0.12168 26.05 0.0873047 25.75C0.0529297 25.45 0.0185547 25.15 -0.0126953 24.85V23.1625C0.000442555 23.0749 0.0151147 22.9889 0.0297085 22.9033C0.0567705 22.7446 0.0835633 22.5874 0.0998047 22.425C0.139928 22.0996 0.172101 21.7725 0.204263 21.4456C0.26228 20.8559 0.32026 20.2665 0.424805 19.6875C1.2498 15.275 3.1373 11.3625 6.1623 8.0375C10.2373 3.5375 15.3123 0.9 21.3623 0.2C21.6623 0.16875 21.9623 0.134375 22.2623 0.1C22.5623 0.065625 22.8623 0.03125 23.1623 0H24.8498C25.0569 0.0214285 25.2641 0.0408162 25.4712 0.0602039C25.9891 0.108673 26.5069 0.157143 27.0248 0.2375C30.5873 0.7125 33.9123 1.85 36.9123 3.8375ZM17.6873 37.425C20.7248 38.775 23.8498 39.15 27.0998 38.475C34.8623 36.8625 40.0873 29.2 38.7248 21.425C37.4498 14.1875 31.2998 8.9875 23.9873 8.9C23.7241 8.93117 23.4599 8.95946 23.1953 8.9878C22.5049 9.06174 21.8116 9.13599 21.1248 9.2625C14.4498 10.5375 9.2123 16.35 9.0748 23.7C9.0373 26 9.5373 28.1875 10.4998 30.275C10.6123 30.5125 10.6373 30.825 10.5873 31.075C10.1248 33.3875 9.64981 35.6875 9.1748 37.9875C8.9998 38.8625 9.3123 39.1625 10.1748 38.9625L10.1757 38.9623C12.4129 38.4249 14.6501 37.8874 16.8998 37.375C17.1498 37.3125 17.4623 37.325 17.6873 37.425ZM12.3872 23.6625C12.4372 18.625 16.0122 13.9875 20.8872 12.6875C27.4747 10.9375 33.9872 14.9375 35.3872 21.575C36.6872 27.775 32.5247 34 26.2997 35.2125C23.5497 35.75 20.9372 35.35 18.4622 34.0375C17.9872 33.7875 17.5622 33.7375 17.0497 33.875C16.2451 34.0919 15.4339 34.2762 14.6209 34.4609C14.3099 34.5316 13.9985 34.6023 13.6872 34.675C13.5857 34.7054 13.4759 34.7194 13.3377 34.737C13.3058 34.741 13.2724 34.7453 13.2372 34.75L13.2421 34.7252C13.5028 33.3967 13.7515 32.1296 14.0372 30.8625C14.1497 30.375 14.0997 29.975 13.8622 29.5375C12.8622 27.7125 12.3747 25.75 12.3872 23.6625ZM29.3122 30.975C30.4372 30.6625 31.1247 29.8125 31.7497 28.9C32.2997 28.0875 31.9997 27.2875 31.0497 27.025C30.1747 26.7625 29.3122 26.525 28.4372 26.2875C27.9497 26.15 27.5122 26.2375 27.1497 26.6125L26.6872 27.075C26.1247 27.625 25.7622 27.7125 25.0997 27.325C23.3622 26.3 21.8622 24.975 20.6372 23.375C20.1872 22.8 20.2247 22.425 20.6622 21.85L21.1497 21.2125C21.4247 20.85 21.4747 20.45 21.2872 20.025C21.1998 19.8248 21.113 19.6247 21.0264 19.4246C20.7286 18.7378 20.4317 18.0526 20.1122 17.375C19.7497 16.5875 18.9622 16.425 18.2997 16.9875C17.9497 17.2875 17.6247 17.6375 17.3247 17.9875C16.7247 18.7125 16.4247 19.525 16.4497 20.4875C16.4997 21.7 16.8497 22.825 17.4622 23.85C18.9497 26.35 21.0247 28.2625 23.4747 29.775C24.8122 30.6125 26.2747 31.15 27.8872 31.2125C28.0303 31.1899 28.1746 31.1707 28.3189 31.1515C28.6537 31.1069 28.989 31.0623 29.3122 30.975Z" fill="url(#paint0_linear_595_713)"/>
</g>
<defs>
<linearGradient id="paint0_linear_595_713" x1="61.9105" y1="4.69354e-07" x2="-18.2083" y2="15.1603" gradientUnits="userSpaceOnUse">
<stop stop-color="#FFD15B"/>
<stop offset="0.169225" stop-color="#E08F2A"/>
<stop offset="0.380208" stop-color="#FECF62"/>
<stop offset="0.384653" stop-color="#FFCE5A"/>
<stop offset="0.639648" stop-color="#FFF59F"/>
<stop offset="0.846739" stop-color="#FFCA4B"/>
<stop offset="1" stop-color="#FDC43E"/>
</linearGradient>
<clipPath id="clip0_595_713">
<rect width="48" height="48" fill="white"/>
</clipPath>
</defs>
</svg>
